ISO-10303-21;
HEADER;
/* Generated by software containing ST-Developer
 * from STEP Tools, Inc. (www.steptools.com) 
 */
/* OPTION: using custom renumber hook */

FILE_DESCRIPTION(
/* description */ ('STEP AP242 Edition 2',
'CAx-IF Rec.Pracs.---Representation and Presentation of Product Manufa
cturing Information (PMI)---4.0---2014-10-13',
'CAx-IF Rec.Pracs.---3D Tessellated Geometry---0.4---2014-09-14','2;1',
'CAx-IF Rec.Pracs.---User Defined Attributes---1.5---2016-08-15'),
/* implementation_level */ '2;1');

FILE_NAME(
/* name */ 'Case',
/* time_stamp */ '2026-07-24T02:41:58Z',
/* author */ (''),
/* organization */ (''),
/* preprocessor_version */ 'ST-DEVELOPER v20',
/* originating_system */ 'ONSHAPE BY PTC INC, 1.218',
/* authorisation */ '  ');

FILE_SCHEMA (('AP242_MANAGED_MODEL_BASED_3D_ENGINEERING_MIM_LF { 1 0 10303 442 3 1 4 }'));
ENDSEC;

DATA;
#10=SHAPE_REPRESENTATION_RELATIONSHIP('','',#425,#11);
#11=ADVANCED_BREP_SHAPE_REPRESENTATION('',(#423),#695);
#12=CYLINDRICAL_SURFACE('',#445,0.003);
#13=CYLINDRICAL_SURFACE('',#449,0.003);
#14=CYLINDRICAL_SURFACE('',#453,0.003);
#15=CYLINDRICAL_SURFACE('',#457,0.0015);
#16=CYLINDRICAL_SURFACE('',#460,0.0015);
#17=CYLINDRICAL_SURFACE('',#463,0.0015);
#18=CIRCLE('',#438,0.003);
#19=CIRCLE('',#439,0.003);
#20=CIRCLE('',#440,0.003);
#21=CIRCLE('',#446,0.003);
#22=CIRCLE('',#448,0.0015);
#23=CIRCLE('',#450,0.003);
#24=CIRCLE('',#452,0.0015);
#25=CIRCLE('',#454,0.003);
#26=CIRCLE('',#456,0.0015);
#27=CIRCLE('',#458,0.0015);
#28=CIRCLE('',#461,0.0015);
#29=CIRCLE('',#464,0.0015);
#30=ORIENTED_EDGE('',*,*,#126,.T.);
#31=ORIENTED_EDGE('',*,*,#127,.F.);
#32=ORIENTED_EDGE('',*,*,#128,.F.);
#33=ORIENTED_EDGE('',*,*,#129,.T.);
#34=ORIENTED_EDGE('',*,*,#130,.T.);
#35=ORIENTED_EDGE('',*,*,#131,.T.);
#36=ORIENTED_EDGE('',*,*,#132,.F.);
#37=ORIENTED_EDGE('',*,*,#133,.F.);
#38=ORIENTED_EDGE('',*,*,#134,.F.);
#39=ORIENTED_EDGE('',*,*,#135,.F.);
#40=ORIENTED_EDGE('',*,*,#136,.T.);
#41=ORIENTED_EDGE('',*,*,#137,.T.);
#42=ORIENTED_EDGE('',*,*,#138,.T.);
#43=ORIENTED_EDGE('',*,*,#139,.T.);
#44=ORIENTED_EDGE('',*,*,#140,.F.);
#45=ORIENTED_EDGE('',*,*,#141,.F.);
#46=ORIENTED_EDGE('',*,*,#142,.F.);
#47=ORIENTED_EDGE('',*,*,#128,.T.);
#48=ORIENTED_EDGE('',*,*,#143,.T.);
#49=ORIENTED_EDGE('',*,*,#144,.F.);
#50=ORIENTED_EDGE('',*,*,#136,.F.);
#51=ORIENTED_EDGE('',*,*,#145,.T.);
#52=ORIENTED_EDGE('',*,*,#146,.T.);
#53=ORIENTED_EDGE('',*,*,#147,.F.);
#54=ORIENTED_EDGE('',*,*,#148,.F.);
#55=ORIENTED_EDGE('',*,*,#129,.F.);
#56=ORIENTED_EDGE('',*,*,#142,.T.);
#57=ORIENTED_EDGE('',*,*,#149,.T.);
#58=ORIENTED_EDGE('',*,*,#150,.T.);
#59=ORIENTED_EDGE('',*,*,#151,.F.);
#60=ORIENTED_EDGE('',*,*,#143,.F.);
#61=ORIENTED_EDGE('',*,*,#127,.T.);
#62=ORIENTED_EDGE('',*,*,#152,.F.);
#63=ORIENTED_EDGE('',*,*,#149,.F.);
#64=ORIENTED_EDGE('',*,*,#144,.T.);
#65=ORIENTED_EDGE('',*,*,#151,.T.);
#66=ORIENTED_EDGE('',*,*,#148,.T.);
#67=ORIENTED_EDGE('',*,*,#152,.T.);
#68=ORIENTED_EDGE('',*,*,#150,.F.);
#69=ORIENTED_EDGE('',*,*,#126,.F.);
#70=ORIENTED_EDGE('',*,*,#153,.T.);
#71=ORIENTED_EDGE('',*,*,#154,.F.);
#72=ORIENTED_EDGE('',*,*,#145,.F.);
#73=ORIENTED_EDGE('',*,*,#135,.T.);
#74=ORIENTED_EDGE('',*,*,#155,.F.);
#75=ORIENTED_EDGE('',*,*,#137,.F.);
#76=ORIENTED_EDGE('',*,*,#147,.T.);
#77=ORIENTED_EDGE('',*,*,#156,.T.);
#78=ORIENTED_EDGE('',*,*,#157,.T.);
#79=ORIENTED_EDGE('',*,*,#156,.F.);
#80=ORIENTED_EDGE('',*,*,#146,.F.);
#81=ORIENTED_EDGE('',*,*,#154,.T.);
#82=ORIENTED_EDGE('',*,*,#158,.F.);
#83=ORIENTED_EDGE('',*,*,#159,.F.);
#84=ORIENTED_EDGE('',*,*,#160,.F.);
#85=ORIENTED_EDGE('',*,*,#153,.F.);
#86=ORIENTED_EDGE('',*,*,#134,.T.);
#87=ORIENTED_EDGE('',*,*,#155,.T.);
#88=ORIENTED_EDGE('',*,*,#157,.F.);
#89=ORIENTED_EDGE('',*,*,#161,.T.);
#90=ORIENTED_EDGE('',*,*,#130,.F.);
#91=ORIENTED_EDGE('',*,*,#162,.F.);
#92=ORIENTED_EDGE('',*,*,#139,.F.);
#93=ORIENTED_EDGE('',*,*,#140,.T.);
#94=ORIENTED_EDGE('',*,*,#162,.T.);
#95=ORIENTED_EDGE('',*,*,#133,.T.);
#96=ORIENTED_EDGE('',*,*,#163,.F.);
#97=ORIENTED_EDGE('',*,*,#141,.T.);
#98=ORIENTED_EDGE('',*,*,#163,.T.);
#99=ORIENTED_EDGE('',*,*,#132,.T.);
#100=ORIENTED_EDGE('',*,*,#164,.F.);
#101=ORIENTED_EDGE('',*,*,#164,.T.);
#102=ORIENTED_EDGE('',*,*,#131,.F.);
#103=ORIENTED_EDGE('',*,*,#161,.F.);
#104=ORIENTED_EDGE('',*,*,#138,.F.);
#105=ORIENTED_EDGE('',*,*,#160,.T.);
#106=ORIENTED_EDGE('',*,*,#165,.T.);
#107=ORIENTED_EDGE('',*,*,#166,.F.);
#108=ORIENTED_EDGE('',*,*,#165,.F.);
#109=ORIENTED_EDGE('',*,*,#159,.T.);
#110=ORIENTED_EDGE('',*,*,#167,.T.);
#111=ORIENTED_EDGE('',*,*,#168,.F.);
#112=ORIENTED_EDGE('',*,*,#167,.F.);
#113=ORIENTED_EDGE('',*,*,#158,.T.);
#114=ORIENTED_EDGE('',*,*,#169,.T.);
#115=ORIENTED_EDGE('',*,*,#170,.F.);
#116=ORIENTED_EDGE('',*,*,#169,.F.);
#117=ORIENTED_EDGE('',*,*,#171,.F.);
#118=ORIENTED_EDGE('',*,*,#170,.T.);
#119=ORIENTED_EDGE('',*,*,#171,.T.);
#120=ORIENTED_EDGE('',*,*,#172,.F.);
#121=ORIENTED_EDGE('',*,*,#168,.T.);
#122=ORIENTED_EDGE('',*,*,#172,.T.);
#123=ORIENTED_EDGE('',*,*,#173,.F.);
#124=ORIENTED_EDGE('',*,*,#166,.T.);
#125=ORIENTED_EDGE('',*,*,#173,.T.);
#126=EDGE_CURVE('',#174,#175,#210,.T.);
#127=EDGE_CURVE('',#176,#175,#211,.T.);
#128=EDGE_CURVE('',#177,#176,#212,.T.);
#129=EDGE_CURVE('',#177,#174,#213,.T.);
#130=EDGE_CURVE('',#178,#179,#214,.T.);
#131=EDGE_CURVE('',#179,#180,#215,.T.);
#132=EDGE_CURVE('',#181,#180,#216,.T.);
#133=EDGE_CURVE('',#178,#181,#217,.T.);
#134=EDGE_CURVE('',#182,#183,#218,.T.);
#135=EDGE_CURVE('',#184,#182,#219,.T.);
#136=EDGE_CURVE('',#184,#185,#220,.T.);
#137=EDGE_CURVE('',#185,#183,#221,.T.);
#138=EDGE_CURVE('',#186,#187,#222,.T.);
#139=EDGE_CURVE('',#187,#188,#223,.T.);
#140=EDGE_CURVE('',#189,#188,#224,.T.);
#141=EDGE_CURVE('',#186,#189,#225,.T.);
#142=EDGE_CURVE('',#177,#190,#226,.T.);
#143=EDGE_CURVE('',#176,#191,#227,.T.);
#144=EDGE_CURVE('',#190,#191,#228,.T.);
#145=EDGE_CURVE('',#184,#192,#229,.T.);
#146=EDGE_CURVE('',#192,#193,#230,.T.);
#147=EDGE_CURVE('',#185,#193,#231,.T.);
#148=EDGE_CURVE('',#174,#194,#232,.T.);
#149=EDGE_CURVE('',#190,#194,#233,.T.);
#150=EDGE_CURVE('',#175,#195,#234,.T.);
#151=EDGE_CURVE('',#191,#195,#235,.T.);
#152=EDGE_CURVE('',#194,#195,#236,.T.);
#153=EDGE_CURVE('',#182,#196,#237,.T.);
#154=EDGE_CURVE('',#192,#196,#238,.T.);
#155=EDGE_CURVE('',#183,#197,#239,.T.);
#156=EDGE_CURVE('',#193,#197,#240,.T.);
#157=EDGE_CURVE('',#196,#197,#241,.T.);
#158=EDGE_CURVE('',#198,#198,#18,.T.);
#159=EDGE_CURVE('',#199,#199,#19,.T.);
#160=EDGE_CURVE('',#200,#200,#20,.T.);
#161=EDGE_CURVE('',#187,#179,#242,.T.);
#162=EDGE_CURVE('',#188,#178,#243,.T.);
#163=EDGE_CURVE('',#189,#181,#244,.T.);
#164=EDGE_CURVE('',#186,#180,#245,.T.);
#165=EDGE_CURVE('',#201,#201,#21,.T.);
#166=EDGE_CURVE('',#202,#202,#22,.T.);
#167=EDGE_CURVE('',#203,#203,#23,.T.);
#168=EDGE_CURVE('',#204,#204,#24,.T.);
#169=EDGE_CURVE('',#205,#205,#25,.T.);
#170=EDGE_CURVE('',#206,#206,#26,.T.);
#171=EDGE_CURVE('',#207,#207,#27,.T.);
#172=EDGE_CURVE('',#208,#208,#28,.T.);
#173=EDGE_CURVE('',#209,#209,#29,.T.);
#174=VERTEX_POINT('',#585);
#175=VERTEX_POINT('',#586);
#176=VERTEX_POINT('',#588);
#177=VERTEX_POINT('',#590);
#178=VERTEX_POINT('',#593);
#179=VERTEX_POINT('',#594);
#180=VERTEX_POINT('',#596);
#181=VERTEX_POINT('',#598);
#182=VERTEX_POINT('',#602);
#183=VERTEX_POINT('',#603);
#184=VERTEX_POINT('',#605);
#185=VERTEX_POINT('',#607);
#186=VERTEX_POINT('',#610);
#187=VERTEX_POINT('',#611);
#188=VERTEX_POINT('',#613);
#189=VERTEX_POINT('',#615);
#190=VERTEX_POINT('',#619);
#191=VERTEX_POINT('',#621);
#192=VERTEX_POINT('',#624);
#193=VERTEX_POINT('',#626);
#194=VERTEX_POINT('',#630);
#195=VERTEX_POINT('',#634);
#196=VERTEX_POINT('',#641);
#197=VERTEX_POINT('',#645);
#198=VERTEX_POINT('',#651);
#199=VERTEX_POINT('',#653);
#200=VERTEX_POINT('',#655);
#201=VERTEX_POINT('',#666);
#202=VERTEX_POINT('',#669);
#203=VERTEX_POINT('',#672);
#204=VERTEX_POINT('',#675);
#205=VERTEX_POINT('',#678);
#206=VERTEX_POINT('',#681);
#207=VERTEX_POINT('',#684);
#208=VERTEX_POINT('',#688);
#209=VERTEX_POINT('',#692);
#210=LINE('',#584,#246);
#211=LINE('',#587,#247);
#212=LINE('',#589,#248);
#213=LINE('',#591,#249);
#214=LINE('',#592,#250);
#215=LINE('',#595,#251);
#216=LINE('',#597,#252);
#217=LINE('',#599,#253);
#218=LINE('',#601,#254);
#219=LINE('',#604,#255);
#220=LINE('',#606,#256);
#221=LINE('',#608,#257);
#222=LINE('',#609,#258);
#223=LINE('',#612,#259);
#224=LINE('',#614,#260);
#225=LINE('',#616,#261);
#226=LINE('',#618,#262);
#227=LINE('',#620,#263);
#228=LINE('',#622,#264);
#229=LINE('',#623,#265);
#230=LINE('',#625,#266);
#231=LINE('',#627,#267);
#232=LINE('',#629,#268);
#233=LINE('',#631,#269);
#234=LINE('',#633,#270);
#235=LINE('',#635,#271);
#236=LINE('',#637,#272);
#237=LINE('',#640,#273);
#238=LINE('',#642,#274);
#239=LINE('',#644,#275);
#240=LINE('',#646,#276);
#241=LINE('',#648,#277);
#242=LINE('',#657,#278);
#243=LINE('',#658,#279);
#244=LINE('',#660,#280);
#245=LINE('',#662,#281);
#246=VECTOR('',#470,1.);
#247=VECTOR('',#471,1.);
#248=VECTOR('',#472,1.);
#249=VECTOR('',#473,1.);
#250=VECTOR('',#474,1.);
#251=VECTOR('',#475,1.);
#252=VECTOR('',#476,1.);
#253=VECTOR('',#477,1.);
#254=VECTOR('',#480,1.);
#255=VECTOR('',#481,1.);
#256=VECTOR('',#482,1.);
#257=VECTOR('',#483,1.);
#258=VECTOR('',#484,1.);
#259=VECTOR('',#485,1.);
#260=VECTOR('',#486,1.);
#261=VECTOR('',#487,1.);
#262=VECTOR('',#490,1.);
#263=VECTOR('',#491,1.);
#264=VECTOR('',#492,1.);
#265=VECTOR('',#493,1.);
#266=VECTOR('',#494,1.);
#267=VECTOR('',#495,1.);
#268=VECTOR('',#498,1.);
#269=VECTOR('',#499,1.);
#270=VECTOR('',#502,1.);
#271=VECTOR('',#503,1.);
#272=VECTOR('',#506,1.);
#273=VECTOR('',#511,1.);
#274=VECTOR('',#512,1.);
#275=VECTOR('',#515,1.);
#276=VECTOR('',#516,1.);
#277=VECTOR('',#519,1.);
#278=VECTOR('',#530,1.);
#279=VECTOR('',#531,1.);
#280=VECTOR('',#534,1.);
#281=VECTOR('',#537,1.);
#282=EDGE_LOOP('',(#30,#31,#32,#33));
#283=EDGE_LOOP('',(#34,#35,#36,#37));
#284=EDGE_LOOP('',(#38,#39,#40,#41));
#285=EDGE_LOOP('',(#42,#43,#44,#45));
#286=EDGE_LOOP('',(#46,#47,#48,#49));
#287=EDGE_LOOP('',(#50,#51,#52,#53));
#288=EDGE_LOOP('',(#54,#55,#56,#57));
#289=EDGE_LOOP('',(#58,#59,#60,#61));
#290=EDGE_LOOP('',(#62,#63,#64,#65));
#291=EDGE_LOOP('',(#66,#67,#68,#69));
#292=EDGE_LOOP('',(#70,#71,#72,#73));
#293=EDGE_LOOP('',(#74,#75,#76,#77));
#294=EDGE_LOOP('',(#78,#79,#80,#81));
#295=EDGE_LOOP('',(#82));
#296=EDGE_LOOP('',(#83));
#297=EDGE_LOOP('',(#84));
#298=EDGE_LOOP('',(#85,#86,#87,#88));
#299=EDGE_LOOP('',(#89,#90,#91,#92));
#300=EDGE_LOOP('',(#93,#94,#95,#96));
#301=EDGE_LOOP('',(#97,#98,#99,#100));
#302=EDGE_LOOP('',(#101,#102,#103,#104));
#303=EDGE_LOOP('',(#105));
#304=EDGE_LOOP('',(#106));
#305=EDGE_LOOP('',(#107));
#306=EDGE_LOOP('',(#108));
#307=EDGE_LOOP('',(#109));
#308=EDGE_LOOP('',(#110));
#309=EDGE_LOOP('',(#111));
#310=EDGE_LOOP('',(#112));
#311=EDGE_LOOP('',(#113));
#312=EDGE_LOOP('',(#114));
#313=EDGE_LOOP('',(#115));
#314=EDGE_LOOP('',(#116));
#315=EDGE_LOOP('',(#117));
#316=EDGE_LOOP('',(#118));
#317=EDGE_LOOP('',(#119));
#318=EDGE_LOOP('',(#120));
#319=EDGE_LOOP('',(#121));
#320=EDGE_LOOP('',(#122));
#321=EDGE_LOOP('',(#123));
#322=EDGE_LOOP('',(#124));
#323=EDGE_LOOP('',(#125));
#324=FACE_BOUND('',#282,.T.);
#325=FACE_BOUND('',#283,.T.);
#326=FACE_BOUND('',#284,.T.);
#327=FACE_BOUND('',#285,.T.);
#328=FACE_BOUND('',#286,.T.);
#329=FACE_BOUND('',#287,.T.);
#330=FACE_BOUND('',#288,.T.);
#331=FACE_BOUND('',#289,.T.);
#332=FACE_BOUND('',#290,.T.);
#333=FACE_BOUND('',#291,.T.);
#334=FACE_BOUND('',#292,.T.);
#335=FACE_BOUND('',#293,.T.);
#336=FACE_BOUND('',#294,.T.);
#337=FACE_BOUND('',#295,.T.);
#338=FACE_BOUND('',#296,.T.);
#339=FACE_BOUND('',#297,.T.);
#340=FACE_BOUND('',#298,.T.);
#341=FACE_BOUND('',#299,.T.);
#342=FACE_BOUND('',#300,.T.);
#343=FACE_BOUND('',#301,.T.);
#344=FACE_BOUND('',#302,.T.);
#345=FACE_BOUND('',#303,.T.);
#346=FACE_BOUND('',#304,.T.);
#347=FACE_BOUND('',#305,.T.);
#348=FACE_BOUND('',#306,.T.);
#349=FACE_BOUND('',#307,.T.);
#350=FACE_BOUND('',#308,.T.);
#351=FACE_BOUND('',#309,.T.);
#352=FACE_BOUND('',#310,.T.);
#353=FACE_BOUND('',#311,.T.);
#354=FACE_BOUND('',#312,.T.);
#355=FACE_BOUND('',#313,.T.);
#356=FACE_BOUND('',#314,.T.);
#357=FACE_BOUND('',#315,.T.);
#358=FACE_BOUND('',#316,.T.);
#359=FACE_BOUND('',#317,.T.);
#360=FACE_BOUND('',#318,.T.);
#361=FACE_BOUND('',#319,.T.);
#362=FACE_BOUND('',#320,.T.);
#363=FACE_BOUND('',#321,.T.);
#364=FACE_BOUND('',#322,.T.);
#365=FACE_BOUND('',#323,.T.);
#366=PLANE('',#427);
#367=PLANE('',#428);
#368=PLANE('',#429);
#369=PLANE('',#430);
#370=PLANE('',#431);
#371=PLANE('',#432);
#372=PLANE('',#433);
#373=PLANE('',#434);
#374=PLANE('',#435);
#375=PLANE('',#436);
#376=PLANE('',#437);
#377=PLANE('',#441);
#378=PLANE('',#442);
#379=PLANE('',#443);
#380=PLANE('',#444);
#381=PLANE('',#447);
#382=PLANE('',#451);
#383=PLANE('',#455);
#384=PLANE('',#459);
#385=PLANE('',#462);
#386=PLANE('',#465);
#387=ADVANCED_FACE('',(#324,#325),#366,.F.);
#388=ADVANCED_FACE('',(#326,#327),#367,.T.);
#389=ADVANCED_FACE('',(#328,#329),#368,.T.);
#390=ADVANCED_FACE('',(#330),#369,.T.);
#391=ADVANCED_FACE('',(#331),#370,.F.);
#392=ADVANCED_FACE('',(#332),#371,.T.);
#393=ADVANCED_FACE('',(#333),#372,.F.);
#394=ADVANCED_FACE('',(#334),#373,.F.);
#395=ADVANCED_FACE('',(#335),#374,.T.);
#396=ADVANCED_FACE('',(#336),#375,.F.);
#397=ADVANCED_FACE('',(#337,#338,#339,#340),#376,.T.);
#398=ADVANCED_FACE('',(#341),#377,.T.);
#399=ADVANCED_FACE('',(#342),#378,.F.);
#400=ADVANCED_FACE('',(#343),#379,.F.);
#401=ADVANCED_FACE('',(#344),#380,.T.);
#402=ADVANCED_FACE('',(#345,#346),#12,.T.);
#403=ADVANCED_FACE('',(#347,#348),#381,.F.);
#404=ADVANCED_FACE('',(#349,#350),#13,.T.);
#405=ADVANCED_FACE('',(#351,#352),#382,.F.);
#406=ADVANCED_FACE('',(#353,#354),#14,.T.);
#407=ADVANCED_FACE('',(#355,#356),#383,.F.);
#408=ADVANCED_FACE('',(#357,#358),#15,.F.);
#409=ADVANCED_FACE('',(#359),#384,.T.);
#410=ADVANCED_FACE('',(#360,#361),#16,.F.);
#411=ADVANCED_FACE('',(#362),#385,.T.);
#412=ADVANCED_FACE('',(#363,#364),#17,.F.);
#413=ADVANCED_FACE('',(#365),#386,.T.);
#414=CLOSED_SHELL('',(#387,#388,#389,#390,#391,#392,#393,#394,#395,#396,
#397,#398,#399,#400,#401,#402,#403,#404,#405,#406,#407,#408,#409,#410,#411,
#412,#413));
#415=STYLED_ITEM('',(#416),#423);
#416=PRESENTATION_STYLE_ASSIGNMENT((#417));
#417=SURFACE_STYLE_USAGE(.BOTH.,#418);
#418=SURFACE_SIDE_STYLE('',(#419));
#419=SURFACE_STYLE_FILL_AREA(#420);
#420=FILL_AREA_STYLE('',(#421));
#421=FILL_AREA_STYLE_COLOUR('',#422);
#422=COLOUR_RGB('',0.615686274509804,0.811764705882353,0.929411764705882);
#423=MANIFOLD_SOLID_BREP('Part 1',#414);
#424=SHAPE_DEFINITION_REPRESENTATION(#700,#425);
#425=SHAPE_REPRESENTATION('Part 1',(#426),#695);
#426=AXIS2_PLACEMENT_3D('',#582,#466,#467);
#427=AXIS2_PLACEMENT_3D('',#583,#468,#469);
#428=AXIS2_PLACEMENT_3D('',#600,#478,#479);
#429=AXIS2_PLACEMENT_3D('',#617,#488,#489);
#430=AXIS2_PLACEMENT_3D('',#628,#496,#497);
#431=AXIS2_PLACEMENT_3D('',#632,#500,#501);
#432=AXIS2_PLACEMENT_3D('',#636,#504,#505);
#433=AXIS2_PLACEMENT_3D('',#638,#507,#508);
#434=AXIS2_PLACEMENT_3D('',#639,#509,#510);
#435=AXIS2_PLACEMENT_3D('',#643,#513,#514);
#436=AXIS2_PLACEMENT_3D('',#647,#517,#518);
#437=AXIS2_PLACEMENT_3D('',#649,#520,#521);
#438=AXIS2_PLACEMENT_3D('',#650,#522,#523);
#439=AXIS2_PLACEMENT_3D('',#652,#524,#525);
#440=AXIS2_PLACEMENT_3D('',#654,#526,#527);
#441=AXIS2_PLACEMENT_3D('',#656,#528,#529);
#442=AXIS2_PLACEMENT_3D('',#659,#532,#533);
#443=AXIS2_PLACEMENT_3D('',#661,#535,#536);
#444=AXIS2_PLACEMENT_3D('',#663,#538,#539);
#445=AXIS2_PLACEMENT_3D('',#664,#540,#541);
#446=AXIS2_PLACEMENT_3D('',#665,#542,#543);
#447=AXIS2_PLACEMENT_3D('',#667,#544,#545);
#448=AXIS2_PLACEMENT_3D('',#668,#546,#547);
#449=AXIS2_PLACEMENT_3D('',#670,#548,#549);
#450=AXIS2_PLACEMENT_3D('',#671,#550,#551);
#451=AXIS2_PLACEMENT_3D('',#673,#552,#553);
#452=AXIS2_PLACEMENT_3D('',#674,#554,#555);
#453=AXIS2_PLACEMENT_3D('',#676,#556,#557);
#454=AXIS2_PLACEMENT_3D('',#677,#558,#559);
#455=AXIS2_PLACEMENT_3D('',#679,#560,#561);
#456=AXIS2_PLACEMENT_3D('',#680,#562,#563);
#457=AXIS2_PLACEMENT_3D('',#682,#564,#565);
#458=AXIS2_PLACEMENT_3D('',#683,#566,#567);
#459=AXIS2_PLACEMENT_3D('',#685,#568,#569);
#460=AXIS2_PLACEMENT_3D('',#686,#570,#571);
#461=AXIS2_PLACEMENT_3D('',#687,#572,#573);
#462=AXIS2_PLACEMENT_3D('',#689,#574,#575);
#463=AXIS2_PLACEMENT_3D('',#690,#576,#577);
#464=AXIS2_PLACEMENT_3D('',#691,#578,#579);
#465=AXIS2_PLACEMENT_3D('',#693,#580,#581);
#466=DIRECTION('',(0.,0.,1.));
#467=DIRECTION('',(1.,0.,0.));
#468=DIRECTION('',(-1.,0.,0.));
#469=DIRECTION('',(0.,1.,0.));
#470=DIRECTION('',(0.,0.,-1.));
#471=DIRECTION('',(0.,-1.,0.));
#472=DIRECTION('',(0.,0.,-1.));
#473=DIRECTION('',(0.,-1.,0.));
#474=DIRECTION('',(0.,0.,1.));
#475=DIRECTION('',(0.,1.,0.));
#476=DIRECTION('',(0.,0.,1.));
#477=DIRECTION('',(0.,1.,0.));
#478=DIRECTION('',(-1.,0.,0.));
#479=DIRECTION('',(0.,1.,0.));
#480=DIRECTION('',(0.,0.,-1.));
#481=DIRECTION('',(0.,-1.,0.));
#482=DIRECTION('',(0.,0.,-1.));
#483=DIRECTION('',(0.,-1.,0.));
#484=DIRECTION('',(0.,-1.,0.));
#485=DIRECTION('',(0.,0.,-1.));
#486=DIRECTION('',(0.,-1.,0.));
#487=DIRECTION('',(0.,0.,-1.));
#488=DIRECTION('',(0.,1.,0.));
#489=DIRECTION('',(1.,0.,0.));
#490=DIRECTION('',(-1.,0.,1.08845394571094E-16));
#491=DIRECTION('',(-1.,0.,1.08845394571094E-16));
#492=DIRECTION('',(0.,0.,-1.));
#493=DIRECTION('',(-1.,0.,1.08845394571094E-16));
#494=DIRECTION('',(0.,0.,-1.));
#495=DIRECTION('',(-1.,0.,1.08845394571094E-16));
#496=DIRECTION('',(1.08845394571094E-16,0.,1.));
#497=DIRECTION('',(1.,0.,-1.08845394571094E-16));
#498=DIRECTION('',(-1.,0.,1.08845394571094E-16));
#499=DIRECTION('',(0.,-1.,0.));
#500=DIRECTION('',(1.08845394571094E-16,0.,1.));
#501=DIRECTION('',(1.,0.,-1.08845394571094E-16));
#502=DIRECTION('',(-1.,0.,1.08845394571094E-16));
#503=DIRECTION('',(0.,-1.,0.));
#504=DIRECTION('',(-1.,0.,0.));
#505=DIRECTION('',(0.,1.,0.));
#506=DIRECTION('',(0.,0.,-1.));
#507=DIRECTION('',(0.,1.,0.));
#508=DIRECTION('',(1.,0.,0.));
#509=DIRECTION('',(1.08845394571094E-16,0.,1.));
#510=DIRECTION('',(1.,0.,-1.08845394571094E-16));
#511=DIRECTION('',(-1.,0.,1.08845394571094E-16));
#512=DIRECTION('',(0.,-1.,0.));
#513=DIRECTION('',(1.08845394571094E-16,0.,1.));
#514=DIRECTION('',(1.,0.,-1.08845394571094E-16));
#515=DIRECTION('',(-1.,0.,1.08845394571094E-16));
#516=DIRECTION('',(0.,-1.,0.));
#517=DIRECTION('',(-1.,0.,0.));
#518=DIRECTION('',(0.,1.,0.));
#519=DIRECTION('',(0.,0.,-1.));
#520=DIRECTION('',(0.,1.,0.));
#521=DIRECTION('',(1.,0.,0.));
#522=DIRECTION('',(0.,1.,0.));
#523=DIRECTION('',(1.,0.,0.));
#524=DIRECTION('',(0.,1.,0.));
#525=DIRECTION('',(1.,0.,0.));
#526=DIRECTION('',(0.,1.,0.));
#527=DIRECTION('',(1.,0.,0.));
#528=DIRECTION('',(0.,1.,0.));
#529=DIRECTION('',(1.,0.,0.));
#530=DIRECTION('',(1.,0.,0.));
#531=DIRECTION('',(1.,0.,0.));
#532=DIRECTION('',(0.,0.,-1.));
#533=DIRECTION('',(0.,1.,0.));
#534=DIRECTION('',(1.,0.,0.));
#535=DIRECTION('',(0.,1.,0.));
#536=DIRECTION('',(1.,0.,0.));
#537=DIRECTION('',(1.,0.,0.));
#538=DIRECTION('',(0.,0.,-1.));
#539=DIRECTION('',(0.,1.,0.));
#540=DIRECTION('',(0.,-1.,0.));
#541=DIRECTION('',(-1.,0.,0.));
#542=DIRECTION('',(0.,-1.,0.));
#543=DIRECTION('',(-1.,0.,0.));
#544=DIRECTION('',(0.,-1.,0.));
#545=DIRECTION('',(1.,0.,0.));
#546=DIRECTION('',(0.,1.,0.));
#547=DIRECTION('',(1.,0.,0.));
#548=DIRECTION('',(0.,-1.,0.));
#549=DIRECTION('',(-1.,0.,0.));
#550=DIRECTION('',(0.,-1.,0.));
#551=DIRECTION('',(-1.,0.,0.));
#552=DIRECTION('',(0.,-1.,0.));
#553=DIRECTION('',(1.,0.,0.));
#554=DIRECTION('',(0.,1.,0.));
#555=DIRECTION('',(1.,0.,0.));
#556=DIRECTION('',(0.,-1.,0.));
#557=DIRECTION('',(-1.,0.,0.));
#558=DIRECTION('',(0.,-1.,0.));
#559=DIRECTION('',(-1.,0.,0.));
#560=DIRECTION('',(0.,-1.,0.));
#561=DIRECTION('',(1.,0.,0.));
#562=DIRECTION('',(0.,1.,0.));
#563=DIRECTION('',(1.,0.,0.));
#564=DIRECTION('',(0.,1.,0.));
#565=DIRECTION('',(1.,0.,0.));
#566=DIRECTION('',(0.,1.,0.));
#567=DIRECTION('',(1.,0.,0.));
#568=DIRECTION('',(0.,1.,0.));
#569=DIRECTION('',(1.,0.,0.));
#570=DIRECTION('',(0.,1.,0.));
#571=DIRECTION('',(1.,0.,0.));
#572=DIRECTION('',(0.,1.,0.));
#573=DIRECTION('',(1.,0.,0.));
#574=DIRECTION('',(0.,1.,0.));
#575=DIRECTION('',(1.,0.,0.));
#576=DIRECTION('',(0.,1.,0.));
#577=DIRECTION('',(1.,0.,0.));
#578=DIRECTION('',(0.,1.,0.));
#579=DIRECTION('',(1.,0.,0.));
#580=DIRECTION('',(0.,1.,0.));
#581=DIRECTION('',(1.,0.,0.));
#582=CARTESIAN_POINT('',(0.,0.,0.));
#583=CARTESIAN_POINT('',(0.1275,0.05,-2.08166817117217E-17));
#584=CARTESIAN_POINT('',(0.1275,0.,-2.08166817117217E-17));
#585=CARTESIAN_POINT('',(0.1275,0.,0.09));
#586=CARTESIAN_POINT('',(0.1275,0.,-0.09));
#587=CARTESIAN_POINT('',(0.1275,0.05,-0.09));
#588=CARTESIAN_POINT('',(0.1275,0.05,-0.09));
#589=CARTESIAN_POINT('',(0.1275,0.05,-2.08166817117217E-17));
#590=CARTESIAN_POINT('',(0.1275,0.05,0.09));
#591=CARTESIAN_POINT('',(0.1275,0.05,0.09));
#592=CARTESIAN_POINT('',(0.1275,0.024,0.056));
#593=CARTESIAN_POINT('',(0.1275,0.024,0.0445));
#594=CARTESIAN_POINT('',(0.1275,0.024,0.0675));
#595=CARTESIAN_POINT('',(0.1275,0.032,0.0675));
#596=CARTESIAN_POINT('',(0.1275,0.04,0.0675));
#597=CARTESIAN_POINT('',(0.1275,0.04,0.056));
#598=CARTESIAN_POINT('',(0.1275,0.04,0.0445));
#599=CARTESIAN_POINT('',(0.1275,0.032,0.0445));
#600=CARTESIAN_POINT('',(0.125,0.05,-2.08166817117217E-17));
#601=CARTESIAN_POINT('',(0.125,0.0025,-2.08166817117217E-17));
#602=CARTESIAN_POINT('',(0.125,0.0025,0.0875));
#603=CARTESIAN_POINT('',(0.125,0.0025,-0.0875));
#604=CARTESIAN_POINT('',(0.125,0.05,0.0875));
#605=CARTESIAN_POINT('',(0.125,0.05,0.0875));
#606=CARTESIAN_POINT('',(0.125,0.05,-2.08166817117217E-17));
#607=CARTESIAN_POINT('',(0.125,0.05,-0.0875));
#608=CARTESIAN_POINT('',(0.125,0.05,-0.0875));
#609=CARTESIAN_POINT('',(0.125,0.05,0.0675));
#610=CARTESIAN_POINT('',(0.125,0.04,0.0675));
#611=CARTESIAN_POINT('',(0.125,0.024,0.0675));
#612=CARTESIAN_POINT('',(0.125,0.024,-2.08166817117217E-17));
#613=CARTESIAN_POINT('',(0.125,0.024,0.0445));
#614=CARTESIAN_POINT('',(0.125,0.05,0.0445));
#615=CARTESIAN_POINT('',(0.125,0.04,0.0445));
#616=CARTESIAN_POINT('',(0.125,0.04,-2.08166817117217E-17));
#617=CARTESIAN_POINT('',(0.,0.05,0.));
#618=CARTESIAN_POINT('',(0.,0.05,0.09));
#619=CARTESIAN_POINT('',(-0.1275,0.05,0.09));
#620=CARTESIAN_POINT('',(0.,0.05,-0.09));
#621=CARTESIAN_POINT('',(-0.1275,0.05,-0.09));
#622=CARTESIAN_POINT('',(-0.1275,0.05,2.77555756156289E-17));
#623=CARTESIAN_POINT('',(-2.72113486427734E-19,0.05,0.0875));
#624=CARTESIAN_POINT('',(-0.125,0.05,0.0875));
#625=CARTESIAN_POINT('',(-0.125,0.05,2.77555756156289E-17));
#626=CARTESIAN_POINT('',(-0.125,0.05,-0.0875));
#627=CARTESIAN_POINT('',(2.72113486427734E-19,0.05,-0.0875));
#628=CARTESIAN_POINT('',(0.,0.05,0.09));
#629=CARTESIAN_POINT('',(0.,0.,0.09));
#630=CARTESIAN_POINT('',(-0.1275,0.,0.09));
#631=CARTESIAN_POINT('',(-0.1275,0.05,0.09));
#632=CARTESIAN_POINT('',(0.,0.05,-0.09));
#633=CARTESIAN_POINT('',(0.,0.,-0.09));
#634=CARTESIAN_POINT('',(-0.1275,0.,-0.09));
#635=CARTESIAN_POINT('',(-0.1275,0.05,-0.09));
#636=CARTESIAN_POINT('',(-0.1275,0.05,2.77555756156289E-17));
#637=CARTESIAN_POINT('',(-0.1275,0.,2.77555756156289E-17));
#638=CARTESIAN_POINT('',(0.,0.,0.));
#639=CARTESIAN_POINT('',(-2.72113486427734E-19,0.05,0.0875));
#640=CARTESIAN_POINT('',(-2.72113486427734E-19,0.0025,0.0875));
#641=CARTESIAN_POINT('',(-0.125,0.0025,0.0875));
#642=CARTESIAN_POINT('',(-0.125,0.05,0.0875));
#643=CARTESIAN_POINT('',(2.72113486427734E-19,0.05,-0.0875));
#644=CARTESIAN_POINT('',(2.72113486427734E-19,0.0025,-0.0875));
#645=CARTESIAN_POINT('',(-0.125,0.0025,-0.0875));
#646=CARTESIAN_POINT('',(-0.125,0.05,-0.0875));
#647=CARTESIAN_POINT('',(-0.125,0.05,2.77555756156289E-17));
#648=CARTESIAN_POINT('',(-0.125,0.0025,2.77555756156289E-17));
#649=CARTESIAN_POINT('',(0.,0.0025,0.));
#650=CARTESIAN_POINT('',(0.07958574,0.0025,-0.03325784));
#651=CARTESIAN_POINT('',(0.08258574,0.0025,-0.03325784));
#652=CARTESIAN_POINT('',(-0.07041426,0.0025,-0.03325784));
#653=CARTESIAN_POINT('',(-0.06741426,0.0025,-0.03325784));
#654=CARTESIAN_POINT('',(0.00620481,0.0025,0.0148048));
#655=CARTESIAN_POINT('',(0.00920481,0.0025,0.0148048));
#656=CARTESIAN_POINT('',(0.1025,0.024,0.056));
#657=CARTESIAN_POINT('',(0.1025,0.024,0.0675));
#658=CARTESIAN_POINT('',(0.1025,0.024,0.0445));
#659=CARTESIAN_POINT('',(0.1025,0.032,0.0445));
#660=CARTESIAN_POINT('',(0.1025,0.04,0.0445));
#661=CARTESIAN_POINT('',(0.1025,0.04,0.056));
#662=CARTESIAN_POINT('',(0.1025,0.04,0.0675));
#663=CARTESIAN_POINT('',(0.1025,0.032,0.0675));
#664=CARTESIAN_POINT('',(0.00620481,0.043,0.0148048));
#665=CARTESIAN_POINT('',(0.00620481,0.043,0.0148048));
#666=CARTESIAN_POINT('',(0.00320481,0.043,0.0148048));
#667=CARTESIAN_POINT('',(0.,0.043,0.));
#668=CARTESIAN_POINT('',(0.00620481,0.043,0.0148048));
#669=CARTESIAN_POINT('',(0.00770481,0.043,0.0148048));
#670=CARTESIAN_POINT('',(-0.07041426,0.043,-0.03325784));
#671=CARTESIAN_POINT('',(-0.07041426,0.043,-0.03325784));
#672=CARTESIAN_POINT('',(-0.07341426,0.043,-0.03325784));
#673=CARTESIAN_POINT('',(0.,0.043,0.));
#674=CARTESIAN_POINT('',(-0.07041426,0.043,-0.03325784));
#675=CARTESIAN_POINT('',(-0.06891426,0.043,-0.03325784));
#676=CARTESIAN_POINT('',(0.07958574,0.043,-0.03325784));
#677=CARTESIAN_POINT('',(0.07958574,0.043,-0.03325784));
#678=CARTESIAN_POINT('',(0.07658574,0.043,-0.03325784));
#679=CARTESIAN_POINT('',(0.,0.043,0.));
#680=CARTESIAN_POINT('',(0.07958574,0.043,-0.03325784));
#681=CARTESIAN_POINT('',(0.08108574,0.043,-0.03325784));
#682=CARTESIAN_POINT('',(0.07958574,0.038,-0.03325784));
#683=CARTESIAN_POINT('',(0.07958574,0.038,-0.03325784));
#684=CARTESIAN_POINT('',(0.08108574,0.038,-0.03325784));
#685=CARTESIAN_POINT('',(0.00383574,0.038,-0.00997652));
#686=CARTESIAN_POINT('',(-0.07041426,0.038,-0.03325784));
#687=CARTESIAN_POINT('',(-0.07041426,0.038,-0.03325784));
#688=CARTESIAN_POINT('',(-0.06891426,0.038,-0.03325784));
#689=CARTESIAN_POINT('',(0.00383574,0.038,-0.00997652));
#690=CARTESIAN_POINT('',(0.00620481,0.038,0.0148048));
#691=CARTESIAN_POINT('',(0.00620481,0.038,0.0148048));
#692=CARTESIAN_POINT('',(0.00770481,0.038,0.0148048));
#693=CARTESIAN_POINT('',(0.00383574,0.038,-0.00997652));
#694=MECHANICAL_DESIGN_GEOMETRIC_PRESENTATION_REPRESENTATION('',(#415),
#695);
#695=(
GEOMETRIC_REPRESENTATION_CONTEXT(3)
GLOBAL_UNCERTAINTY_ASSIGNED_CONTEXT((#696))
GLOBAL_UNIT_ASSIGNED_CONTEXT((#699,#698,#697))
REPRESENTATION_CONTEXT('Part 1','TOP_LEVEL_ASSEMBLY_PART')
);
#696=UNCERTAINTY_MEASURE_WITH_UNIT(LENGTH_MEASURE(1.E-8),#699,
'DISTANCE_ACCURACY_VALUE','Maximum Tolerance applied to model');
#697=(
NAMED_UNIT(*)
SI_UNIT($,.STERADIAN.)
SOLID_ANGLE_UNIT()
);
#698=(
NAMED_UNIT(*)
PLANE_ANGLE_UNIT()
SI_UNIT($,.RADIAN.)
);
#699=(
LENGTH_UNIT()
NAMED_UNIT(*)
SI_UNIT($,.METRE.)
);
#700=PRODUCT_DEFINITION_SHAPE('','',#701);
#701=PRODUCT_DEFINITION('','',#703,#702);
#702=PRODUCT_DEFINITION_CONTEXT('',#709,'design');
#703=PRODUCT_DEFINITION_FORMATION_WITH_SPECIFIED_SOURCE('','',#705,
 .NOT_KNOWN.);
#704=PRODUCT_RELATED_PRODUCT_CATEGORY('','',(#705));
#705=PRODUCT('Part 1','Part 1','Part 1',(#707));
#706=PRODUCT_CATEGORY('','');
#707=PRODUCT_CONTEXT('',#709,'mechanical');
#708=APPLICATION_PROTOCOL_DEFINITION('international standard',
'ap242_managed_model_based_3d_engineering',2020,#709);
#709=APPLICATION_CONTEXT('managed model based 3d engineering');
ENDSEC;
END-ISO-10303-21;
