ISO-10303-21;
HEADER;
/* Generated by software containing ST-Developer
 * from STEP Tools, Inc. (www.steptools.com) 
 */
/* OPTION: using custom renumber hook */

FILE_DESCRIPTION(
/* description */ ('STEP AP242 Edition 2',
'CAx-IF Rec.Pracs.---Representation and Presentation of Product Manufa
cturing Information (PMI)---4.0---2014-10-13',
'CAx-IF Rec.Pracs.---3D Tessellated Geometry---0.4---2014-09-14','2;1',
'CAx-IF Rec.Pracs.---User Defined Attributes---1.5---2016-08-15'),
/* implementation_level */ '2;1');

FILE_NAME(
/* name */ 'Lid',
/* time_stamp */ '2026-07-24T02:43:17Z',
/* author */ (''),
/* organization */ (''),
/* preprocessor_version */ 'ST-DEVELOPER v20',
/* originating_system */ 'ONSHAPE BY PTC INC, 1.218',
/* authorisation */ '  ');

FILE_SCHEMA (('AP242_MANAGED_MODEL_BASED_3D_ENGINEERING_MIM_LF { 1 0 10303 442 3 1 4 }'));
ENDSEC;

DATA;
#10=SHAPE_REPRESENTATION_RELATIONSHIP('','',#519,#11);
#11=ADVANCED_BREP_SHAPE_REPRESENTATION('',(#517),#839);
#12=CYLINDRICAL_SURFACE('',#551,0.0055);
#13=CYLINDRICAL_SURFACE('',#552,0.0055);
#14=CYLINDRICAL_SURFACE('',#553,0.0055);
#15=CYLINDRICAL_SURFACE('',#554,0.0055);
#16=CYLINDRICAL_SURFACE('',#555,0.0055);
#17=CYLINDRICAL_SURFACE('',#556,0.0055);
#18=CYLINDRICAL_SURFACE('',#557,0.0055);
#19=CYLINDRICAL_SURFACE('',#558,0.0055);
#20=CYLINDRICAL_SURFACE('',#559,0.0055);
#21=CYLINDRICAL_SURFACE('',#560,0.0055);
#22=CIRCLE('',#524,0.0055);
#23=CIRCLE('',#525,0.0055);
#24=CIRCLE('',#526,0.0055);
#25=CIRCLE('',#527,0.0055);
#26=CIRCLE('',#528,0.0055);
#27=CIRCLE('',#529,0.0055);
#28=CIRCLE('',#530,0.0055);
#29=CIRCLE('',#531,0.0055);
#30=CIRCLE('',#532,0.0055);
#31=CIRCLE('',#533,0.0055);
#32=CIRCLE('',#535,0.0055);
#33=CIRCLE('',#536,0.0055);
#34=CIRCLE('',#537,0.0055);
#35=CIRCLE('',#538,0.0055);
#36=CIRCLE('',#539,0.0055);
#37=CIRCLE('',#540,0.0055);
#38=CIRCLE('',#541,0.0055);
#39=CIRCLE('',#542,0.0055);
#40=CIRCLE('',#543,0.0055);
#41=CIRCLE('',#544,0.0055);
#42=ORIENTED_EDGE('',*,*,#162,.F.);
#43=ORIENTED_EDGE('',*,*,#163,.T.);
#44=ORIENTED_EDGE('',*,*,#164,.F.);
#45=ORIENTED_EDGE('',*,*,#165,.F.);
#46=ORIENTED_EDGE('',*,*,#166,.F.);
#47=ORIENTED_EDGE('',*,*,#167,.T.);
#48=ORIENTED_EDGE('',*,*,#168,.T.);
#49=ORIENTED_EDGE('',*,*,#169,.T.);
#50=ORIENTED_EDGE('',*,*,#170,.F.);
#51=ORIENTED_EDGE('',*,*,#171,.F.);
#52=ORIENTED_EDGE('',*,*,#172,.F.);
#53=ORIENTED_EDGE('',*,*,#173,.F.);
#54=ORIENTED_EDGE('',*,*,#174,.F.);
#55=ORIENTED_EDGE('',*,*,#175,.F.);
#56=ORIENTED_EDGE('',*,*,#176,.F.);
#57=ORIENTED_EDGE('',*,*,#177,.F.);
#58=ORIENTED_EDGE('',*,*,#178,.F.);
#59=ORIENTED_EDGE('',*,*,#179,.F.);
#60=ORIENTED_EDGE('',*,*,#168,.F.);
#61=ORIENTED_EDGE('',*,*,#180,.T.);
#62=ORIENTED_EDGE('',*,*,#165,.T.);
#63=ORIENTED_EDGE('',*,*,#181,.T.);
#64=ORIENTED_EDGE('',*,*,#182,.T.);
#65=ORIENTED_EDGE('',*,*,#183,.T.);
#66=ORIENTED_EDGE('',*,*,#184,.T.);
#67=ORIENTED_EDGE('',*,*,#185,.T.);
#68=ORIENTED_EDGE('',*,*,#186,.T.);
#69=ORIENTED_EDGE('',*,*,#187,.T.);
#70=ORIENTED_EDGE('',*,*,#188,.T.);
#71=ORIENTED_EDGE('',*,*,#189,.T.);
#72=ORIENTED_EDGE('',*,*,#190,.T.);
#73=ORIENTED_EDGE('',*,*,#191,.T.);
#74=ORIENTED_EDGE('',*,*,#192,.F.);
#75=ORIENTED_EDGE('',*,*,#193,.T.);
#76=ORIENTED_EDGE('',*,*,#194,.F.);
#77=ORIENTED_EDGE('',*,*,#195,.F.);
#78=ORIENTED_EDGE('',*,*,#196,.F.);
#79=ORIENTED_EDGE('',*,*,#197,.T.);
#80=ORIENTED_EDGE('',*,*,#198,.T.);
#81=ORIENTED_EDGE('',*,*,#199,.F.);
#82=ORIENTED_EDGE('',*,*,#200,.F.);
#83=ORIENTED_EDGE('',*,*,#201,.T.);
#84=ORIENTED_EDGE('',*,*,#202,.T.);
#85=ORIENTED_EDGE('',*,*,#166,.T.);
#86=ORIENTED_EDGE('',*,*,#203,.F.);
#87=ORIENTED_EDGE('',*,*,#163,.F.);
#88=ORIENTED_EDGE('',*,*,#204,.T.);
#89=ORIENTED_EDGE('',*,*,#205,.F.);
#90=ORIENTED_EDGE('',*,*,#206,.F.);
#91=ORIENTED_EDGE('',*,*,#196,.T.);
#92=ORIENTED_EDGE('',*,*,#206,.T.);
#93=ORIENTED_EDGE('',*,*,#207,.T.);
#94=ORIENTED_EDGE('',*,*,#208,.T.);
#95=ORIENTED_EDGE('',*,*,#195,.T.);
#96=ORIENTED_EDGE('',*,*,#209,.F.);
#97=ORIENTED_EDGE('',*,*,#197,.F.);
#98=ORIENTED_EDGE('',*,*,#194,.T.);
#99=ORIENTED_EDGE('',*,*,#210,.F.);
#100=ORIENTED_EDGE('',*,*,#198,.F.);
#101=ORIENTED_EDGE('',*,*,#209,.T.);
#102=ORIENTED_EDGE('',*,*,#193,.F.);
#103=ORIENTED_EDGE('',*,*,#211,.F.);
#104=ORIENTED_EDGE('',*,*,#212,.F.);
#105=ORIENTED_EDGE('',*,*,#204,.F.);
#106=ORIENTED_EDGE('',*,*,#199,.T.);
#107=ORIENTED_EDGE('',*,*,#210,.T.);
#108=ORIENTED_EDGE('',*,*,#203,.T.);
#109=ORIENTED_EDGE('',*,*,#169,.F.);
#110=ORIENTED_EDGE('',*,*,#181,.F.);
#111=ORIENTED_EDGE('',*,*,#164,.T.);
#112=ORIENTED_EDGE('',*,*,#179,.T.);
#113=ORIENTED_EDGE('',*,*,#182,.F.);
#114=ORIENTED_EDGE('',*,*,#178,.T.);
#115=ORIENTED_EDGE('',*,*,#183,.F.);
#116=ORIENTED_EDGE('',*,*,#177,.T.);
#117=ORIENTED_EDGE('',*,*,#184,.F.);
#118=ORIENTED_EDGE('',*,*,#176,.T.);
#119=ORIENTED_EDGE('',*,*,#185,.F.);
#120=ORIENTED_EDGE('',*,*,#175,.T.);
#121=ORIENTED_EDGE('',*,*,#186,.F.);
#122=ORIENTED_EDGE('',*,*,#174,.T.);
#123=ORIENTED_EDGE('',*,*,#187,.F.);
#124=ORIENTED_EDGE('',*,*,#173,.T.);
#125=ORIENTED_EDGE('',*,*,#188,.F.);
#126=ORIENTED_EDGE('',*,*,#172,.T.);
#127=ORIENTED_EDGE('',*,*,#189,.F.);
#128=ORIENTED_EDGE('',*,*,#171,.T.);
#129=ORIENTED_EDGE('',*,*,#190,.F.);
#130=ORIENTED_EDGE('',*,*,#170,.T.);
#131=ORIENTED_EDGE('',*,*,#191,.F.);
#132=ORIENTED_EDGE('',*,*,#192,.T.);
#133=ORIENTED_EDGE('',*,*,#208,.F.);
#134=ORIENTED_EDGE('',*,*,#213,.F.);
#135=ORIENTED_EDGE('',*,*,#211,.T.);
#136=ORIENTED_EDGE('',*,*,#212,.T.);
#137=ORIENTED_EDGE('',*,*,#213,.T.);
#138=ORIENTED_EDGE('',*,*,#207,.F.);
#139=ORIENTED_EDGE('',*,*,#205,.T.);
#140=ORIENTED_EDGE('',*,*,#180,.F.);
#141=ORIENTED_EDGE('',*,*,#167,.F.);
#142=ORIENTED_EDGE('',*,*,#214,.F.);
#143=ORIENTED_EDGE('',*,*,#215,.T.);
#144=ORIENTED_EDGE('',*,*,#216,.T.);
#145=ORIENTED_EDGE('',*,*,#162,.T.);
#146=ORIENTED_EDGE('',*,*,#217,.F.);
#147=ORIENTED_EDGE('',*,*,#218,.T.);
#148=ORIENTED_EDGE('',*,*,#214,.T.);
#149=ORIENTED_EDGE('',*,*,#202,.F.);
#150=ORIENTED_EDGE('',*,*,#219,.F.);
#151=ORIENTED_EDGE('',*,*,#220,.T.);
#152=ORIENTED_EDGE('',*,*,#217,.T.);
#153=ORIENTED_EDGE('',*,*,#201,.F.);
#154=ORIENTED_EDGE('',*,*,#200,.T.);
#155=ORIENTED_EDGE('',*,*,#216,.F.);
#156=ORIENTED_EDGE('',*,*,#221,.F.);
#157=ORIENTED_EDGE('',*,*,#219,.T.);
#158=ORIENTED_EDGE('',*,*,#215,.F.);
#159=ORIENTED_EDGE('',*,*,#218,.F.);
#160=ORIENTED_EDGE('',*,*,#220,.F.);
#161=ORIENTED_EDGE('',*,*,#221,.T.);
#162=EDGE_CURVE('',#222,#223,#268,.T.);
#163=EDGE_CURVE('',#222,#224,#269,.T.);
#164=EDGE_CURVE('',#225,#224,#270,.T.);
#165=EDGE_CURVE('',#223,#225,#271,.T.);
#166=EDGE_CURVE('',#226,#227,#272,.T.);
#167=EDGE_CURVE('',#226,#228,#273,.T.);
#168=EDGE_CURVE('',#228,#229,#274,.T.);
#169=EDGE_CURVE('',#229,#227,#275,.T.);
#170=EDGE_CURVE('',#230,#230,#22,.T.);
#171=EDGE_CURVE('',#231,#231,#23,.T.);
#172=EDGE_CURVE('',#232,#232,#24,.T.);
#173=EDGE_CURVE('',#233,#233,#25,.T.);
#174=EDGE_CURVE('',#234,#234,#26,.T.);
#175=EDGE_CURVE('',#235,#235,#27,.T.);
#176=EDGE_CURVE('',#236,#236,#28,.T.);
#177=EDGE_CURVE('',#237,#237,#29,.T.);
#178=EDGE_CURVE('',#238,#238,#30,.T.);
#179=EDGE_CURVE('',#239,#239,#31,.T.);
#180=EDGE_CURVE('',#228,#223,#276,.T.);
#181=EDGE_CURVE('',#225,#229,#277,.T.);
#182=EDGE_CURVE('',#240,#240,#32,.T.);
#183=EDGE_CURVE('',#241,#241,#33,.T.);
#184=EDGE_CURVE('',#242,#242,#34,.T.);
#185=EDGE_CURVE('',#243,#243,#35,.T.);
#186=EDGE_CURVE('',#244,#244,#36,.T.);
#187=EDGE_CURVE('',#245,#245,#37,.T.);
#188=EDGE_CURVE('',#246,#246,#38,.T.);
#189=EDGE_CURVE('',#247,#247,#39,.T.);
#190=EDGE_CURVE('',#248,#248,#40,.T.);
#191=EDGE_CURVE('',#249,#249,#41,.T.);
#192=EDGE_CURVE('',#250,#251,#278,.T.);
#193=EDGE_CURVE('',#250,#252,#279,.T.);
#194=EDGE_CURVE('',#253,#252,#280,.T.);
#195=EDGE_CURVE('',#251,#253,#281,.T.);
#196=EDGE_CURVE('',#254,#255,#282,.T.);
#197=EDGE_CURVE('',#254,#256,#283,.T.);
#198=EDGE_CURVE('',#256,#257,#284,.T.);
#199=EDGE_CURVE('',#255,#257,#285,.T.);
#200=EDGE_CURVE('',#258,#222,#286,.T.);
#201=EDGE_CURVE('',#258,#259,#287,.T.);
#202=EDGE_CURVE('',#259,#226,#288,.T.);
#203=EDGE_CURVE('',#224,#227,#289,.T.);
#204=EDGE_CURVE('',#255,#260,#290,.T.);
#205=EDGE_CURVE('',#261,#260,#291,.T.);
#206=EDGE_CURVE('',#254,#261,#292,.T.);
#207=EDGE_CURVE('',#261,#262,#293,.T.);
#208=EDGE_CURVE('',#262,#251,#294,.T.);
#209=EDGE_CURVE('',#256,#253,#295,.T.);
#210=EDGE_CURVE('',#257,#252,#296,.T.);
#211=EDGE_CURVE('',#263,#250,#297,.T.);
#212=EDGE_CURVE('',#260,#263,#298,.T.);
#213=EDGE_CURVE('',#263,#262,#299,.T.);
#214=EDGE_CURVE('',#264,#226,#300,.T.);
#215=EDGE_CURVE('',#264,#265,#301,.T.);
#216=EDGE_CURVE('',#265,#222,#302,.T.);
#217=EDGE_CURVE('',#266,#259,#303,.T.);
#218=EDGE_CURVE('',#266,#264,#304,.T.);
#219=EDGE_CURVE('',#267,#258,#305,.T.);
#220=EDGE_CURVE('',#267,#266,#306,.T.);
#221=EDGE_CURVE('',#267,#265,#307,.T.);
#222=VERTEX_POINT('',#707);
#223=VERTEX_POINT('',#708);
#224=VERTEX_POINT('',#710);
#225=VERTEX_POINT('',#712);
#226=VERTEX_POINT('',#716);
#227=VERTEX_POINT('',#717);
#228=VERTEX_POINT('',#719);
#229=VERTEX_POINT('',#721);
#230=VERTEX_POINT('',#725);
#231=VERTEX_POINT('',#727);
#232=VERTEX_POINT('',#729);
#233=VERTEX_POINT('',#731);
#234=VERTEX_POINT('',#733);
#235=VERTEX_POINT('',#735);
#236=VERTEX_POINT('',#737);
#237=VERTEX_POINT('',#739);
#238=VERTEX_POINT('',#741);
#239=VERTEX_POINT('',#743);
#240=VERTEX_POINT('',#748);
#241=VERTEX_POINT('',#750);
#242=VERTEX_POINT('',#752);
#243=VERTEX_POINT('',#754);
#244=VERTEX_POINT('',#756);
#245=VERTEX_POINT('',#758);
#246=VERTEX_POINT('',#760);
#247=VERTEX_POINT('',#762);
#248=VERTEX_POINT('',#764);
#249=VERTEX_POINT('',#766);
#250=VERTEX_POINT('',#768);
#251=VERTEX_POINT('',#769);
#252=VERTEX_POINT('',#771);
#253=VERTEX_POINT('',#773);
#254=VERTEX_POINT('',#777);
#255=VERTEX_POINT('',#778);
#256=VERTEX_POINT('',#780);
#257=VERTEX_POINT('',#782);
#258=VERTEX_POINT('',#785);
#259=VERTEX_POINT('',#787);
#260=VERTEX_POINT('',#792);
#261=VERTEX_POINT('',#794);
#262=VERTEX_POINT('',#798);
#263=VERTEX_POINT('',#805);
#264=VERTEX_POINT('',#823);
#265=VERTEX_POINT('',#825);
#266=VERTEX_POINT('',#829);
#267=VERTEX_POINT('',#833);
#268=LINE('',#706,#308);
#269=LINE('',#709,#309);
#270=LINE('',#711,#310);
#271=LINE('',#713,#311);
#272=LINE('',#715,#312);
#273=LINE('',#718,#313);
#274=LINE('',#720,#314);
#275=LINE('',#722,#315);
#276=LINE('',#744,#316);
#277=LINE('',#745,#317);
#278=LINE('',#767,#318);
#279=LINE('',#770,#319);
#280=LINE('',#772,#320);
#281=LINE('',#774,#321);
#282=LINE('',#776,#322);
#283=LINE('',#779,#323);
#284=LINE('',#781,#324);
#285=LINE('',#783,#325);
#286=LINE('',#784,#326);
#287=LINE('',#786,#327);
#288=LINE('',#788,#328);
#289=LINE('',#789,#329);
#290=LINE('',#791,#330);
#291=LINE('',#793,#331);
#292=LINE('',#795,#332);
#293=LINE('',#797,#333);
#294=LINE('',#799,#334);
#295=LINE('',#800,#335);
#296=LINE('',#802,#336);
#297=LINE('',#804,#337);
#298=LINE('',#806,#338);
#299=LINE('',#819,#339);
#300=LINE('',#822,#340);
#301=LINE('',#824,#341);
#302=LINE('',#826,#342);
#303=LINE('',#828,#343);
#304=LINE('',#830,#344);
#305=LINE('',#832,#345);
#306=LINE('',#834,#346);
#307=LINE('',#836,#347);
#308=VECTOR('',#572,1.);
#309=VECTOR('',#573,1.);
#310=VECTOR('',#574,1.);
#311=VECTOR('',#575,1.);
#312=VECTOR('',#578,1.);
#313=VECTOR('',#579,1.);
#314=VECTOR('',#580,1.);
#315=VECTOR('',#581,1.);
#316=VECTOR('',#604,1.);
#317=VECTOR('',#605,1.);
#318=VECTOR('',#628,1.);
#319=VECTOR('',#629,1.);
#320=VECTOR('',#630,1.);
#321=VECTOR('',#631,1.);
#322=VECTOR('',#634,1.);
#323=VECTOR('',#635,1.);
#324=VECTOR('',#636,1.);
#325=VECTOR('',#637,1.);
#326=VECTOR('',#638,1.);
#327=VECTOR('',#639,1.);
#328=VECTOR('',#640,1.);
#329=VECTOR('',#641,1.);
#330=VECTOR('',#644,1.);
#331=VECTOR('',#645,1.);
#332=VECTOR('',#646,1.);
#333=VECTOR('',#649,1.);
#334=VECTOR('',#650,1.);
#335=VECTOR('',#651,1.);
#336=VECTOR('',#654,1.);
#337=VECTOR('',#657,1.);
#338=VECTOR('',#658,1.);
#339=VECTOR('',#683,1.);
#340=VECTOR('',#688,1.);
#341=VECTOR('',#689,1.);
#342=VECTOR('',#690,1.);
#343=VECTOR('',#693,1.);
#344=VECTOR('',#694,1.);
#345=VECTOR('',#697,1.);
#346=VECTOR('',#698,1.);
#347=VECTOR('',#701,1.);
#348=EDGE_LOOP('',(#42,#43,#44,#45));
#349=EDGE_LOOP('',(#46,#47,#48,#49));
#350=EDGE_LOOP('',(#50));
#351=EDGE_LOOP('',(#51));
#352=EDGE_LOOP('',(#52));
#353=EDGE_LOOP('',(#53));
#354=EDGE_LOOP('',(#54));
#355=EDGE_LOOP('',(#55));
#356=EDGE_LOOP('',(#56));
#357=EDGE_LOOP('',(#57));
#358=EDGE_LOOP('',(#58));
#359=EDGE_LOOP('',(#59));
#360=EDGE_LOOP('',(#60,#61,#62,#63));
#361=EDGE_LOOP('',(#64));
#362=EDGE_LOOP('',(#65));
#363=EDGE_LOOP('',(#66));
#364=EDGE_LOOP('',(#67));
#365=EDGE_LOOP('',(#68));
#366=EDGE_LOOP('',(#69));
#367=EDGE_LOOP('',(#70));
#368=EDGE_LOOP('',(#71));
#369=EDGE_LOOP('',(#72));
#370=EDGE_LOOP('',(#73));
#371=EDGE_LOOP('',(#74,#75,#76,#77));
#372=EDGE_LOOP('',(#78,#79,#80,#81));
#373=EDGE_LOOP('',(#82,#83,#84,#85,#86,#87));
#374=EDGE_LOOP('',(#88,#89,#90,#91));
#375=EDGE_LOOP('',(#92,#93,#94,#95,#96,#97));
#376=EDGE_LOOP('',(#98,#99,#100,#101));
#377=EDGE_LOOP('',(#102,#103,#104,#105,#106,#107));
#378=EDGE_LOOP('',(#108,#109,#110,#111));
#379=EDGE_LOOP('',(#112));
#380=EDGE_LOOP('',(#113));
#381=EDGE_LOOP('',(#114));
#382=EDGE_LOOP('',(#115));
#383=EDGE_LOOP('',(#116));
#384=EDGE_LOOP('',(#117));
#385=EDGE_LOOP('',(#118));
#386=EDGE_LOOP('',(#119));
#387=EDGE_LOOP('',(#120));
#388=EDGE_LOOP('',(#121));
#389=EDGE_LOOP('',(#122));
#390=EDGE_LOOP('',(#123));
#391=EDGE_LOOP('',(#124));
#392=EDGE_LOOP('',(#125));
#393=EDGE_LOOP('',(#126));
#394=EDGE_LOOP('',(#127));
#395=EDGE_LOOP('',(#128));
#396=EDGE_LOOP('',(#129));
#397=EDGE_LOOP('',(#130));
#398=EDGE_LOOP('',(#131));
#399=EDGE_LOOP('',(#132,#133,#134,#135));
#400=EDGE_LOOP('',(#136,#137,#138,#139));
#401=EDGE_LOOP('',(#140,#141,#142,#143,#144,#145));
#402=EDGE_LOOP('',(#146,#147,#148,#149));
#403=EDGE_LOOP('',(#150,#151,#152,#153));
#404=EDGE_LOOP('',(#154,#155,#156,#157));
#405=EDGE_LOOP('',(#158,#159,#160,#161));
#406=FACE_BOUND('',#348,.T.);
#407=FACE_BOUND('',#349,.T.);
#408=FACE_BOUND('',#350,.T.);
#409=FACE_BOUND('',#351,.T.);
#410=FACE_BOUND('',#352,.T.);
#411=FACE_BOUND('',#353,.T.);
#412=FACE_BOUND('',#354,.T.);
#413=FACE_BOUND('',#355,.T.);
#414=FACE_BOUND('',#356,.T.);
#415=FACE_BOUND('',#357,.T.);
#416=FACE_BOUND('',#358,.T.);
#417=FACE_BOUND('',#359,.T.);
#418=FACE_BOUND('',#360,.T.);
#419=FACE_BOUND('',#361,.T.);
#420=FACE_BOUND('',#362,.T.);
#421=FACE_BOUND('',#363,.T.);
#422=FACE_BOUND('',#364,.T.);
#423=FACE_BOUND('',#365,.T.);
#424=FACE_BOUND('',#366,.T.);
#425=FACE_BOUND('',#367,.T.);
#426=FACE_BOUND('',#368,.T.);
#427=FACE_BOUND('',#369,.T.);
#428=FACE_BOUND('',#370,.T.);
#429=FACE_BOUND('',#371,.T.);
#430=FACE_BOUND('',#372,.T.);
#431=FACE_BOUND('',#373,.T.);
#432=FACE_BOUND('',#374,.T.);
#433=FACE_BOUND('',#375,.T.);
#434=FACE_BOUND('',#376,.T.);
#435=FACE_BOUND('',#377,.T.);
#436=FACE_BOUND('',#378,.T.);
#437=FACE_BOUND('',#379,.T.);
#438=FACE_BOUND('',#380,.T.);
#439=FACE_BOUND('',#381,.T.);
#440=FACE_BOUND('',#382,.T.);
#441=FACE_BOUND('',#383,.T.);
#442=FACE_BOUND('',#384,.T.);
#443=FACE_BOUND('',#385,.T.);
#444=FACE_BOUND('',#386,.T.);
#445=FACE_BOUND('',#387,.T.);
#446=FACE_BOUND('',#388,.T.);
#447=FACE_BOUND('',#389,.T.);
#448=FACE_BOUND('',#390,.T.);
#449=FACE_BOUND('',#391,.T.);
#450=FACE_BOUND('',#392,.T.);
#451=FACE_BOUND('',#393,.T.);
#452=FACE_BOUND('',#394,.T.);
#453=FACE_BOUND('',#395,.T.);
#454=FACE_BOUND('',#396,.T.);
#455=FACE_BOUND('',#397,.T.);
#456=FACE_BOUND('',#398,.T.);
#457=FACE_BOUND('',#399,.T.);
#458=FACE_BOUND('',#400,.T.);
#459=FACE_BOUND('',#401,.T.);
#460=FACE_BOUND('',#402,.T.);
#461=FACE_BOUND('',#403,.T.);
#462=FACE_BOUND('',#404,.T.);
#463=FACE_BOUND('',#405,.T.);
#464=PLANE('',#521);
#465=PLANE('',#522);
#466=PLANE('',#523);
#467=PLANE('',#534);
#468=PLANE('',#545);
#469=PLANE('',#546);
#470=PLANE('',#547);
#471=PLANE('',#548);
#472=PLANE('',#549);
#473=PLANE('',#550);
#474=PLANE('',#561);
#475=PLANE('',#562);
#476=PLANE('',#563);
#477=PLANE('',#564);
#478=PLANE('',#565);
#479=PLANE('',#566);
#480=PLANE('',#567);
#481=ADVANCED_FACE('',(#406),#464,.F.);
#482=ADVANCED_FACE('',(#407),#465,.T.);
#483=ADVANCED_FACE('',(#408,#409,#410,#411,#412,#413,#414,#415,#416,#417,
#418),#466,.T.);
#484=ADVANCED_FACE('',(#419,#420,#421,#422,#423,#424,#425,#426,#427,#428,
#429),#467,.F.);
#485=ADVANCED_FACE('',(#430,#431),#468,.T.);
#486=ADVANCED_FACE('',(#432),#469,.T.);
#487=ADVANCED_FACE('',(#433),#470,.F.);
#488=ADVANCED_FACE('',(#434),#471,.F.);
#489=ADVANCED_FACE('',(#435),#472,.T.);
#490=ADVANCED_FACE('',(#436),#473,.F.);
#491=ADVANCED_FACE('',(#437,#438),#12,.F.);
#492=ADVANCED_FACE('',(#439,#440),#13,.F.);
#493=ADVANCED_FACE('',(#441,#442),#14,.F.);
#494=ADVANCED_FACE('',(#443,#444),#15,.F.);
#495=ADVANCED_FACE('',(#445,#446),#16,.F.);
#496=ADVANCED_FACE('',(#447,#448),#17,.F.);
#497=ADVANCED_FACE('',(#449,#450),#18,.F.);
#498=ADVANCED_FACE('',(#451,#452),#19,.F.);
#499=ADVANCED_FACE('',(#453,#454),#20,.F.);
#500=ADVANCED_FACE('',(#455,#456),#21,.F.);
#501=ADVANCED_FACE('',(#457),#474,.F.);
#502=ADVANCED_FACE('',(#458),#475,.T.);
#503=ADVANCED_FACE('',(#459),#476,.T.);
#504=ADVANCED_FACE('',(#460),#477,.T.);
#505=ADVANCED_FACE('',(#461),#478,.T.);
#506=ADVANCED_FACE('',(#462),#479,.F.);
#507=ADVANCED_FACE('',(#463),#480,.T.);
#508=CLOSED_SHELL('',(#481,#482,#483,#484,#485,#486,#487,#488,#489,#490,
#491,#492,#493,#494,#495,#496,#497,#498,#499,#500,#501,#502,#503,#504,#505,
#506,#507));
#509=STYLED_ITEM('',(#510),#517);
#510=PRESENTATION_STYLE_ASSIGNMENT((#511));
#511=SURFACE_STYLE_USAGE(.BOTH.,#512);
#512=SURFACE_SIDE_STYLE('',(#513));
#513=SURFACE_STYLE_FILL_AREA(#514);
#514=FILL_AREA_STYLE('',(#515));
#515=FILL_AREA_STYLE_COLOUR('',#516);
#516=COLOUR_RGB('',0.615686274509804,0.811764705882353,0.929411764705882);
#517=MANIFOLD_SOLID_BREP('Part 1',#508);
#518=SHAPE_DEFINITION_REPRESENTATION(#844,#519);
#519=SHAPE_REPRESENTATION('Part 1',(#520),#839);
#520=AXIS2_PLACEMENT_3D('',#704,#568,#569);
#521=AXIS2_PLACEMENT_3D('',#705,#570,#571);
#522=AXIS2_PLACEMENT_3D('',#714,#576,#577);
#523=AXIS2_PLACEMENT_3D('',#723,#582,#583);
#524=AXIS2_PLACEMENT_3D('',#724,#584,#585);
#525=AXIS2_PLACEMENT_3D('',#726,#586,#587);
#526=AXIS2_PLACEMENT_3D('',#728,#588,#589);
#527=AXIS2_PLACEMENT_3D('',#730,#590,#591);
#528=AXIS2_PLACEMENT_3D('',#732,#592,#593);
#529=AXIS2_PLACEMENT_3D('',#734,#594,#595);
#530=AXIS2_PLACEMENT_3D('',#736,#596,#597);
#531=AXIS2_PLACEMENT_3D('',#738,#598,#599);
#532=AXIS2_PLACEMENT_3D('',#740,#600,#601);
#533=AXIS2_PLACEMENT_3D('',#742,#602,#603);
#534=AXIS2_PLACEMENT_3D('',#746,#606,#607);
#535=AXIS2_PLACEMENT_3D('',#747,#608,#609);
#536=AXIS2_PLACEMENT_3D('',#749,#610,#611);
#537=AXIS2_PLACEMENT_3D('',#751,#612,#613);
#538=AXIS2_PLACEMENT_3D('',#753,#614,#615);
#539=AXIS2_PLACEMENT_3D('',#755,#616,#617);
#540=AXIS2_PLACEMENT_3D('',#757,#618,#619);
#541=AXIS2_PLACEMENT_3D('',#759,#620,#621);
#542=AXIS2_PLACEMENT_3D('',#761,#622,#623);
#543=AXIS2_PLACEMENT_3D('',#763,#624,#625);
#544=AXIS2_PLACEMENT_3D('',#765,#626,#627);
#545=AXIS2_PLACEMENT_3D('',#775,#632,#633);
#546=AXIS2_PLACEMENT_3D('',#790,#642,#643);
#547=AXIS2_PLACEMENT_3D('',#796,#647,#648);
#548=AXIS2_PLACEMENT_3D('',#801,#652,#653);
#549=AXIS2_PLACEMENT_3D('',#803,#655,#656);
#550=AXIS2_PLACEMENT_3D('',#807,#659,#660);
#551=AXIS2_PLACEMENT_3D('',#808,#661,#662);
#552=AXIS2_PLACEMENT_3D('',#809,#663,#664);
#553=AXIS2_PLACEMENT_3D('',#810,#665,#666);
#554=AXIS2_PLACEMENT_3D('',#811,#667,#668);
#555=AXIS2_PLACEMENT_3D('',#812,#669,#670);
#556=AXIS2_PLACEMENT_3D('',#813,#671,#672);
#557=AXIS2_PLACEMENT_3D('',#814,#673,#674);
#558=AXIS2_PLACEMENT_3D('',#815,#675,#676);
#559=AXIS2_PLACEMENT_3D('',#816,#677,#678);
#560=AXIS2_PLACEMENT_3D('',#817,#679,#680);
#561=AXIS2_PLACEMENT_3D('',#818,#681,#682);
#562=AXIS2_PLACEMENT_3D('',#820,#684,#685);
#563=AXIS2_PLACEMENT_3D('',#821,#686,#687);
#564=AXIS2_PLACEMENT_3D('',#827,#691,#692);
#565=AXIS2_PLACEMENT_3D('',#831,#695,#696);
#566=AXIS2_PLACEMENT_3D('',#835,#699,#700);
#567=AXIS2_PLACEMENT_3D('',#837,#702,#703);
#568=DIRECTION('',(0.,0.,1.));
#569=DIRECTION('',(1.,0.,0.));
#570=DIRECTION('',(-1.,0.,-7.93016446160826E-17));
#571=DIRECTION('',(-7.93016446160826E-17,0.,1.));
#572=DIRECTION('',(0.,1.,0.));
#573=DIRECTION('',(7.93016446160826E-17,0.,-1.));
#574=DIRECTION('',(0.,-1.,0.));
#575=DIRECTION('',(7.93016446160826E-17,0.,-1.));
#576=DIRECTION('',(-1.,0.,-7.93016446160826E-17));
#577=DIRECTION('',(-7.93016446160826E-17,0.,1.));
#578=DIRECTION('',(7.93016446160826E-17,0.,-1.));
#579=DIRECTION('',(0.,1.,0.));
#580=DIRECTION('',(7.93016446160826E-17,0.,-1.));
#581=DIRECTION('',(0.,-1.,0.));
#582=DIRECTION('',(0.,1.,0.));
#583=DIRECTION('',(1.,0.,0.));
#584=DIRECTION('',(0.,1.,0.));
#585=DIRECTION('',(1.,0.,0.));
#586=DIRECTION('',(0.,1.,0.));
#587=DIRECTION('',(1.,0.,0.));
#588=DIRECTION('',(0.,1.,0.));
#589=DIRECTION('',(1.,0.,0.));
#590=DIRECTION('',(0.,1.,0.));
#591=DIRECTION('',(1.,0.,0.));
#592=DIRECTION('',(0.,1.,0.));
#593=DIRECTION('',(1.,0.,0.));
#594=DIRECTION('',(0.,1.,0.));
#595=DIRECTION('',(1.,0.,0.));
#596=DIRECTION('',(0.,1.,0.));
#597=DIRECTION('',(1.,0.,0.));
#598=DIRECTION('',(0.,1.,0.));
#599=DIRECTION('',(1.,0.,0.));
#600=DIRECTION('',(0.,1.,0.));
#601=DIRECTION('',(1.,0.,0.));
#602=DIRECTION('',(0.,1.,0.));
#603=DIRECTION('',(1.,0.,0.));
#604=DIRECTION('',(1.,0.,0.));
#605=DIRECTION('',(-1.,0.,1.11022302462516E-16));
#606=DIRECTION('',(0.,1.,0.));
#607=DIRECTION('',(1.,0.,0.));
#608=DIRECTION('',(0.,1.,0.));
#609=DIRECTION('',(1.,0.,0.));
#610=DIRECTION('',(0.,1.,0.));
#611=DIRECTION('',(1.,0.,0.));
#612=DIRECTION('',(0.,1.,0.));
#613=DIRECTION('',(1.,0.,0.));
#614=DIRECTION('',(0.,1.,0.));
#615=DIRECTION('',(1.,0.,0.));
#616=DIRECTION('',(0.,1.,0.));
#617=DIRECTION('',(1.,0.,0.));
#618=DIRECTION('',(0.,1.,0.));
#619=DIRECTION('',(1.,0.,0.));
#620=DIRECTION('',(0.,1.,0.));
#621=DIRECTION('',(1.,0.,0.));
#622=DIRECTION('',(0.,1.,0.));
#623=DIRECTION('',(1.,0.,0.));
#624=DIRECTION('',(0.,1.,0.));
#625=DIRECTION('',(1.,0.,0.));
#626=DIRECTION('',(0.,1.,0.));
#627=DIRECTION('',(1.,0.,0.));
#628=DIRECTION('',(1.,0.,0.));
#629=DIRECTION('',(0.,0.,-1.));
#630=DIRECTION('',(-1.,0.,1.08845394571094E-16));
#631=DIRECTION('',(0.,0.,-1.));
#632=DIRECTION('',(0.,1.,0.));
#633=DIRECTION('',(1.,0.,0.));
#634=DIRECTION('',(-1.,0.,1.08845394571094E-16));
#635=DIRECTION('',(0.,0.,-1.));
#636=DIRECTION('',(-1.,0.,1.08845394571094E-16));
#637=DIRECTION('',(0.,0.,-1.));
#638=DIRECTION('',(7.93016446160826E-17,0.,-1.));
#639=DIRECTION('',(-1.,0.,1.11022302462516E-16));
#640=DIRECTION('',(7.93016446160826E-17,0.,-1.));
#641=DIRECTION('',(-1.,0.,1.11022302462516E-16));
#642=DIRECTION('',(1.08845394571094E-16,0.,1.));
#643=DIRECTION('',(1.,0.,-1.08845394571094E-16));
#644=DIRECTION('',(0.,-1.,0.));
#645=DIRECTION('',(-1.,0.,1.08845394571094E-16));
#646=DIRECTION('',(0.,-1.,0.));
#647=DIRECTION('',(-1.,0.,0.));
#648=DIRECTION('',(0.,1.,0.));
#649=DIRECTION('',(0.,0.,-1.));
#650=DIRECTION('',(0.,1.,0.));
#651=DIRECTION('',(0.,-1.,0.));
#652=DIRECTION('',(1.08845394571094E-16,0.,1.));
#653=DIRECTION('',(1.,0.,-1.08845394571094E-16));
#654=DIRECTION('',(0.,-1.,0.));
#655=DIRECTION('',(-1.,0.,0.));
#656=DIRECTION('',(0.,1.,0.));
#657=DIRECTION('',(0.,1.,0.));
#658=DIRECTION('',(0.,0.,-1.));
#659=DIRECTION('',(1.11022302462516E-16,0.,1.));
#660=DIRECTION('',(1.,0.,-1.11022302462516E-16));
#661=DIRECTION('',(0.,1.,0.));
#662=DIRECTION('',(1.,0.,0.));
#663=DIRECTION('',(0.,1.,0.));
#664=DIRECTION('',(1.,0.,0.));
#665=DIRECTION('',(0.,1.,0.));
#666=DIRECTION('',(1.,0.,0.));
#667=DIRECTION('',(0.,1.,0.));
#668=DIRECTION('',(1.,0.,0.));
#669=DIRECTION('',(0.,1.,0.));
#670=DIRECTION('',(1.,0.,0.));
#671=DIRECTION('',(0.,1.,0.));
#672=DIRECTION('',(1.,0.,0.));
#673=DIRECTION('',(0.,1.,0.));
#674=DIRECTION('',(1.,0.,0.));
#675=DIRECTION('',(0.,1.,0.));
#676=DIRECTION('',(1.,0.,0.));
#677=DIRECTION('',(0.,1.,0.));
#678=DIRECTION('',(1.,0.,0.));
#679=DIRECTION('',(0.,1.,0.));
#680=DIRECTION('',(1.,0.,0.));
#681=DIRECTION('',(0.,0.,1.));
#682=DIRECTION('',(0.,-1.,0.));
#683=DIRECTION('',(1.,0.,0.));
#684=DIRECTION('',(0.,-1.,0.));
#685=DIRECTION('',(1.,0.,0.));
#686=DIRECTION('',(0.,0.,1.));
#687=DIRECTION('',(0.,-1.,0.));
#688=DIRECTION('',(0.,1.,0.));
#689=DIRECTION('',(1.,0.,0.));
#690=DIRECTION('',(0.,1.,0.));
#691=DIRECTION('',(1.,0.,7.93016446160826E-17));
#692=DIRECTION('',(7.93016446160826E-17,0.,-1.));
#693=DIRECTION('',(0.,1.,0.));
#694=DIRECTION('',(7.93016446160826E-17,0.,-1.));
#695=DIRECTION('',(-1.11022302462516E-16,0.,-1.));
#696=DIRECTION('',(-1.,0.,1.11022302462516E-16));
#697=DIRECTION('',(0.,1.,0.));
#698=DIRECTION('',(-1.,0.,1.11022302462516E-16));
#699=DIRECTION('',(1.,0.,7.93016446160826E-17));
#700=DIRECTION('',(7.93016446160826E-17,0.,-1.));
#701=DIRECTION('',(7.93016446160826E-17,0.,-1.));
#702=DIRECTION('',(0.,1.,0.));
#703=DIRECTION('',(1.,0.,0.));
#704=CARTESIAN_POINT('',(0.,0.,0.));
#705=CARTESIAN_POINT('',(0.125,0.0045,-6.93889390390723E-18));
#706=CARTESIAN_POINT('',(0.125,-0.0105,-0.0425));
#707=CARTESIAN_POINT('',(0.125,0.0025,-0.0425));
#708=CARTESIAN_POINT('',(0.125,0.0045,-0.0425));
#709=CARTESIAN_POINT('',(0.125,0.0025,-6.93889390390723E-18));
#710=CARTESIAN_POINT('',(0.125,0.0025,-0.0875));
#711=CARTESIAN_POINT('',(0.125,0.0045,-0.0875));
#712=CARTESIAN_POINT('',(0.125,0.0045,-0.0875));
#713=CARTESIAN_POINT('',(0.125,0.0045,-6.93889390390723E-18));
#714=CARTESIAN_POINT('',(-0.125,0.0045,1.38777878078145E-17));
#715=CARTESIAN_POINT('',(-0.125,0.0025,1.38777878078145E-17));
#716=CARTESIAN_POINT('',(-0.125,0.0025,-0.0425));
#717=CARTESIAN_POINT('',(-0.125,0.0025,-0.0875));
#718=CARTESIAN_POINT('',(-0.125,-0.0105,-0.0425));
#719=CARTESIAN_POINT('',(-0.125,0.0045,-0.0425));
#720=CARTESIAN_POINT('',(-0.125,0.0045,1.38777878078145E-17));
#721=CARTESIAN_POINT('',(-0.125,0.0045,-0.0875));
#722=CARTESIAN_POINT('',(-0.125,0.0045,-0.0875));
#723=CARTESIAN_POINT('',(0.,0.0045,0.));
#724=CARTESIAN_POINT('',(-0.11232449,0.0045,-0.05779784));
#725=CARTESIAN_POINT('',(-0.10682449,0.0045,-0.05779784));
#726=CARTESIAN_POINT('',(-0.09232449,0.0045,-0.05779784));
#727=CARTESIAN_POINT('',(-0.08682449,0.0045,-0.05779784));
#728=CARTESIAN_POINT('',(-0.06232449,0.0045,-0.05779784));
#729=CARTESIAN_POINT('',(-0.05682449,0.0045,-0.05779784));
#730=CARTESIAN_POINT('',(-0.04232449,0.0045,-0.05779784));
#731=CARTESIAN_POINT('',(-0.03682449,0.0045,-0.05779784));
#732=CARTESIAN_POINT('',(-0.01232449,0.0045,-0.05779784));
#733=CARTESIAN_POINT('',(-0.00682449,0.0045,-0.05779784));
#734=CARTESIAN_POINT('',(0.00767551,0.0045,-0.05779784));
#735=CARTESIAN_POINT('',(0.01317551,0.0045,-0.05779784));
#736=CARTESIAN_POINT('',(0.03767551,0.0045,-0.05779784));
#737=CARTESIAN_POINT('',(0.04317551,0.0045,-0.05779784));
#738=CARTESIAN_POINT('',(0.05767551,0.0045,-0.05779784));
#739=CARTESIAN_POINT('',(0.06317551,0.0045,-0.05779784));
#740=CARTESIAN_POINT('',(0.08767551,0.0045,-0.05779784));
#741=CARTESIAN_POINT('',(0.09317551,0.0045,-0.05779784));
#742=CARTESIAN_POINT('',(0.10767551,0.0045,-0.05779784));
#743=CARTESIAN_POINT('',(0.11317551,0.0045,-0.05779784));
#744=CARTESIAN_POINT('',(-6.93889390390723E-18,0.0045,-0.0425));
#745=CARTESIAN_POINT('',(-6.93889390390723E-18,0.0045,-0.0875));
#746=CARTESIAN_POINT('',(0.,0.,0.));
#747=CARTESIAN_POINT('',(0.10767551,0.,-0.05779784));
#748=CARTESIAN_POINT('',(0.11317551,0.,-0.05779784));
#749=CARTESIAN_POINT('',(0.08767551,0.,-0.05779784));
#750=CARTESIAN_POINT('',(0.09317551,0.,-0.05779784));
#751=CARTESIAN_POINT('',(0.05767551,0.,-0.05779784));
#752=CARTESIAN_POINT('',(0.06317551,0.,-0.05779784));
#753=CARTESIAN_POINT('',(0.03767551,0.,-0.05779784));
#754=CARTESIAN_POINT('',(0.04317551,0.,-0.05779784));
#755=CARTESIAN_POINT('',(0.00767551,0.,-0.05779784));
#756=CARTESIAN_POINT('',(0.01317551,0.,-0.05779784));
#757=CARTESIAN_POINT('',(-0.01232449,0.,-0.05779784));
#758=CARTESIAN_POINT('',(-0.00682449,0.,-0.05779784));
#759=CARTESIAN_POINT('',(-0.04232449,0.,-0.05779784));
#760=CARTESIAN_POINT('',(-0.03682449,0.,-0.05779784));
#761=CARTESIAN_POINT('',(-0.06232449,0.,-0.05779784));
#762=CARTESIAN_POINT('',(-0.05682449,0.,-0.05779784));
#763=CARTESIAN_POINT('',(-0.09232449,0.,-0.05779784));
#764=CARTESIAN_POINT('',(-0.08682449,0.,-0.05779784));
#765=CARTESIAN_POINT('',(-0.11232449,0.,-0.05779784));
#766=CARTESIAN_POINT('',(-0.10682449,0.,-0.05779784));
#767=CARTESIAN_POINT('',(0.,0.,-0.045));
#768=CARTESIAN_POINT('',(-0.1275,0.,-0.045));
#769=CARTESIAN_POINT('',(0.1275,0.,-0.045));
#770=CARTESIAN_POINT('',(-0.1275,0.,1.38777878078145E-17));
#771=CARTESIAN_POINT('',(-0.1275,0.,-0.09));
#772=CARTESIAN_POINT('',(0.,0.,-0.09));
#773=CARTESIAN_POINT('',(0.1275,0.,-0.09));
#774=CARTESIAN_POINT('',(0.1275,0.,-2.08166817117217E-17));
#775=CARTESIAN_POINT('',(0.,0.0025,0.));
#776=CARTESIAN_POINT('',(0.,0.0025,0.09));
#777=CARTESIAN_POINT('',(0.1275,0.0025,0.09));
#778=CARTESIAN_POINT('',(-0.1275,0.0025,0.09));
#779=CARTESIAN_POINT('',(0.1275,0.0025,-2.08166817117217E-17));
#780=CARTESIAN_POINT('',(0.1275,0.0025,-0.09));
#781=CARTESIAN_POINT('',(0.,0.0025,-0.09));
#782=CARTESIAN_POINT('',(-0.1275,0.0025,-0.09));
#783=CARTESIAN_POINT('',(-0.1275,0.0025,1.38777878078145E-17));
#784=CARTESIAN_POINT('',(0.125,0.0025,-6.93889390390723E-18));
#785=CARTESIAN_POINT('',(0.125,0.0025,0.0875));
#786=CARTESIAN_POINT('',(-6.93889390390723E-18,0.0025,0.0875));
#787=CARTESIAN_POINT('',(-0.125,0.0025,0.0875));
#788=CARTESIAN_POINT('',(-0.125,0.0025,1.38777878078145E-17));
#789=CARTESIAN_POINT('',(-6.93889390390723E-18,0.0025,-0.0875));
#790=CARTESIAN_POINT('',(0.,0.0025,0.09));
#791=CARTESIAN_POINT('',(-0.1275,0.0025,0.09));
#792=CARTESIAN_POINT('',(-0.1275,-0.02,0.09));
#793=CARTESIAN_POINT('',(0.,-0.02,0.09));
#794=CARTESIAN_POINT('',(0.1275,-0.02,0.09));
#795=CARTESIAN_POINT('',(0.1275,0.0025,0.09));
#796=CARTESIAN_POINT('',(0.1275,0.0025,-2.08166817117217E-17));
#797=CARTESIAN_POINT('',(0.1275,-0.02,-2.08166817117217E-17));
#798=CARTESIAN_POINT('',(0.1275,-0.02,-0.045));
#799=CARTESIAN_POINT('',(0.1275,-0.02,-0.045));
#800=CARTESIAN_POINT('',(0.1275,0.0025,-0.09));
#801=CARTESIAN_POINT('',(0.,0.0025,-0.09));
#802=CARTESIAN_POINT('',(-0.1275,0.0025,-0.09));
#803=CARTESIAN_POINT('',(-0.1275,0.0025,1.38777878078145E-17));
#804=CARTESIAN_POINT('',(-0.1275,-0.02,-0.045));
#805=CARTESIAN_POINT('',(-0.1275,-0.02,-0.045));
#806=CARTESIAN_POINT('',(-0.1275,-0.02,1.38777878078145E-17));
#807=CARTESIAN_POINT('',(-6.93889390390723E-18,0.0045,-0.0875));
#808=CARTESIAN_POINT('',(0.10767551,-0.0205,-0.05779784));
#809=CARTESIAN_POINT('',(0.08767551,-0.0205,-0.05779784));
#810=CARTESIAN_POINT('',(0.05767551,-0.0205,-0.05779784));
#811=CARTESIAN_POINT('',(0.03767551,-0.0205,-0.05779784));
#812=CARTESIAN_POINT('',(0.00767551,-0.0205,-0.05779784));
#813=CARTESIAN_POINT('',(-0.01232449,-0.0205,-0.05779784));
#814=CARTESIAN_POINT('',(-0.04232449,-0.0205,-0.05779784));
#815=CARTESIAN_POINT('',(-0.06232449,-0.0205,-0.05779784));
#816=CARTESIAN_POINT('',(-0.09232449,-0.0205,-0.05779784));
#817=CARTESIAN_POINT('',(-0.11232449,-0.0205,-0.05779784));
#818=CARTESIAN_POINT('',(0.,-0.02,-0.045));
#819=CARTESIAN_POINT('',(0.,-0.02,-0.045));
#820=CARTESIAN_POINT('',(0.,-0.02,0.));
#821=CARTESIAN_POINT('',(-6.93889390390723E-18,-0.0105,-0.0425));
#822=CARTESIAN_POINT('',(-0.125,-0.0105,-0.0425));
#823=CARTESIAN_POINT('',(-0.125,-0.0105,-0.0425));
#824=CARTESIAN_POINT('',(-6.93889390390723E-18,-0.0105,-0.0425));
#825=CARTESIAN_POINT('',(0.125,-0.0105,-0.0425));
#826=CARTESIAN_POINT('',(0.125,-0.0105,-0.0425));
#827=CARTESIAN_POINT('',(-0.125,-0.0105,1.38777878078145E-17));
#828=CARTESIAN_POINT('',(-0.125,-0.0105,0.0875));
#829=CARTESIAN_POINT('',(-0.125,-0.0105,0.0875));
#830=CARTESIAN_POINT('',(-0.125,-0.0105,1.38777878078145E-17));
#831=CARTESIAN_POINT('',(-6.93889390390723E-18,-0.0105,0.0875));
#832=CARTESIAN_POINT('',(0.125,-0.0105,0.0875));
#833=CARTESIAN_POINT('',(0.125,-0.0105,0.0875));
#834=CARTESIAN_POINT('',(-6.93889390390723E-18,-0.0105,0.0875));
#835=CARTESIAN_POINT('',(0.125,-0.0105,-6.93889390390723E-18));
#836=CARTESIAN_POINT('',(0.125,-0.0105,-6.93889390390723E-18));
#837=CARTESIAN_POINT('',(-2.77555756156289E-17,-0.0105,0.));
#838=MECHANICAL_DESIGN_GEOMETRIC_PRESENTATION_REPRESENTATION('',(#509),
#839);
#839=(
GEOMETRIC_REPRESENTATION_CONTEXT(3)
GLOBAL_UNCERTAINTY_ASSIGNED_CONTEXT((#840))
GLOBAL_UNIT_ASSIGNED_CONTEXT((#843,#842,#841))
REPRESENTATION_CONTEXT('Part 1','TOP_LEVEL_ASSEMBLY_PART')
);
#840=UNCERTAINTY_MEASURE_WITH_UNIT(LENGTH_MEASURE(1.E-8),#843,
'DISTANCE_ACCURACY_VALUE','Maximum Tolerance applied to model');
#841=(
NAMED_UNIT(*)
SI_UNIT($,.STERADIAN.)
SOLID_ANGLE_UNIT()
);
#842=(
NAMED_UNIT(*)
PLANE_ANGLE_UNIT()
SI_UNIT($,.RADIAN.)
);
#843=(
LENGTH_UNIT()
NAMED_UNIT(*)
SI_UNIT($,.METRE.)
);
#844=PRODUCT_DEFINITION_SHAPE('','',#845);
#845=PRODUCT_DEFINITION('','',#847,#846);
#846=PRODUCT_DEFINITION_CONTEXT('',#853,'design');
#847=PRODUCT_DEFINITION_FORMATION_WITH_SPECIFIED_SOURCE('','',#849,
 .NOT_KNOWN.);
#848=PRODUCT_RELATED_PRODUCT_CATEGORY('','',(#849));
#849=PRODUCT('Part 1','Part 1','Part 1',(#851));
#850=PRODUCT_CATEGORY('','');
#851=PRODUCT_CONTEXT('',#853,'mechanical');
#852=APPLICATION_PROTOCOL_DEFINITION('international standard',
'ap242_managed_model_based_3d_engineering',2020,#853);
#853=APPLICATION_CONTEXT('managed model based 3d engineering');
ENDSEC;
END-ISO-10303-21;
