%TF.GenerationSoftware,KiCad,Pcbnew,9.0.7*%
%TF.CreationDate,2026-07-31T05:15:45+05:00*%
%TF.ProjectId,Power Suply,506f7765-7220-4537-9570-6c792e6b6963,rev?*%
%TF.SameCoordinates,Original*%
%TF.FileFunction,Legend,Top*%
%TF.FilePolarity,Positive*%
%FSLAX46Y46*%
G04 Gerber Fmt 4.6, Leading zero omitted, Abs format (unit mm)*
G04 Created by KiCad (PCBNEW 9.0.7) date 2026-07-31 05:15:45*
%MOMM*%
%LPD*%
G01*
G04 APERTURE LIST*
%ADD10C,0.150000*%
%ADD11C,0.120000*%
%ADD12C,0.350000*%
G04 APERTURE END LIST*
D10*
X30361851Y-18777458D02*
X31076136Y-18777458D01*
X31076136Y-18777458D02*
X31218993Y-18825077D01*
X31218993Y-18825077D02*
X31314232Y-18920315D01*
X31314232Y-18920315D02*
X31361851Y-19063172D01*
X31361851Y-19063172D02*
X31361851Y-19158410D01*
X30457089Y-18348886D02*
X30409470Y-18301267D01*
X30409470Y-18301267D02*
X30361851Y-18206029D01*
X30361851Y-18206029D02*
X30361851Y-17967934D01*
X30361851Y-17967934D02*
X30409470Y-17872696D01*
X30409470Y-17872696D02*
X30457089Y-17825077D01*
X30457089Y-17825077D02*
X30552327Y-17777458D01*
X30552327Y-17777458D02*
X30647565Y-17777458D01*
X30647565Y-17777458D02*
X30790422Y-17825077D01*
X30790422Y-17825077D02*
X31361851Y-18396505D01*
X31361851Y-18396505D02*
X31361851Y-17777458D01*
X80361851Y-18777458D02*
X81076136Y-18777458D01*
X81076136Y-18777458D02*
X81218993Y-18825077D01*
X81218993Y-18825077D02*
X81314232Y-18920315D01*
X81314232Y-18920315D02*
X81361851Y-19063172D01*
X81361851Y-19063172D02*
X81361851Y-19158410D01*
X80695184Y-17872696D02*
X81361851Y-17872696D01*
X80314232Y-18110791D02*
X81028517Y-18348886D01*
X81028517Y-18348886D02*
X81028517Y-17729839D01*
X210361851Y-19253648D02*
X211076136Y-19253648D01*
X211076136Y-19253648D02*
X211218993Y-19301267D01*
X211218993Y-19301267D02*
X211314232Y-19396505D01*
X211314232Y-19396505D02*
X211361851Y-19539362D01*
X211361851Y-19539362D02*
X211361851Y-19634600D01*
X211361851Y-18253648D02*
X211361851Y-18825076D01*
X211361851Y-18539362D02*
X210361851Y-18539362D01*
X210361851Y-18539362D02*
X210504708Y-18634600D01*
X210504708Y-18634600D02*
X210599946Y-18729838D01*
X210599946Y-18729838D02*
X210647565Y-18825076D01*
X210361851Y-17634600D02*
X210361851Y-17539362D01*
X210361851Y-17539362D02*
X210409470Y-17444124D01*
X210409470Y-17444124D02*
X210457089Y-17396505D01*
X210457089Y-17396505D02*
X210552327Y-17348886D01*
X210552327Y-17348886D02*
X210742803Y-17301267D01*
X210742803Y-17301267D02*
X210980898Y-17301267D01*
X210980898Y-17301267D02*
X211171374Y-17348886D01*
X211171374Y-17348886D02*
X211266612Y-17396505D01*
X211266612Y-17396505D02*
X211314232Y-17444124D01*
X211314232Y-17444124D02*
X211361851Y-17539362D01*
X211361851Y-17539362D02*
X211361851Y-17634600D01*
X211361851Y-17634600D02*
X211314232Y-17729838D01*
X211314232Y-17729838D02*
X211266612Y-17777457D01*
X211266612Y-17777457D02*
X211171374Y-17825076D01*
X211171374Y-17825076D02*
X210980898Y-17872695D01*
X210980898Y-17872695D02*
X210742803Y-17872695D01*
X210742803Y-17872695D02*
X210552327Y-17825076D01*
X210552327Y-17825076D02*
X210457089Y-17777457D01*
X210457089Y-17777457D02*
X210409470Y-17729838D01*
X210409470Y-17729838D02*
X210361851Y-17634600D01*
X220691615Y-79168944D02*
X220358282Y-78692753D01*
X220120187Y-79168944D02*
X220120187Y-78168944D01*
X220120187Y-78168944D02*
X220501139Y-78168944D01*
X220501139Y-78168944D02*
X220596377Y-78216563D01*
X220596377Y-78216563D02*
X220643996Y-78264182D01*
X220643996Y-78264182D02*
X220691615Y-78359420D01*
X220691615Y-78359420D02*
X220691615Y-78502277D01*
X220691615Y-78502277D02*
X220643996Y-78597515D01*
X220643996Y-78597515D02*
X220596377Y-78645134D01*
X220596377Y-78645134D02*
X220501139Y-78692753D01*
X220501139Y-78692753D02*
X220120187Y-78692753D01*
X221548758Y-78168944D02*
X221358282Y-78168944D01*
X221358282Y-78168944D02*
X221263044Y-78216563D01*
X221263044Y-78216563D02*
X221215425Y-78264182D01*
X221215425Y-78264182D02*
X221120187Y-78407039D01*
X221120187Y-78407039D02*
X221072568Y-78597515D01*
X221072568Y-78597515D02*
X221072568Y-78978467D01*
X221072568Y-78978467D02*
X221120187Y-79073705D01*
X221120187Y-79073705D02*
X221167806Y-79121325D01*
X221167806Y-79121325D02*
X221263044Y-79168944D01*
X221263044Y-79168944D02*
X221453520Y-79168944D01*
X221453520Y-79168944D02*
X221548758Y-79121325D01*
X221548758Y-79121325D02*
X221596377Y-79073705D01*
X221596377Y-79073705D02*
X221643996Y-78978467D01*
X221643996Y-78978467D02*
X221643996Y-78740372D01*
X221643996Y-78740372D02*
X221596377Y-78645134D01*
X221596377Y-78645134D02*
X221548758Y-78597515D01*
X221548758Y-78597515D02*
X221453520Y-78549896D01*
X221453520Y-78549896D02*
X221263044Y-78549896D01*
X221263044Y-78549896D02*
X221167806Y-78597515D01*
X221167806Y-78597515D02*
X221120187Y-78645134D01*
X221120187Y-78645134D02*
X221072568Y-78740372D01*
X110361851Y-18777458D02*
X111076136Y-18777458D01*
X111076136Y-18777458D02*
X111218993Y-18825077D01*
X111218993Y-18825077D02*
X111314232Y-18920315D01*
X111314232Y-18920315D02*
X111361851Y-19063172D01*
X111361851Y-19063172D02*
X111361851Y-19158410D01*
X110361851Y-17872696D02*
X110361851Y-18063172D01*
X110361851Y-18063172D02*
X110409470Y-18158410D01*
X110409470Y-18158410D02*
X110457089Y-18206029D01*
X110457089Y-18206029D02*
X110599946Y-18301267D01*
X110599946Y-18301267D02*
X110790422Y-18348886D01*
X110790422Y-18348886D02*
X111171374Y-18348886D01*
X111171374Y-18348886D02*
X111266612Y-18301267D01*
X111266612Y-18301267D02*
X111314232Y-18253648D01*
X111314232Y-18253648D02*
X111361851Y-18158410D01*
X111361851Y-18158410D02*
X111361851Y-17967934D01*
X111361851Y-17967934D02*
X111314232Y-17872696D01*
X111314232Y-17872696D02*
X111266612Y-17825077D01*
X111266612Y-17825077D02*
X111171374Y-17777458D01*
X111171374Y-17777458D02*
X110933279Y-17777458D01*
X110933279Y-17777458D02*
X110838041Y-17825077D01*
X110838041Y-17825077D02*
X110790422Y-17872696D01*
X110790422Y-17872696D02*
X110742803Y-17967934D01*
X110742803Y-17967934D02*
X110742803Y-18158410D01*
X110742803Y-18158410D02*
X110790422Y-18253648D01*
X110790422Y-18253648D02*
X110838041Y-18301267D01*
X110838041Y-18301267D02*
X110933279Y-18348886D01*
X230361851Y-19253648D02*
X231076136Y-19253648D01*
X231076136Y-19253648D02*
X231218993Y-19301267D01*
X231218993Y-19301267D02*
X231314232Y-19396505D01*
X231314232Y-19396505D02*
X231361851Y-19539362D01*
X231361851Y-19539362D02*
X231361851Y-19634600D01*
X231361851Y-18253648D02*
X231361851Y-18825076D01*
X231361851Y-18539362D02*
X230361851Y-18539362D01*
X230361851Y-18539362D02*
X230504708Y-18634600D01*
X230504708Y-18634600D02*
X230599946Y-18729838D01*
X230599946Y-18729838D02*
X230647565Y-18825076D01*
X231361851Y-17301267D02*
X231361851Y-17872695D01*
X231361851Y-17586981D02*
X230361851Y-17586981D01*
X230361851Y-17586981D02*
X230504708Y-17682219D01*
X230504708Y-17682219D02*
X230599946Y-17777457D01*
X230599946Y-17777457D02*
X230647565Y-17872695D01*
X229025424Y-37093705D02*
X228977805Y-37141325D01*
X228977805Y-37141325D02*
X228834948Y-37188944D01*
X228834948Y-37188944D02*
X228739710Y-37188944D01*
X228739710Y-37188944D02*
X228596853Y-37141325D01*
X228596853Y-37141325D02*
X228501615Y-37046086D01*
X228501615Y-37046086D02*
X228453996Y-36950848D01*
X228453996Y-36950848D02*
X228406377Y-36760372D01*
X228406377Y-36760372D02*
X228406377Y-36617515D01*
X228406377Y-36617515D02*
X228453996Y-36427039D01*
X228453996Y-36427039D02*
X228501615Y-36331801D01*
X228501615Y-36331801D02*
X228596853Y-36236563D01*
X228596853Y-36236563D02*
X228739710Y-36188944D01*
X228739710Y-36188944D02*
X228834948Y-36188944D01*
X228834948Y-36188944D02*
X228977805Y-36236563D01*
X228977805Y-36236563D02*
X229025424Y-36284182D01*
X229977805Y-37188944D02*
X229406377Y-37188944D01*
X229692091Y-37188944D02*
X229692091Y-36188944D01*
X229692091Y-36188944D02*
X229596853Y-36331801D01*
X229596853Y-36331801D02*
X229501615Y-36427039D01*
X229501615Y-36427039D02*
X229406377Y-36474658D01*
X230930186Y-37188944D02*
X230358758Y-37188944D01*
X230644472Y-37188944D02*
X230644472Y-36188944D01*
X230644472Y-36188944D02*
X230549234Y-36331801D01*
X230549234Y-36331801D02*
X230453996Y-36427039D01*
X230453996Y-36427039D02*
X230358758Y-36474658D01*
X78559351Y-127078333D02*
X79273636Y-127078333D01*
X79273636Y-127078333D02*
X79416493Y-127125952D01*
X79416493Y-127125952D02*
X79511732Y-127221190D01*
X79511732Y-127221190D02*
X79559351Y-127364047D01*
X79559351Y-127364047D02*
X79559351Y-127459285D01*
X78559351Y-126125952D02*
X78559351Y-126602142D01*
X78559351Y-126602142D02*
X79035541Y-126649761D01*
X79035541Y-126649761D02*
X78987922Y-126602142D01*
X78987922Y-126602142D02*
X78940303Y-126506904D01*
X78940303Y-126506904D02*
X78940303Y-126268809D01*
X78940303Y-126268809D02*
X78987922Y-126173571D01*
X78987922Y-126173571D02*
X79035541Y-126125952D01*
X79035541Y-126125952D02*
X79130779Y-126078333D01*
X79130779Y-126078333D02*
X79368874Y-126078333D01*
X79368874Y-126078333D02*
X79464112Y-126125952D01*
X79464112Y-126125952D02*
X79511732Y-126173571D01*
X79511732Y-126173571D02*
X79559351Y-126268809D01*
X79559351Y-126268809D02*
X79559351Y-126506904D01*
X79559351Y-126506904D02*
X79511732Y-126602142D01*
X79511732Y-126602142D02*
X79464112Y-126649761D01*
X120691615Y-79168944D02*
X120358282Y-78692753D01*
X120120187Y-79168944D02*
X120120187Y-78168944D01*
X120120187Y-78168944D02*
X120501139Y-78168944D01*
X120501139Y-78168944D02*
X120596377Y-78216563D01*
X120596377Y-78216563D02*
X120643996Y-78264182D01*
X120643996Y-78264182D02*
X120691615Y-78359420D01*
X120691615Y-78359420D02*
X120691615Y-78502277D01*
X120691615Y-78502277D02*
X120643996Y-78597515D01*
X120643996Y-78597515D02*
X120596377Y-78645134D01*
X120596377Y-78645134D02*
X120501139Y-78692753D01*
X120501139Y-78692753D02*
X120120187Y-78692753D01*
X121548758Y-78502277D02*
X121548758Y-79168944D01*
X121310663Y-78121325D02*
X121072568Y-78835610D01*
X121072568Y-78835610D02*
X121691615Y-78835610D01*
X87001615Y-70453705D02*
X86953996Y-70501325D01*
X86953996Y-70501325D02*
X86811139Y-70548944D01*
X86811139Y-70548944D02*
X86715901Y-70548944D01*
X86715901Y-70548944D02*
X86573044Y-70501325D01*
X86573044Y-70501325D02*
X86477806Y-70406086D01*
X86477806Y-70406086D02*
X86430187Y-70310848D01*
X86430187Y-70310848D02*
X86382568Y-70120372D01*
X86382568Y-70120372D02*
X86382568Y-69977515D01*
X86382568Y-69977515D02*
X86430187Y-69787039D01*
X86430187Y-69787039D02*
X86477806Y-69691801D01*
X86477806Y-69691801D02*
X86573044Y-69596563D01*
X86573044Y-69596563D02*
X86715901Y-69548944D01*
X86715901Y-69548944D02*
X86811139Y-69548944D01*
X86811139Y-69548944D02*
X86953996Y-69596563D01*
X86953996Y-69596563D02*
X87001615Y-69644182D01*
X87858758Y-69882277D02*
X87858758Y-70548944D01*
X87620663Y-69501325D02*
X87382568Y-70215610D01*
X87382568Y-70215610D02*
X88001615Y-70215610D01*
X79501615Y-37093705D02*
X79453996Y-37141325D01*
X79453996Y-37141325D02*
X79311139Y-37188944D01*
X79311139Y-37188944D02*
X79215901Y-37188944D01*
X79215901Y-37188944D02*
X79073044Y-37141325D01*
X79073044Y-37141325D02*
X78977806Y-37046086D01*
X78977806Y-37046086D02*
X78930187Y-36950848D01*
X78930187Y-36950848D02*
X78882568Y-36760372D01*
X78882568Y-36760372D02*
X78882568Y-36617515D01*
X78882568Y-36617515D02*
X78930187Y-36427039D01*
X78930187Y-36427039D02*
X78977806Y-36331801D01*
X78977806Y-36331801D02*
X79073044Y-36236563D01*
X79073044Y-36236563D02*
X79215901Y-36188944D01*
X79215901Y-36188944D02*
X79311139Y-36188944D01*
X79311139Y-36188944D02*
X79453996Y-36236563D01*
X79453996Y-36236563D02*
X79501615Y-36284182D01*
X80406377Y-36188944D02*
X79930187Y-36188944D01*
X79930187Y-36188944D02*
X79882568Y-36665134D01*
X79882568Y-36665134D02*
X79930187Y-36617515D01*
X79930187Y-36617515D02*
X80025425Y-36569896D01*
X80025425Y-36569896D02*
X80263520Y-36569896D01*
X80263520Y-36569896D02*
X80358758Y-36617515D01*
X80358758Y-36617515D02*
X80406377Y-36665134D01*
X80406377Y-36665134D02*
X80453996Y-36760372D01*
X80453996Y-36760372D02*
X80453996Y-36998467D01*
X80453996Y-36998467D02*
X80406377Y-37093705D01*
X80406377Y-37093705D02*
X80358758Y-37141325D01*
X80358758Y-37141325D02*
X80263520Y-37188944D01*
X80263520Y-37188944D02*
X80025425Y-37188944D01*
X80025425Y-37188944D02*
X79930187Y-37141325D01*
X79930187Y-37141325D02*
X79882568Y-37093705D01*
X113508339Y-60739363D02*
X113460720Y-60834601D01*
X113460720Y-60834601D02*
X113365482Y-60929839D01*
X113365482Y-60929839D02*
X113222624Y-61072696D01*
X113222624Y-61072696D02*
X113175005Y-61167934D01*
X113175005Y-61167934D02*
X113175005Y-61263172D01*
X113413101Y-61215553D02*
X113365482Y-61310791D01*
X113365482Y-61310791D02*
X113270243Y-61406029D01*
X113270243Y-61406029D02*
X113079767Y-61453648D01*
X113079767Y-61453648D02*
X112746434Y-61453648D01*
X112746434Y-61453648D02*
X112555958Y-61406029D01*
X112555958Y-61406029D02*
X112460720Y-61310791D01*
X112460720Y-61310791D02*
X112413101Y-61215553D01*
X112413101Y-61215553D02*
X112413101Y-61025077D01*
X112413101Y-61025077D02*
X112460720Y-60929839D01*
X112460720Y-60929839D02*
X112555958Y-60834601D01*
X112555958Y-60834601D02*
X112746434Y-60786982D01*
X112746434Y-60786982D02*
X113079767Y-60786982D01*
X113079767Y-60786982D02*
X113270243Y-60834601D01*
X113270243Y-60834601D02*
X113365482Y-60929839D01*
X113365482Y-60929839D02*
X113413101Y-61025077D01*
X113413101Y-61025077D02*
X113413101Y-61215553D01*
X112413101Y-60453648D02*
X112413101Y-59834601D01*
X112413101Y-59834601D02*
X112794053Y-60167934D01*
X112794053Y-60167934D02*
X112794053Y-60025077D01*
X112794053Y-60025077D02*
X112841672Y-59929839D01*
X112841672Y-59929839D02*
X112889291Y-59882220D01*
X112889291Y-59882220D02*
X112984529Y-59834601D01*
X112984529Y-59834601D02*
X113222624Y-59834601D01*
X113222624Y-59834601D02*
X113317862Y-59882220D01*
X113317862Y-59882220D02*
X113365482Y-59929839D01*
X113365482Y-59929839D02*
X113413101Y-60025077D01*
X113413101Y-60025077D02*
X113413101Y-60310791D01*
X113413101Y-60310791D02*
X113365482Y-60406029D01*
X113365482Y-60406029D02*
X113317862Y-60453648D01*
X37001615Y-70453705D02*
X36953996Y-70501325D01*
X36953996Y-70501325D02*
X36811139Y-70548944D01*
X36811139Y-70548944D02*
X36715901Y-70548944D01*
X36715901Y-70548944D02*
X36573044Y-70501325D01*
X36573044Y-70501325D02*
X36477806Y-70406086D01*
X36477806Y-70406086D02*
X36430187Y-70310848D01*
X36430187Y-70310848D02*
X36382568Y-70120372D01*
X36382568Y-70120372D02*
X36382568Y-69977515D01*
X36382568Y-69977515D02*
X36430187Y-69787039D01*
X36430187Y-69787039D02*
X36477806Y-69691801D01*
X36477806Y-69691801D02*
X36573044Y-69596563D01*
X36573044Y-69596563D02*
X36715901Y-69548944D01*
X36715901Y-69548944D02*
X36811139Y-69548944D01*
X36811139Y-69548944D02*
X36953996Y-69596563D01*
X36953996Y-69596563D02*
X37001615Y-69644182D01*
X37382568Y-69644182D02*
X37430187Y-69596563D01*
X37430187Y-69596563D02*
X37525425Y-69548944D01*
X37525425Y-69548944D02*
X37763520Y-69548944D01*
X37763520Y-69548944D02*
X37858758Y-69596563D01*
X37858758Y-69596563D02*
X37906377Y-69644182D01*
X37906377Y-69644182D02*
X37953996Y-69739420D01*
X37953996Y-69739420D02*
X37953996Y-69834658D01*
X37953996Y-69834658D02*
X37906377Y-69977515D01*
X37906377Y-69977515D02*
X37334949Y-70548944D01*
X37334949Y-70548944D02*
X37953996Y-70548944D01*
X60361851Y-18777458D02*
X61076136Y-18777458D01*
X61076136Y-18777458D02*
X61218993Y-18825077D01*
X61218993Y-18825077D02*
X61314232Y-18920315D01*
X61314232Y-18920315D02*
X61361851Y-19063172D01*
X61361851Y-19063172D02*
X61361851Y-19158410D01*
X60361851Y-18396505D02*
X60361851Y-17777458D01*
X60361851Y-17777458D02*
X60742803Y-18110791D01*
X60742803Y-18110791D02*
X60742803Y-17967934D01*
X60742803Y-17967934D02*
X60790422Y-17872696D01*
X60790422Y-17872696D02*
X60838041Y-17825077D01*
X60838041Y-17825077D02*
X60933279Y-17777458D01*
X60933279Y-17777458D02*
X61171374Y-17777458D01*
X61171374Y-17777458D02*
X61266612Y-17825077D01*
X61266612Y-17825077D02*
X61314232Y-17872696D01*
X61314232Y-17872696D02*
X61361851Y-17967934D01*
X61361851Y-17967934D02*
X61361851Y-18253648D01*
X61361851Y-18253648D02*
X61314232Y-18348886D01*
X61314232Y-18348886D02*
X61266612Y-18396505D01*
X20691615Y-79168944D02*
X20358282Y-78692753D01*
X20120187Y-79168944D02*
X20120187Y-78168944D01*
X20120187Y-78168944D02*
X20501139Y-78168944D01*
X20501139Y-78168944D02*
X20596377Y-78216563D01*
X20596377Y-78216563D02*
X20643996Y-78264182D01*
X20643996Y-78264182D02*
X20691615Y-78359420D01*
X20691615Y-78359420D02*
X20691615Y-78502277D01*
X20691615Y-78502277D02*
X20643996Y-78597515D01*
X20643996Y-78597515D02*
X20596377Y-78645134D01*
X20596377Y-78645134D02*
X20501139Y-78692753D01*
X20501139Y-78692753D02*
X20120187Y-78692753D01*
X21072568Y-78264182D02*
X21120187Y-78216563D01*
X21120187Y-78216563D02*
X21215425Y-78168944D01*
X21215425Y-78168944D02*
X21453520Y-78168944D01*
X21453520Y-78168944D02*
X21548758Y-78216563D01*
X21548758Y-78216563D02*
X21596377Y-78264182D01*
X21596377Y-78264182D02*
X21643996Y-78359420D01*
X21643996Y-78359420D02*
X21643996Y-78454658D01*
X21643996Y-78454658D02*
X21596377Y-78597515D01*
X21596377Y-78597515D02*
X21024949Y-79168944D01*
X21024949Y-79168944D02*
X21643996Y-79168944D01*
X33840187Y-61168944D02*
X33840187Y-60168944D01*
X33840187Y-60168944D02*
X34078282Y-60168944D01*
X34078282Y-60168944D02*
X34221139Y-60216563D01*
X34221139Y-60216563D02*
X34316377Y-60311801D01*
X34316377Y-60311801D02*
X34363996Y-60407039D01*
X34363996Y-60407039D02*
X34411615Y-60597515D01*
X34411615Y-60597515D02*
X34411615Y-60740372D01*
X34411615Y-60740372D02*
X34363996Y-60930848D01*
X34363996Y-60930848D02*
X34316377Y-61026086D01*
X34316377Y-61026086D02*
X34221139Y-61121325D01*
X34221139Y-61121325D02*
X34078282Y-61168944D01*
X34078282Y-61168944D02*
X33840187Y-61168944D01*
X35268758Y-60168944D02*
X35078282Y-60168944D01*
X35078282Y-60168944D02*
X34983044Y-60216563D01*
X34983044Y-60216563D02*
X34935425Y-60264182D01*
X34935425Y-60264182D02*
X34840187Y-60407039D01*
X34840187Y-60407039D02*
X34792568Y-60597515D01*
X34792568Y-60597515D02*
X34792568Y-60978467D01*
X34792568Y-60978467D02*
X34840187Y-61073705D01*
X34840187Y-61073705D02*
X34887806Y-61121325D01*
X34887806Y-61121325D02*
X34983044Y-61168944D01*
X34983044Y-61168944D02*
X35173520Y-61168944D01*
X35173520Y-61168944D02*
X35268758Y-61121325D01*
X35268758Y-61121325D02*
X35316377Y-61073705D01*
X35316377Y-61073705D02*
X35363996Y-60978467D01*
X35363996Y-60978467D02*
X35363996Y-60740372D01*
X35363996Y-60740372D02*
X35316377Y-60645134D01*
X35316377Y-60645134D02*
X35268758Y-60597515D01*
X35268758Y-60597515D02*
X35173520Y-60549896D01*
X35173520Y-60549896D02*
X34983044Y-60549896D01*
X34983044Y-60549896D02*
X34887806Y-60597515D01*
X34887806Y-60597515D02*
X34840187Y-60645134D01*
X34840187Y-60645134D02*
X34792568Y-60740372D01*
X29236377Y-61538944D02*
X29236377Y-60538944D01*
X29807805Y-61538944D02*
X29379234Y-60967515D01*
X29807805Y-60538944D02*
X29236377Y-61110372D01*
X29236377Y-61538944D02*
X29236377Y-60538944D01*
X29807805Y-61538944D02*
X29379234Y-60967515D01*
X29807805Y-60538944D02*
X29236377Y-61110372D01*
X39138937Y-122234819D02*
X39138937Y-121234819D01*
X39138937Y-121234819D02*
X39377032Y-121234819D01*
X39377032Y-121234819D02*
X39519889Y-121282438D01*
X39519889Y-121282438D02*
X39615127Y-121377676D01*
X39615127Y-121377676D02*
X39662746Y-121472914D01*
X39662746Y-121472914D02*
X39710365Y-121663390D01*
X39710365Y-121663390D02*
X39710365Y-121806247D01*
X39710365Y-121806247D02*
X39662746Y-121996723D01*
X39662746Y-121996723D02*
X39615127Y-122091961D01*
X39615127Y-122091961D02*
X39519889Y-122187200D01*
X39519889Y-122187200D02*
X39377032Y-122234819D01*
X39377032Y-122234819D02*
X39138937Y-122234819D01*
X40043699Y-121234819D02*
X40662746Y-121234819D01*
X40662746Y-121234819D02*
X40329413Y-121615771D01*
X40329413Y-121615771D02*
X40472270Y-121615771D01*
X40472270Y-121615771D02*
X40567508Y-121663390D01*
X40567508Y-121663390D02*
X40615127Y-121711009D01*
X40615127Y-121711009D02*
X40662746Y-121806247D01*
X40662746Y-121806247D02*
X40662746Y-122044342D01*
X40662746Y-122044342D02*
X40615127Y-122139580D01*
X40615127Y-122139580D02*
X40567508Y-122187200D01*
X40567508Y-122187200D02*
X40472270Y-122234819D01*
X40472270Y-122234819D02*
X40186556Y-122234819D01*
X40186556Y-122234819D02*
X40091318Y-122187200D01*
X40091318Y-122187200D02*
X40043699Y-122139580D01*
X34535127Y-122604819D02*
X34535127Y-121604819D01*
X35106555Y-122604819D02*
X34677984Y-122033390D01*
X35106555Y-121604819D02*
X34535127Y-122176247D01*
X29501615Y-98303705D02*
X29453996Y-98351325D01*
X29453996Y-98351325D02*
X29311139Y-98398944D01*
X29311139Y-98398944D02*
X29215901Y-98398944D01*
X29215901Y-98398944D02*
X29073044Y-98351325D01*
X29073044Y-98351325D02*
X28977806Y-98256086D01*
X28977806Y-98256086D02*
X28930187Y-98160848D01*
X28930187Y-98160848D02*
X28882568Y-97970372D01*
X28882568Y-97970372D02*
X28882568Y-97827515D01*
X28882568Y-97827515D02*
X28930187Y-97637039D01*
X28930187Y-97637039D02*
X28977806Y-97541801D01*
X28977806Y-97541801D02*
X29073044Y-97446563D01*
X29073044Y-97446563D02*
X29215901Y-97398944D01*
X29215901Y-97398944D02*
X29311139Y-97398944D01*
X29311139Y-97398944D02*
X29453996Y-97446563D01*
X29453996Y-97446563D02*
X29501615Y-97494182D01*
X30453996Y-98398944D02*
X29882568Y-98398944D01*
X30168282Y-98398944D02*
X30168282Y-97398944D01*
X30168282Y-97398944D02*
X30073044Y-97541801D01*
X30073044Y-97541801D02*
X29977806Y-97637039D01*
X29977806Y-97637039D02*
X29882568Y-97684658D01*
X133840187Y-61168944D02*
X133840187Y-60168944D01*
X133840187Y-60168944D02*
X134078282Y-60168944D01*
X134078282Y-60168944D02*
X134221139Y-60216563D01*
X134221139Y-60216563D02*
X134316377Y-60311801D01*
X134316377Y-60311801D02*
X134363996Y-60407039D01*
X134363996Y-60407039D02*
X134411615Y-60597515D01*
X134411615Y-60597515D02*
X134411615Y-60740372D01*
X134411615Y-60740372D02*
X134363996Y-60930848D01*
X134363996Y-60930848D02*
X134316377Y-61026086D01*
X134316377Y-61026086D02*
X134221139Y-61121325D01*
X134221139Y-61121325D02*
X134078282Y-61168944D01*
X134078282Y-61168944D02*
X133840187Y-61168944D01*
X134983044Y-60597515D02*
X134887806Y-60549896D01*
X134887806Y-60549896D02*
X134840187Y-60502277D01*
X134840187Y-60502277D02*
X134792568Y-60407039D01*
X134792568Y-60407039D02*
X134792568Y-60359420D01*
X134792568Y-60359420D02*
X134840187Y-60264182D01*
X134840187Y-60264182D02*
X134887806Y-60216563D01*
X134887806Y-60216563D02*
X134983044Y-60168944D01*
X134983044Y-60168944D02*
X135173520Y-60168944D01*
X135173520Y-60168944D02*
X135268758Y-60216563D01*
X135268758Y-60216563D02*
X135316377Y-60264182D01*
X135316377Y-60264182D02*
X135363996Y-60359420D01*
X135363996Y-60359420D02*
X135363996Y-60407039D01*
X135363996Y-60407039D02*
X135316377Y-60502277D01*
X135316377Y-60502277D02*
X135268758Y-60549896D01*
X135268758Y-60549896D02*
X135173520Y-60597515D01*
X135173520Y-60597515D02*
X134983044Y-60597515D01*
X134983044Y-60597515D02*
X134887806Y-60645134D01*
X134887806Y-60645134D02*
X134840187Y-60692753D01*
X134840187Y-60692753D02*
X134792568Y-60787991D01*
X134792568Y-60787991D02*
X134792568Y-60978467D01*
X134792568Y-60978467D02*
X134840187Y-61073705D01*
X134840187Y-61073705D02*
X134887806Y-61121325D01*
X134887806Y-61121325D02*
X134983044Y-61168944D01*
X134983044Y-61168944D02*
X135173520Y-61168944D01*
X135173520Y-61168944D02*
X135268758Y-61121325D01*
X135268758Y-61121325D02*
X135316377Y-61073705D01*
X135316377Y-61073705D02*
X135363996Y-60978467D01*
X135363996Y-60978467D02*
X135363996Y-60787991D01*
X135363996Y-60787991D02*
X135316377Y-60692753D01*
X135316377Y-60692753D02*
X135268758Y-60645134D01*
X135268758Y-60645134D02*
X135173520Y-60597515D01*
X129236377Y-61538944D02*
X129236377Y-60538944D01*
X129807805Y-61538944D02*
X129379234Y-60967515D01*
X129807805Y-60538944D02*
X129236377Y-61110372D01*
X13508339Y-60739363D02*
X13460720Y-60834601D01*
X13460720Y-60834601D02*
X13365482Y-60929839D01*
X13365482Y-60929839D02*
X13222624Y-61072696D01*
X13222624Y-61072696D02*
X13175005Y-61167934D01*
X13175005Y-61167934D02*
X13175005Y-61263172D01*
X13413101Y-61215553D02*
X13365482Y-61310791D01*
X13365482Y-61310791D02*
X13270243Y-61406029D01*
X13270243Y-61406029D02*
X13079767Y-61453648D01*
X13079767Y-61453648D02*
X12746434Y-61453648D01*
X12746434Y-61453648D02*
X12555958Y-61406029D01*
X12555958Y-61406029D02*
X12460720Y-61310791D01*
X12460720Y-61310791D02*
X12413101Y-61215553D01*
X12413101Y-61215553D02*
X12413101Y-61025077D01*
X12413101Y-61025077D02*
X12460720Y-60929839D01*
X12460720Y-60929839D02*
X12555958Y-60834601D01*
X12555958Y-60834601D02*
X12746434Y-60786982D01*
X12746434Y-60786982D02*
X13079767Y-60786982D01*
X13079767Y-60786982D02*
X13270243Y-60834601D01*
X13270243Y-60834601D02*
X13365482Y-60929839D01*
X13365482Y-60929839D02*
X13413101Y-61025077D01*
X13413101Y-61025077D02*
X13413101Y-61215553D01*
X13413101Y-59834601D02*
X13413101Y-60406029D01*
X13413101Y-60120315D02*
X12413101Y-60120315D01*
X12413101Y-60120315D02*
X12555958Y-60215553D01*
X12555958Y-60215553D02*
X12651196Y-60310791D01*
X12651196Y-60310791D02*
X12698815Y-60406029D01*
X10361851Y-18777458D02*
X11076136Y-18777458D01*
X11076136Y-18777458D02*
X11218993Y-18825077D01*
X11218993Y-18825077D02*
X11314232Y-18920315D01*
X11314232Y-18920315D02*
X11361851Y-19063172D01*
X11361851Y-19063172D02*
X11361851Y-19158410D01*
X11361851Y-17777458D02*
X11361851Y-18348886D01*
X11361851Y-18063172D02*
X10361851Y-18063172D01*
X10361851Y-18063172D02*
X10504708Y-18158410D01*
X10504708Y-18158410D02*
X10599946Y-18253648D01*
X10599946Y-18253648D02*
X10647565Y-18348886D01*
X160361851Y-18777458D02*
X161076136Y-18777458D01*
X161076136Y-18777458D02*
X161218993Y-18825077D01*
X161218993Y-18825077D02*
X161314232Y-18920315D01*
X161314232Y-18920315D02*
X161361851Y-19063172D01*
X161361851Y-19063172D02*
X161361851Y-19158410D01*
X160790422Y-18158410D02*
X160742803Y-18253648D01*
X160742803Y-18253648D02*
X160695184Y-18301267D01*
X160695184Y-18301267D02*
X160599946Y-18348886D01*
X160599946Y-18348886D02*
X160552327Y-18348886D01*
X160552327Y-18348886D02*
X160457089Y-18301267D01*
X160457089Y-18301267D02*
X160409470Y-18253648D01*
X160409470Y-18253648D02*
X160361851Y-18158410D01*
X160361851Y-18158410D02*
X160361851Y-17967934D01*
X160361851Y-17967934D02*
X160409470Y-17872696D01*
X160409470Y-17872696D02*
X160457089Y-17825077D01*
X160457089Y-17825077D02*
X160552327Y-17777458D01*
X160552327Y-17777458D02*
X160599946Y-17777458D01*
X160599946Y-17777458D02*
X160695184Y-17825077D01*
X160695184Y-17825077D02*
X160742803Y-17872696D01*
X160742803Y-17872696D02*
X160790422Y-17967934D01*
X160790422Y-17967934D02*
X160790422Y-18158410D01*
X160790422Y-18158410D02*
X160838041Y-18253648D01*
X160838041Y-18253648D02*
X160885660Y-18301267D01*
X160885660Y-18301267D02*
X160980898Y-18348886D01*
X160980898Y-18348886D02*
X161171374Y-18348886D01*
X161171374Y-18348886D02*
X161266612Y-18301267D01*
X161266612Y-18301267D02*
X161314232Y-18253648D01*
X161314232Y-18253648D02*
X161361851Y-18158410D01*
X161361851Y-18158410D02*
X161361851Y-17967934D01*
X161361851Y-17967934D02*
X161314232Y-17872696D01*
X161314232Y-17872696D02*
X161266612Y-17825077D01*
X161266612Y-17825077D02*
X161171374Y-17777458D01*
X161171374Y-17777458D02*
X160980898Y-17777458D01*
X160980898Y-17777458D02*
X160885660Y-17825077D01*
X160885660Y-17825077D02*
X160838041Y-17872696D01*
X160838041Y-17872696D02*
X160790422Y-17967934D01*
X29501615Y-37093705D02*
X29453996Y-37141325D01*
X29453996Y-37141325D02*
X29311139Y-37188944D01*
X29311139Y-37188944D02*
X29215901Y-37188944D01*
X29215901Y-37188944D02*
X29073044Y-37141325D01*
X29073044Y-37141325D02*
X28977806Y-37046086D01*
X28977806Y-37046086D02*
X28930187Y-36950848D01*
X28930187Y-36950848D02*
X28882568Y-36760372D01*
X28882568Y-36760372D02*
X28882568Y-36617515D01*
X28882568Y-36617515D02*
X28930187Y-36427039D01*
X28930187Y-36427039D02*
X28977806Y-36331801D01*
X28977806Y-36331801D02*
X29073044Y-36236563D01*
X29073044Y-36236563D02*
X29215901Y-36188944D01*
X29215901Y-36188944D02*
X29311139Y-36188944D01*
X29311139Y-36188944D02*
X29453996Y-36236563D01*
X29453996Y-36236563D02*
X29501615Y-36284182D01*
X29834949Y-36188944D02*
X30453996Y-36188944D01*
X30453996Y-36188944D02*
X30120663Y-36569896D01*
X30120663Y-36569896D02*
X30263520Y-36569896D01*
X30263520Y-36569896D02*
X30358758Y-36617515D01*
X30358758Y-36617515D02*
X30406377Y-36665134D01*
X30406377Y-36665134D02*
X30453996Y-36760372D01*
X30453996Y-36760372D02*
X30453996Y-36998467D01*
X30453996Y-36998467D02*
X30406377Y-37093705D01*
X30406377Y-37093705D02*
X30358758Y-37141325D01*
X30358758Y-37141325D02*
X30263520Y-37188944D01*
X30263520Y-37188944D02*
X29977806Y-37188944D01*
X29977806Y-37188944D02*
X29882568Y-37141325D01*
X29882568Y-37141325D02*
X29834949Y-37093705D01*
X236525424Y-70453705D02*
X236477805Y-70501325D01*
X236477805Y-70501325D02*
X236334948Y-70548944D01*
X236334948Y-70548944D02*
X236239710Y-70548944D01*
X236239710Y-70548944D02*
X236096853Y-70501325D01*
X236096853Y-70501325D02*
X236001615Y-70406086D01*
X236001615Y-70406086D02*
X235953996Y-70310848D01*
X235953996Y-70310848D02*
X235906377Y-70120372D01*
X235906377Y-70120372D02*
X235906377Y-69977515D01*
X235906377Y-69977515D02*
X235953996Y-69787039D01*
X235953996Y-69787039D02*
X236001615Y-69691801D01*
X236001615Y-69691801D02*
X236096853Y-69596563D01*
X236096853Y-69596563D02*
X236239710Y-69548944D01*
X236239710Y-69548944D02*
X236334948Y-69548944D01*
X236334948Y-69548944D02*
X236477805Y-69596563D01*
X236477805Y-69596563D02*
X236525424Y-69644182D01*
X237477805Y-70548944D02*
X236906377Y-70548944D01*
X237192091Y-70548944D02*
X237192091Y-69548944D01*
X237192091Y-69548944D02*
X237096853Y-69691801D01*
X237096853Y-69691801D02*
X237001615Y-69787039D01*
X237001615Y-69787039D02*
X236906377Y-69834658D01*
X238096853Y-69548944D02*
X238192091Y-69548944D01*
X238192091Y-69548944D02*
X238287329Y-69596563D01*
X238287329Y-69596563D02*
X238334948Y-69644182D01*
X238334948Y-69644182D02*
X238382567Y-69739420D01*
X238382567Y-69739420D02*
X238430186Y-69929896D01*
X238430186Y-69929896D02*
X238430186Y-70167991D01*
X238430186Y-70167991D02*
X238382567Y-70358467D01*
X238382567Y-70358467D02*
X238334948Y-70453705D01*
X238334948Y-70453705D02*
X238287329Y-70501325D01*
X238287329Y-70501325D02*
X238192091Y-70548944D01*
X238192091Y-70548944D02*
X238096853Y-70548944D01*
X238096853Y-70548944D02*
X238001615Y-70501325D01*
X238001615Y-70501325D02*
X237953996Y-70453705D01*
X237953996Y-70453705D02*
X237906377Y-70358467D01*
X237906377Y-70358467D02*
X237858758Y-70167991D01*
X237858758Y-70167991D02*
X237858758Y-69929896D01*
X237858758Y-69929896D02*
X237906377Y-69739420D01*
X237906377Y-69739420D02*
X237953996Y-69644182D01*
X237953996Y-69644182D02*
X238001615Y-69596563D01*
X238001615Y-69596563D02*
X238096853Y-69548944D01*
X83840187Y-61168944D02*
X83840187Y-60168944D01*
X83840187Y-60168944D02*
X84078282Y-60168944D01*
X84078282Y-60168944D02*
X84221139Y-60216563D01*
X84221139Y-60216563D02*
X84316377Y-60311801D01*
X84316377Y-60311801D02*
X84363996Y-60407039D01*
X84363996Y-60407039D02*
X84411615Y-60597515D01*
X84411615Y-60597515D02*
X84411615Y-60740372D01*
X84411615Y-60740372D02*
X84363996Y-60930848D01*
X84363996Y-60930848D02*
X84316377Y-61026086D01*
X84316377Y-61026086D02*
X84221139Y-61121325D01*
X84221139Y-61121325D02*
X84078282Y-61168944D01*
X84078282Y-61168944D02*
X83840187Y-61168944D01*
X84744949Y-60168944D02*
X85411615Y-60168944D01*
X85411615Y-60168944D02*
X84983044Y-61168944D01*
X79236377Y-61538944D02*
X79236377Y-60538944D01*
X79807805Y-61538944D02*
X79379234Y-60967515D01*
X79807805Y-60538944D02*
X79236377Y-61110372D01*
X183840187Y-61168944D02*
X183840187Y-60168944D01*
X183840187Y-60168944D02*
X184078282Y-60168944D01*
X184078282Y-60168944D02*
X184221139Y-60216563D01*
X184221139Y-60216563D02*
X184316377Y-60311801D01*
X184316377Y-60311801D02*
X184363996Y-60407039D01*
X184363996Y-60407039D02*
X184411615Y-60597515D01*
X184411615Y-60597515D02*
X184411615Y-60740372D01*
X184411615Y-60740372D02*
X184363996Y-60930848D01*
X184363996Y-60930848D02*
X184316377Y-61026086D01*
X184316377Y-61026086D02*
X184221139Y-61121325D01*
X184221139Y-61121325D02*
X184078282Y-61168944D01*
X184078282Y-61168944D02*
X183840187Y-61168944D01*
X184887806Y-61168944D02*
X185078282Y-61168944D01*
X185078282Y-61168944D02*
X185173520Y-61121325D01*
X185173520Y-61121325D02*
X185221139Y-61073705D01*
X185221139Y-61073705D02*
X185316377Y-60930848D01*
X185316377Y-60930848D02*
X185363996Y-60740372D01*
X185363996Y-60740372D02*
X185363996Y-60359420D01*
X185363996Y-60359420D02*
X185316377Y-60264182D01*
X185316377Y-60264182D02*
X185268758Y-60216563D01*
X185268758Y-60216563D02*
X185173520Y-60168944D01*
X185173520Y-60168944D02*
X184983044Y-60168944D01*
X184983044Y-60168944D02*
X184887806Y-60216563D01*
X184887806Y-60216563D02*
X184840187Y-60264182D01*
X184840187Y-60264182D02*
X184792568Y-60359420D01*
X184792568Y-60359420D02*
X184792568Y-60597515D01*
X184792568Y-60597515D02*
X184840187Y-60692753D01*
X184840187Y-60692753D02*
X184887806Y-60740372D01*
X184887806Y-60740372D02*
X184983044Y-60787991D01*
X184983044Y-60787991D02*
X185173520Y-60787991D01*
X185173520Y-60787991D02*
X185268758Y-60740372D01*
X185268758Y-60740372D02*
X185316377Y-60692753D01*
X185316377Y-60692753D02*
X185363996Y-60597515D01*
X179236377Y-61538944D02*
X179236377Y-60538944D01*
X179807805Y-61538944D02*
X179379234Y-60967515D01*
X179807805Y-60538944D02*
X179236377Y-61110372D01*
X37650187Y-95958944D02*
X37650187Y-94958944D01*
X37650187Y-94958944D02*
X37888282Y-94958944D01*
X37888282Y-94958944D02*
X38031139Y-95006563D01*
X38031139Y-95006563D02*
X38126377Y-95101801D01*
X38126377Y-95101801D02*
X38173996Y-95197039D01*
X38173996Y-95197039D02*
X38221615Y-95387515D01*
X38221615Y-95387515D02*
X38221615Y-95530372D01*
X38221615Y-95530372D02*
X38173996Y-95720848D01*
X38173996Y-95720848D02*
X38126377Y-95816086D01*
X38126377Y-95816086D02*
X38031139Y-95911325D01*
X38031139Y-95911325D02*
X37888282Y-95958944D01*
X37888282Y-95958944D02*
X37650187Y-95958944D01*
X39126377Y-94958944D02*
X38650187Y-94958944D01*
X38650187Y-94958944D02*
X38602568Y-95435134D01*
X38602568Y-95435134D02*
X38650187Y-95387515D01*
X38650187Y-95387515D02*
X38745425Y-95339896D01*
X38745425Y-95339896D02*
X38983520Y-95339896D01*
X38983520Y-95339896D02*
X39078758Y-95387515D01*
X39078758Y-95387515D02*
X39126377Y-95435134D01*
X39126377Y-95435134D02*
X39173996Y-95530372D01*
X39173996Y-95530372D02*
X39173996Y-95768467D01*
X39173996Y-95768467D02*
X39126377Y-95863705D01*
X39126377Y-95863705D02*
X39078758Y-95911325D01*
X39078758Y-95911325D02*
X38983520Y-95958944D01*
X38983520Y-95958944D02*
X38745425Y-95958944D01*
X38745425Y-95958944D02*
X38650187Y-95911325D01*
X38650187Y-95911325D02*
X38602568Y-95863705D01*
X22598937Y-122234819D02*
X22598937Y-121234819D01*
X22598937Y-121234819D02*
X22837032Y-121234819D01*
X22837032Y-121234819D02*
X22979889Y-121282438D01*
X22979889Y-121282438D02*
X23075127Y-121377676D01*
X23075127Y-121377676D02*
X23122746Y-121472914D01*
X23122746Y-121472914D02*
X23170365Y-121663390D01*
X23170365Y-121663390D02*
X23170365Y-121806247D01*
X23170365Y-121806247D02*
X23122746Y-121996723D01*
X23122746Y-121996723D02*
X23075127Y-122091961D01*
X23075127Y-122091961D02*
X22979889Y-122187200D01*
X22979889Y-122187200D02*
X22837032Y-122234819D01*
X22837032Y-122234819D02*
X22598937Y-122234819D01*
X24027508Y-121568152D02*
X24027508Y-122234819D01*
X23789413Y-121187200D02*
X23551318Y-121901485D01*
X23551318Y-121901485D02*
X24170365Y-121901485D01*
X17995127Y-122604819D02*
X17995127Y-121604819D01*
X18566555Y-122604819D02*
X18137984Y-122033390D01*
X18566555Y-121604819D02*
X17995127Y-122176247D01*
X187001615Y-70453705D02*
X186953996Y-70501325D01*
X186953996Y-70501325D02*
X186811139Y-70548944D01*
X186811139Y-70548944D02*
X186715901Y-70548944D01*
X186715901Y-70548944D02*
X186573044Y-70501325D01*
X186573044Y-70501325D02*
X186477806Y-70406086D01*
X186477806Y-70406086D02*
X186430187Y-70310848D01*
X186430187Y-70310848D02*
X186382568Y-70120372D01*
X186382568Y-70120372D02*
X186382568Y-69977515D01*
X186382568Y-69977515D02*
X186430187Y-69787039D01*
X186430187Y-69787039D02*
X186477806Y-69691801D01*
X186477806Y-69691801D02*
X186573044Y-69596563D01*
X186573044Y-69596563D02*
X186715901Y-69548944D01*
X186715901Y-69548944D02*
X186811139Y-69548944D01*
X186811139Y-69548944D02*
X186953996Y-69596563D01*
X186953996Y-69596563D02*
X187001615Y-69644182D01*
X187573044Y-69977515D02*
X187477806Y-69929896D01*
X187477806Y-69929896D02*
X187430187Y-69882277D01*
X187430187Y-69882277D02*
X187382568Y-69787039D01*
X187382568Y-69787039D02*
X187382568Y-69739420D01*
X187382568Y-69739420D02*
X187430187Y-69644182D01*
X187430187Y-69644182D02*
X187477806Y-69596563D01*
X187477806Y-69596563D02*
X187573044Y-69548944D01*
X187573044Y-69548944D02*
X187763520Y-69548944D01*
X187763520Y-69548944D02*
X187858758Y-69596563D01*
X187858758Y-69596563D02*
X187906377Y-69644182D01*
X187906377Y-69644182D02*
X187953996Y-69739420D01*
X187953996Y-69739420D02*
X187953996Y-69787039D01*
X187953996Y-69787039D02*
X187906377Y-69882277D01*
X187906377Y-69882277D02*
X187858758Y-69929896D01*
X187858758Y-69929896D02*
X187763520Y-69977515D01*
X187763520Y-69977515D02*
X187573044Y-69977515D01*
X187573044Y-69977515D02*
X187477806Y-70025134D01*
X187477806Y-70025134D02*
X187430187Y-70072753D01*
X187430187Y-70072753D02*
X187382568Y-70167991D01*
X187382568Y-70167991D02*
X187382568Y-70358467D01*
X187382568Y-70358467D02*
X187430187Y-70453705D01*
X187430187Y-70453705D02*
X187477806Y-70501325D01*
X187477806Y-70501325D02*
X187573044Y-70548944D01*
X187573044Y-70548944D02*
X187763520Y-70548944D01*
X187763520Y-70548944D02*
X187858758Y-70501325D01*
X187858758Y-70501325D02*
X187906377Y-70453705D01*
X187906377Y-70453705D02*
X187953996Y-70358467D01*
X187953996Y-70358467D02*
X187953996Y-70167991D01*
X187953996Y-70167991D02*
X187906377Y-70072753D01*
X187906377Y-70072753D02*
X187858758Y-70025134D01*
X187858758Y-70025134D02*
X187763520Y-69977515D01*
X129501615Y-37093705D02*
X129453996Y-37141325D01*
X129453996Y-37141325D02*
X129311139Y-37188944D01*
X129311139Y-37188944D02*
X129215901Y-37188944D01*
X129215901Y-37188944D02*
X129073044Y-37141325D01*
X129073044Y-37141325D02*
X128977806Y-37046086D01*
X128977806Y-37046086D02*
X128930187Y-36950848D01*
X128930187Y-36950848D02*
X128882568Y-36760372D01*
X128882568Y-36760372D02*
X128882568Y-36617515D01*
X128882568Y-36617515D02*
X128930187Y-36427039D01*
X128930187Y-36427039D02*
X128977806Y-36331801D01*
X128977806Y-36331801D02*
X129073044Y-36236563D01*
X129073044Y-36236563D02*
X129215901Y-36188944D01*
X129215901Y-36188944D02*
X129311139Y-36188944D01*
X129311139Y-36188944D02*
X129453996Y-36236563D01*
X129453996Y-36236563D02*
X129501615Y-36284182D01*
X129834949Y-36188944D02*
X130501615Y-36188944D01*
X130501615Y-36188944D02*
X130073044Y-37188944D01*
X163508339Y-60739363D02*
X163460720Y-60834601D01*
X163460720Y-60834601D02*
X163365482Y-60929839D01*
X163365482Y-60929839D02*
X163222624Y-61072696D01*
X163222624Y-61072696D02*
X163175005Y-61167934D01*
X163175005Y-61167934D02*
X163175005Y-61263172D01*
X163413101Y-61215553D02*
X163365482Y-61310791D01*
X163365482Y-61310791D02*
X163270243Y-61406029D01*
X163270243Y-61406029D02*
X163079767Y-61453648D01*
X163079767Y-61453648D02*
X162746434Y-61453648D01*
X162746434Y-61453648D02*
X162555958Y-61406029D01*
X162555958Y-61406029D02*
X162460720Y-61310791D01*
X162460720Y-61310791D02*
X162413101Y-61215553D01*
X162413101Y-61215553D02*
X162413101Y-61025077D01*
X162413101Y-61025077D02*
X162460720Y-60929839D01*
X162460720Y-60929839D02*
X162555958Y-60834601D01*
X162555958Y-60834601D02*
X162746434Y-60786982D01*
X162746434Y-60786982D02*
X163079767Y-60786982D01*
X163079767Y-60786982D02*
X163270243Y-60834601D01*
X163270243Y-60834601D02*
X163365482Y-60929839D01*
X163365482Y-60929839D02*
X163413101Y-61025077D01*
X163413101Y-61025077D02*
X163413101Y-61215553D01*
X162746434Y-59929839D02*
X163413101Y-59929839D01*
X162365482Y-60167934D02*
X163079767Y-60406029D01*
X163079767Y-60406029D02*
X163079767Y-59786982D01*
X170691615Y-79168944D02*
X170358282Y-78692753D01*
X170120187Y-79168944D02*
X170120187Y-78168944D01*
X170120187Y-78168944D02*
X170501139Y-78168944D01*
X170501139Y-78168944D02*
X170596377Y-78216563D01*
X170596377Y-78216563D02*
X170643996Y-78264182D01*
X170643996Y-78264182D02*
X170691615Y-78359420D01*
X170691615Y-78359420D02*
X170691615Y-78502277D01*
X170691615Y-78502277D02*
X170643996Y-78597515D01*
X170643996Y-78597515D02*
X170596377Y-78645134D01*
X170596377Y-78645134D02*
X170501139Y-78692753D01*
X170501139Y-78692753D02*
X170120187Y-78692753D01*
X171596377Y-78168944D02*
X171120187Y-78168944D01*
X171120187Y-78168944D02*
X171072568Y-78645134D01*
X171072568Y-78645134D02*
X171120187Y-78597515D01*
X171120187Y-78597515D02*
X171215425Y-78549896D01*
X171215425Y-78549896D02*
X171453520Y-78549896D01*
X171453520Y-78549896D02*
X171548758Y-78597515D01*
X171548758Y-78597515D02*
X171596377Y-78645134D01*
X171596377Y-78645134D02*
X171643996Y-78740372D01*
X171643996Y-78740372D02*
X171643996Y-78978467D01*
X171643996Y-78978467D02*
X171596377Y-79073705D01*
X171596377Y-79073705D02*
X171548758Y-79121325D01*
X171548758Y-79121325D02*
X171453520Y-79168944D01*
X171453520Y-79168944D02*
X171215425Y-79168944D01*
X171215425Y-79168944D02*
X171120187Y-79121325D01*
X171120187Y-79121325D02*
X171072568Y-79073705D01*
X22588937Y-131484819D02*
X22588937Y-130484819D01*
X22588937Y-130484819D02*
X22827032Y-130484819D01*
X22827032Y-130484819D02*
X22969889Y-130532438D01*
X22969889Y-130532438D02*
X23065127Y-130627676D01*
X23065127Y-130627676D02*
X23112746Y-130722914D01*
X23112746Y-130722914D02*
X23160365Y-130913390D01*
X23160365Y-130913390D02*
X23160365Y-131056247D01*
X23160365Y-131056247D02*
X23112746Y-131246723D01*
X23112746Y-131246723D02*
X23065127Y-131341961D01*
X23065127Y-131341961D02*
X22969889Y-131437200D01*
X22969889Y-131437200D02*
X22827032Y-131484819D01*
X22827032Y-131484819D02*
X22588937Y-131484819D01*
X23541318Y-130580057D02*
X23588937Y-130532438D01*
X23588937Y-130532438D02*
X23684175Y-130484819D01*
X23684175Y-130484819D02*
X23922270Y-130484819D01*
X23922270Y-130484819D02*
X24017508Y-130532438D01*
X24017508Y-130532438D02*
X24065127Y-130580057D01*
X24065127Y-130580057D02*
X24112746Y-130675295D01*
X24112746Y-130675295D02*
X24112746Y-130770533D01*
X24112746Y-130770533D02*
X24065127Y-130913390D01*
X24065127Y-130913390D02*
X23493699Y-131484819D01*
X23493699Y-131484819D02*
X24112746Y-131484819D01*
X17985127Y-131854819D02*
X17985127Y-130854819D01*
X18556555Y-131854819D02*
X18127984Y-131283390D01*
X18556555Y-130854819D02*
X17985127Y-131426247D01*
X20701615Y-94368944D02*
X20368282Y-93892753D01*
X20130187Y-94368944D02*
X20130187Y-93368944D01*
X20130187Y-93368944D02*
X20511139Y-93368944D01*
X20511139Y-93368944D02*
X20606377Y-93416563D01*
X20606377Y-93416563D02*
X20653996Y-93464182D01*
X20653996Y-93464182D02*
X20701615Y-93559420D01*
X20701615Y-93559420D02*
X20701615Y-93702277D01*
X20701615Y-93702277D02*
X20653996Y-93797515D01*
X20653996Y-93797515D02*
X20606377Y-93845134D01*
X20606377Y-93845134D02*
X20511139Y-93892753D01*
X20511139Y-93892753D02*
X20130187Y-93892753D01*
X21653996Y-94368944D02*
X21082568Y-94368944D01*
X21368282Y-94368944D02*
X21368282Y-93368944D01*
X21368282Y-93368944D02*
X21273044Y-93511801D01*
X21273044Y-93511801D02*
X21177806Y-93607039D01*
X21177806Y-93607039D02*
X21082568Y-93654658D01*
X130361851Y-18777458D02*
X131076136Y-18777458D01*
X131076136Y-18777458D02*
X131218993Y-18825077D01*
X131218993Y-18825077D02*
X131314232Y-18920315D01*
X131314232Y-18920315D02*
X131361851Y-19063172D01*
X131361851Y-19063172D02*
X131361851Y-19158410D01*
X130361851Y-18396505D02*
X130361851Y-17729839D01*
X130361851Y-17729839D02*
X131361851Y-18158410D01*
X70691615Y-79168944D02*
X70358282Y-78692753D01*
X70120187Y-79168944D02*
X70120187Y-78168944D01*
X70120187Y-78168944D02*
X70501139Y-78168944D01*
X70501139Y-78168944D02*
X70596377Y-78216563D01*
X70596377Y-78216563D02*
X70643996Y-78264182D01*
X70643996Y-78264182D02*
X70691615Y-78359420D01*
X70691615Y-78359420D02*
X70691615Y-78502277D01*
X70691615Y-78502277D02*
X70643996Y-78597515D01*
X70643996Y-78597515D02*
X70596377Y-78645134D01*
X70596377Y-78645134D02*
X70501139Y-78692753D01*
X70501139Y-78692753D02*
X70120187Y-78692753D01*
X71024949Y-78168944D02*
X71643996Y-78168944D01*
X71643996Y-78168944D02*
X71310663Y-78549896D01*
X71310663Y-78549896D02*
X71453520Y-78549896D01*
X71453520Y-78549896D02*
X71548758Y-78597515D01*
X71548758Y-78597515D02*
X71596377Y-78645134D01*
X71596377Y-78645134D02*
X71643996Y-78740372D01*
X71643996Y-78740372D02*
X71643996Y-78978467D01*
X71643996Y-78978467D02*
X71596377Y-79073705D01*
X71596377Y-79073705D02*
X71548758Y-79121325D01*
X71548758Y-79121325D02*
X71453520Y-79168944D01*
X71453520Y-79168944D02*
X71167806Y-79168944D01*
X71167806Y-79168944D02*
X71072568Y-79121325D01*
X71072568Y-79121325D02*
X71024949Y-79073705D01*
X137001615Y-70453705D02*
X136953996Y-70501325D01*
X136953996Y-70501325D02*
X136811139Y-70548944D01*
X136811139Y-70548944D02*
X136715901Y-70548944D01*
X136715901Y-70548944D02*
X136573044Y-70501325D01*
X136573044Y-70501325D02*
X136477806Y-70406086D01*
X136477806Y-70406086D02*
X136430187Y-70310848D01*
X136430187Y-70310848D02*
X136382568Y-70120372D01*
X136382568Y-70120372D02*
X136382568Y-69977515D01*
X136382568Y-69977515D02*
X136430187Y-69787039D01*
X136430187Y-69787039D02*
X136477806Y-69691801D01*
X136477806Y-69691801D02*
X136573044Y-69596563D01*
X136573044Y-69596563D02*
X136715901Y-69548944D01*
X136715901Y-69548944D02*
X136811139Y-69548944D01*
X136811139Y-69548944D02*
X136953996Y-69596563D01*
X136953996Y-69596563D02*
X137001615Y-69644182D01*
X137858758Y-69548944D02*
X137668282Y-69548944D01*
X137668282Y-69548944D02*
X137573044Y-69596563D01*
X137573044Y-69596563D02*
X137525425Y-69644182D01*
X137525425Y-69644182D02*
X137430187Y-69787039D01*
X137430187Y-69787039D02*
X137382568Y-69977515D01*
X137382568Y-69977515D02*
X137382568Y-70358467D01*
X137382568Y-70358467D02*
X137430187Y-70453705D01*
X137430187Y-70453705D02*
X137477806Y-70501325D01*
X137477806Y-70501325D02*
X137573044Y-70548944D01*
X137573044Y-70548944D02*
X137763520Y-70548944D01*
X137763520Y-70548944D02*
X137858758Y-70501325D01*
X137858758Y-70501325D02*
X137906377Y-70453705D01*
X137906377Y-70453705D02*
X137953996Y-70358467D01*
X137953996Y-70358467D02*
X137953996Y-70120372D01*
X137953996Y-70120372D02*
X137906377Y-70025134D01*
X137906377Y-70025134D02*
X137858758Y-69977515D01*
X137858758Y-69977515D02*
X137763520Y-69929896D01*
X137763520Y-69929896D02*
X137573044Y-69929896D01*
X137573044Y-69929896D02*
X137477806Y-69977515D01*
X137477806Y-69977515D02*
X137430187Y-70025134D01*
X137430187Y-70025134D02*
X137382568Y-70120372D01*
X39138937Y-131484819D02*
X39138937Y-130484819D01*
X39138937Y-130484819D02*
X39377032Y-130484819D01*
X39377032Y-130484819D02*
X39519889Y-130532438D01*
X39519889Y-130532438D02*
X39615127Y-130627676D01*
X39615127Y-130627676D02*
X39662746Y-130722914D01*
X39662746Y-130722914D02*
X39710365Y-130913390D01*
X39710365Y-130913390D02*
X39710365Y-131056247D01*
X39710365Y-131056247D02*
X39662746Y-131246723D01*
X39662746Y-131246723D02*
X39615127Y-131341961D01*
X39615127Y-131341961D02*
X39519889Y-131437200D01*
X39519889Y-131437200D02*
X39377032Y-131484819D01*
X39377032Y-131484819D02*
X39138937Y-131484819D01*
X40662746Y-131484819D02*
X40091318Y-131484819D01*
X40377032Y-131484819D02*
X40377032Y-130484819D01*
X40377032Y-130484819D02*
X40281794Y-130627676D01*
X40281794Y-130627676D02*
X40186556Y-130722914D01*
X40186556Y-130722914D02*
X40091318Y-130770533D01*
X34535127Y-131854819D02*
X34535127Y-130854819D01*
X35106555Y-131854819D02*
X34677984Y-131283390D01*
X35106555Y-130854819D02*
X34535127Y-131426247D01*
X213508339Y-60739363D02*
X213460720Y-60834601D01*
X213460720Y-60834601D02*
X213365482Y-60929839D01*
X213365482Y-60929839D02*
X213222624Y-61072696D01*
X213222624Y-61072696D02*
X213175005Y-61167934D01*
X213175005Y-61167934D02*
X213175005Y-61263172D01*
X213413101Y-61215553D02*
X213365482Y-61310791D01*
X213365482Y-61310791D02*
X213270243Y-61406029D01*
X213270243Y-61406029D02*
X213079767Y-61453648D01*
X213079767Y-61453648D02*
X212746434Y-61453648D01*
X212746434Y-61453648D02*
X212555958Y-61406029D01*
X212555958Y-61406029D02*
X212460720Y-61310791D01*
X212460720Y-61310791D02*
X212413101Y-61215553D01*
X212413101Y-61215553D02*
X212413101Y-61025077D01*
X212413101Y-61025077D02*
X212460720Y-60929839D01*
X212460720Y-60929839D02*
X212555958Y-60834601D01*
X212555958Y-60834601D02*
X212746434Y-60786982D01*
X212746434Y-60786982D02*
X213079767Y-60786982D01*
X213079767Y-60786982D02*
X213270243Y-60834601D01*
X213270243Y-60834601D02*
X213365482Y-60929839D01*
X213365482Y-60929839D02*
X213413101Y-61025077D01*
X213413101Y-61025077D02*
X213413101Y-61215553D01*
X212413101Y-59882220D02*
X212413101Y-60358410D01*
X212413101Y-60358410D02*
X212889291Y-60406029D01*
X212889291Y-60406029D02*
X212841672Y-60358410D01*
X212841672Y-60358410D02*
X212794053Y-60263172D01*
X212794053Y-60263172D02*
X212794053Y-60025077D01*
X212794053Y-60025077D02*
X212841672Y-59929839D01*
X212841672Y-59929839D02*
X212889291Y-59882220D01*
X212889291Y-59882220D02*
X212984529Y-59834601D01*
X212984529Y-59834601D02*
X213222624Y-59834601D01*
X213222624Y-59834601D02*
X213317862Y-59882220D01*
X213317862Y-59882220D02*
X213365482Y-59929839D01*
X213365482Y-59929839D02*
X213413101Y-60025077D01*
X213413101Y-60025077D02*
X213413101Y-60263172D01*
X213413101Y-60263172D02*
X213365482Y-60358410D01*
X213365482Y-60358410D02*
X213317862Y-60406029D01*
X233363996Y-61168944D02*
X233363996Y-60168944D01*
X233363996Y-60168944D02*
X233602091Y-60168944D01*
X233602091Y-60168944D02*
X233744948Y-60216563D01*
X233744948Y-60216563D02*
X233840186Y-60311801D01*
X233840186Y-60311801D02*
X233887805Y-60407039D01*
X233887805Y-60407039D02*
X233935424Y-60597515D01*
X233935424Y-60597515D02*
X233935424Y-60740372D01*
X233935424Y-60740372D02*
X233887805Y-60930848D01*
X233887805Y-60930848D02*
X233840186Y-61026086D01*
X233840186Y-61026086D02*
X233744948Y-61121325D01*
X233744948Y-61121325D02*
X233602091Y-61168944D01*
X233602091Y-61168944D02*
X233363996Y-61168944D01*
X234887805Y-61168944D02*
X234316377Y-61168944D01*
X234602091Y-61168944D02*
X234602091Y-60168944D01*
X234602091Y-60168944D02*
X234506853Y-60311801D01*
X234506853Y-60311801D02*
X234411615Y-60407039D01*
X234411615Y-60407039D02*
X234316377Y-60454658D01*
X235506853Y-60168944D02*
X235602091Y-60168944D01*
X235602091Y-60168944D02*
X235697329Y-60216563D01*
X235697329Y-60216563D02*
X235744948Y-60264182D01*
X235744948Y-60264182D02*
X235792567Y-60359420D01*
X235792567Y-60359420D02*
X235840186Y-60549896D01*
X235840186Y-60549896D02*
X235840186Y-60787991D01*
X235840186Y-60787991D02*
X235792567Y-60978467D01*
X235792567Y-60978467D02*
X235744948Y-61073705D01*
X235744948Y-61073705D02*
X235697329Y-61121325D01*
X235697329Y-61121325D02*
X235602091Y-61168944D01*
X235602091Y-61168944D02*
X235506853Y-61168944D01*
X235506853Y-61168944D02*
X235411615Y-61121325D01*
X235411615Y-61121325D02*
X235363996Y-61073705D01*
X235363996Y-61073705D02*
X235316377Y-60978467D01*
X235316377Y-60978467D02*
X235268758Y-60787991D01*
X235268758Y-60787991D02*
X235268758Y-60549896D01*
X235268758Y-60549896D02*
X235316377Y-60359420D01*
X235316377Y-60359420D02*
X235363996Y-60264182D01*
X235363996Y-60264182D02*
X235411615Y-60216563D01*
X235411615Y-60216563D02*
X235506853Y-60168944D01*
X229236377Y-61538944D02*
X229236377Y-60538944D01*
X229807805Y-61538944D02*
X229379234Y-60967515D01*
X229807805Y-60538944D02*
X229236377Y-61110372D01*
X179501615Y-37093705D02*
X179453996Y-37141325D01*
X179453996Y-37141325D02*
X179311139Y-37188944D01*
X179311139Y-37188944D02*
X179215901Y-37188944D01*
X179215901Y-37188944D02*
X179073044Y-37141325D01*
X179073044Y-37141325D02*
X178977806Y-37046086D01*
X178977806Y-37046086D02*
X178930187Y-36950848D01*
X178930187Y-36950848D02*
X178882568Y-36760372D01*
X178882568Y-36760372D02*
X178882568Y-36617515D01*
X178882568Y-36617515D02*
X178930187Y-36427039D01*
X178930187Y-36427039D02*
X178977806Y-36331801D01*
X178977806Y-36331801D02*
X179073044Y-36236563D01*
X179073044Y-36236563D02*
X179215901Y-36188944D01*
X179215901Y-36188944D02*
X179311139Y-36188944D01*
X179311139Y-36188944D02*
X179453996Y-36236563D01*
X179453996Y-36236563D02*
X179501615Y-36284182D01*
X179977806Y-37188944D02*
X180168282Y-37188944D01*
X180168282Y-37188944D02*
X180263520Y-37141325D01*
X180263520Y-37141325D02*
X180311139Y-37093705D01*
X180311139Y-37093705D02*
X180406377Y-36950848D01*
X180406377Y-36950848D02*
X180453996Y-36760372D01*
X180453996Y-36760372D02*
X180453996Y-36379420D01*
X180453996Y-36379420D02*
X180406377Y-36284182D01*
X180406377Y-36284182D02*
X180358758Y-36236563D01*
X180358758Y-36236563D02*
X180263520Y-36188944D01*
X180263520Y-36188944D02*
X180073044Y-36188944D01*
X180073044Y-36188944D02*
X179977806Y-36236563D01*
X179977806Y-36236563D02*
X179930187Y-36284182D01*
X179930187Y-36284182D02*
X179882568Y-36379420D01*
X179882568Y-36379420D02*
X179882568Y-36617515D01*
X179882568Y-36617515D02*
X179930187Y-36712753D01*
X179930187Y-36712753D02*
X179977806Y-36760372D01*
X179977806Y-36760372D02*
X180073044Y-36807991D01*
X180073044Y-36807991D02*
X180263520Y-36807991D01*
X180263520Y-36807991D02*
X180358758Y-36760372D01*
X180358758Y-36760372D02*
X180406377Y-36712753D01*
X180406377Y-36712753D02*
X180453996Y-36617515D01*
X63508339Y-60739363D02*
X63460720Y-60834601D01*
X63460720Y-60834601D02*
X63365482Y-60929839D01*
X63365482Y-60929839D02*
X63222624Y-61072696D01*
X63222624Y-61072696D02*
X63175005Y-61167934D01*
X63175005Y-61167934D02*
X63175005Y-61263172D01*
X63413101Y-61215553D02*
X63365482Y-61310791D01*
X63365482Y-61310791D02*
X63270243Y-61406029D01*
X63270243Y-61406029D02*
X63079767Y-61453648D01*
X63079767Y-61453648D02*
X62746434Y-61453648D01*
X62746434Y-61453648D02*
X62555958Y-61406029D01*
X62555958Y-61406029D02*
X62460720Y-61310791D01*
X62460720Y-61310791D02*
X62413101Y-61215553D01*
X62413101Y-61215553D02*
X62413101Y-61025077D01*
X62413101Y-61025077D02*
X62460720Y-60929839D01*
X62460720Y-60929839D02*
X62555958Y-60834601D01*
X62555958Y-60834601D02*
X62746434Y-60786982D01*
X62746434Y-60786982D02*
X63079767Y-60786982D01*
X63079767Y-60786982D02*
X63270243Y-60834601D01*
X63270243Y-60834601D02*
X63365482Y-60929839D01*
X63365482Y-60929839D02*
X63413101Y-61025077D01*
X63413101Y-61025077D02*
X63413101Y-61215553D01*
X62508339Y-60406029D02*
X62460720Y-60358410D01*
X62460720Y-60358410D02*
X62413101Y-60263172D01*
X62413101Y-60263172D02*
X62413101Y-60025077D01*
X62413101Y-60025077D02*
X62460720Y-59929839D01*
X62460720Y-59929839D02*
X62508339Y-59882220D01*
X62508339Y-59882220D02*
X62603577Y-59834601D01*
X62603577Y-59834601D02*
X62698815Y-59834601D01*
X62698815Y-59834601D02*
X62841672Y-59882220D01*
X62841672Y-59882220D02*
X63413101Y-60453648D01*
X63413101Y-60453648D02*
X63413101Y-59834601D01*
X180361851Y-18777458D02*
X181076136Y-18777458D01*
X181076136Y-18777458D02*
X181218993Y-18825077D01*
X181218993Y-18825077D02*
X181314232Y-18920315D01*
X181314232Y-18920315D02*
X181361851Y-19063172D01*
X181361851Y-19063172D02*
X181361851Y-19158410D01*
X181361851Y-18253648D02*
X181361851Y-18063172D01*
X181361851Y-18063172D02*
X181314232Y-17967934D01*
X181314232Y-17967934D02*
X181266612Y-17920315D01*
X181266612Y-17920315D02*
X181123755Y-17825077D01*
X181123755Y-17825077D02*
X180933279Y-17777458D01*
X180933279Y-17777458D02*
X180552327Y-17777458D01*
X180552327Y-17777458D02*
X180457089Y-17825077D01*
X180457089Y-17825077D02*
X180409470Y-17872696D01*
X180409470Y-17872696D02*
X180361851Y-17967934D01*
X180361851Y-17967934D02*
X180361851Y-18158410D01*
X180361851Y-18158410D02*
X180409470Y-18253648D01*
X180409470Y-18253648D02*
X180457089Y-18301267D01*
X180457089Y-18301267D02*
X180552327Y-18348886D01*
X180552327Y-18348886D02*
X180790422Y-18348886D01*
X180790422Y-18348886D02*
X180885660Y-18301267D01*
X180885660Y-18301267D02*
X180933279Y-18253648D01*
X180933279Y-18253648D02*
X180980898Y-18158410D01*
X180980898Y-18158410D02*
X180980898Y-17967934D01*
X180980898Y-17967934D02*
X180933279Y-17872696D01*
X180933279Y-17872696D02*
X180885660Y-17825077D01*
X180885660Y-17825077D02*
X180790422Y-17777458D01*
D11*
%TO.C,J2*%
X42907032Y-18444125D02*
G75*
G02*
X31907032Y-18444125I-5500000J0D01*
G01*
X31907032Y-18444125D02*
G75*
G02*
X42907032Y-18444125I5500000J0D01*
G01*
%TO.C,J4*%
X92907032Y-18444125D02*
G75*
G02*
X81907032Y-18444125I-5500000J0D01*
G01*
X81907032Y-18444125D02*
G75*
G02*
X92907032Y-18444125I5500000J0D01*
G01*
%TO.C,J10*%
X222907032Y-18444125D02*
G75*
G02*
X211907032Y-18444125I-5500000J0D01*
G01*
X211907032Y-18444125D02*
G75*
G02*
X222907032Y-18444125I5500000J0D01*
G01*
%TO.C,R6*%
X217588282Y-74974125D02*
X217588282Y-75304125D01*
X217588282Y-77714125D02*
X217588282Y-77384125D01*
X224128282Y-74974125D02*
X217588282Y-74974125D01*
X224128282Y-75304125D02*
X224128282Y-74974125D01*
X224128282Y-77384125D02*
X224128282Y-77714125D01*
X224128282Y-77714125D02*
X217588282Y-77714125D01*
%TO.C,J6*%
X122907032Y-18444125D02*
G75*
G02*
X111907032Y-18444125I-5500000J0D01*
G01*
X111907032Y-18444125D02*
G75*
G02*
X122907032Y-18444125I5500000J0D01*
G01*
%TO.C,J11*%
X242907032Y-18444125D02*
G75*
G02*
X231907032Y-18444125I-5500000J0D01*
G01*
X231907032Y-18444125D02*
G75*
G02*
X242907032Y-18444125I5500000J0D01*
G01*
%TO.C,C11*%
X224188636Y-40109125D02*
X225188636Y-40109125D01*
X224688636Y-39609125D02*
X224688636Y-40609125D01*
X229668282Y-37904125D02*
X229668282Y-48064125D01*
X229708282Y-37904125D02*
X229708282Y-48064125D01*
X229748282Y-37905125D02*
X229748282Y-48063125D01*
X229788282Y-37905125D02*
X229788282Y-48063125D01*
X229828282Y-37907125D02*
X229828282Y-48061125D01*
X229868282Y-37908125D02*
X229868282Y-48060125D01*
X229908282Y-37910125D02*
X229908282Y-48058125D01*
X229948282Y-37912125D02*
X229948282Y-48056125D01*
X229988282Y-37914125D02*
X229988282Y-48054125D01*
X230028282Y-37917125D02*
X230028282Y-48051125D01*
X230068282Y-37920125D02*
X230068282Y-48048125D01*
X230108282Y-37923125D02*
X230108282Y-48045125D01*
X230148282Y-37927125D02*
X230148282Y-48041125D01*
X230188282Y-37930125D02*
X230188282Y-48038125D01*
X230228282Y-37935125D02*
X230228282Y-48033125D01*
X230268282Y-37939125D02*
X230268282Y-48029125D01*
X230308282Y-37944125D02*
X230308282Y-48024125D01*
X230348282Y-37949125D02*
X230348282Y-48019125D01*
X230388282Y-37955125D02*
X230388282Y-48013125D01*
X230428282Y-37961125D02*
X230428282Y-48007125D01*
X230468282Y-37967125D02*
X230468282Y-48001125D01*
X230508282Y-37973125D02*
X230508282Y-47995125D01*
X230548282Y-37980125D02*
X230548282Y-47988125D01*
X230588282Y-37987125D02*
X230588282Y-47981125D01*
X230628282Y-37995125D02*
X230628282Y-47973125D01*
X230668282Y-38003125D02*
X230668282Y-47965125D01*
X230708282Y-38011125D02*
X230708282Y-47957125D01*
X230748282Y-38019125D02*
X230748282Y-47949125D01*
X230788282Y-38028125D02*
X230788282Y-47940125D01*
X230828282Y-38037125D02*
X230828282Y-47931125D01*
X230868282Y-38047125D02*
X230868282Y-47921125D01*
X230908282Y-38056125D02*
X230908282Y-47912125D01*
X230948282Y-38067125D02*
X230948282Y-41744125D01*
X230948282Y-44224125D02*
X230948282Y-47901125D01*
X230988282Y-38077125D02*
X230988282Y-41744125D01*
X230988282Y-44224125D02*
X230988282Y-47891125D01*
X231028282Y-38088125D02*
X231028282Y-41744125D01*
X231028282Y-44224125D02*
X231028282Y-47880125D01*
X231068282Y-38099125D02*
X231068282Y-41744125D01*
X231068282Y-44224125D02*
X231068282Y-47869125D01*
X231108282Y-38111125D02*
X231108282Y-41744125D01*
X231108282Y-44224125D02*
X231108282Y-47857125D01*
X231148282Y-38123125D02*
X231148282Y-41744125D01*
X231148282Y-44224125D02*
X231148282Y-47845125D01*
X231188282Y-38135125D02*
X231188282Y-41744125D01*
X231188282Y-44224125D02*
X231188282Y-47833125D01*
X231228282Y-38147125D02*
X231228282Y-41744125D01*
X231228282Y-44224125D02*
X231228282Y-47821125D01*
X231268282Y-38160125D02*
X231268282Y-41744125D01*
X231268282Y-44224125D02*
X231268282Y-47808125D01*
X231308282Y-38174125D02*
X231308282Y-41744125D01*
X231308282Y-44224125D02*
X231308282Y-47794125D01*
X231348282Y-38187125D02*
X231348282Y-41744125D01*
X231348282Y-44224125D02*
X231348282Y-47781125D01*
X231388282Y-38202125D02*
X231388282Y-41744125D01*
X231388282Y-44224125D02*
X231388282Y-47766125D01*
X231428282Y-38216125D02*
X231428282Y-41744125D01*
X231428282Y-44224125D02*
X231428282Y-47752125D01*
X231468282Y-38231125D02*
X231468282Y-41744125D01*
X231468282Y-44224125D02*
X231468282Y-47737125D01*
X231508282Y-38246125D02*
X231508282Y-41744125D01*
X231508282Y-44224125D02*
X231508282Y-47722125D01*
X231548282Y-38262125D02*
X231548282Y-41744125D01*
X231548282Y-44224125D02*
X231548282Y-47706125D01*
X231588282Y-38278125D02*
X231588282Y-41744125D01*
X231588282Y-44224125D02*
X231588282Y-47690125D01*
X231628282Y-38294125D02*
X231628282Y-41744125D01*
X231628282Y-44224125D02*
X231628282Y-47674125D01*
X231668282Y-38311125D02*
X231668282Y-41744125D01*
X231668282Y-44224125D02*
X231668282Y-47657125D01*
X231708282Y-38328125D02*
X231708282Y-41744125D01*
X231708282Y-44224125D02*
X231708282Y-47640125D01*
X231748282Y-38346125D02*
X231748282Y-41744125D01*
X231748282Y-44224125D02*
X231748282Y-47622125D01*
X231788282Y-38364125D02*
X231788282Y-41744125D01*
X231788282Y-44224125D02*
X231788282Y-47604125D01*
X231828282Y-38382125D02*
X231828282Y-41744125D01*
X231828282Y-44224125D02*
X231828282Y-47586125D01*
X231868282Y-38401125D02*
X231868282Y-41744125D01*
X231868282Y-44224125D02*
X231868282Y-47567125D01*
X231908282Y-38420125D02*
X231908282Y-41744125D01*
X231908282Y-44224125D02*
X231908282Y-47548125D01*
X231948282Y-38440125D02*
X231948282Y-41744125D01*
X231948282Y-44224125D02*
X231948282Y-47528125D01*
X231988282Y-38460125D02*
X231988282Y-41744125D01*
X231988282Y-44224125D02*
X231988282Y-47508125D01*
X232028282Y-38480125D02*
X232028282Y-41744125D01*
X232028282Y-44224125D02*
X232028282Y-47488125D01*
X232068282Y-38501125D02*
X232068282Y-41744125D01*
X232068282Y-44224125D02*
X232068282Y-47467125D01*
X232108282Y-38523125D02*
X232108282Y-41744125D01*
X232108282Y-44224125D02*
X232108282Y-47445125D01*
X232148282Y-38545125D02*
X232148282Y-41744125D01*
X232148282Y-44224125D02*
X232148282Y-47423125D01*
X232188282Y-38567125D02*
X232188282Y-41744125D01*
X232188282Y-44224125D02*
X232188282Y-47401125D01*
X232228282Y-38590125D02*
X232228282Y-41744125D01*
X232228282Y-44224125D02*
X232228282Y-47378125D01*
X232268282Y-38613125D02*
X232268282Y-41744125D01*
X232268282Y-44224125D02*
X232268282Y-47355125D01*
X232308282Y-38637125D02*
X232308282Y-41744125D01*
X232308282Y-44224125D02*
X232308282Y-47331125D01*
X232348282Y-38661125D02*
X232348282Y-41744125D01*
X232348282Y-44224125D02*
X232348282Y-47307125D01*
X232388282Y-38686125D02*
X232388282Y-41744125D01*
X232388282Y-44224125D02*
X232388282Y-47282125D01*
X232428282Y-38712125D02*
X232428282Y-41744125D01*
X232428282Y-44224125D02*
X232428282Y-47256125D01*
X232468282Y-38737125D02*
X232468282Y-41744125D01*
X232468282Y-44224125D02*
X232468282Y-47231125D01*
X232508282Y-38764125D02*
X232508282Y-41744125D01*
X232508282Y-44224125D02*
X232508282Y-47204125D01*
X232548282Y-38791125D02*
X232548282Y-41744125D01*
X232548282Y-44224125D02*
X232548282Y-47177125D01*
X232588282Y-38818125D02*
X232588282Y-41744125D01*
X232588282Y-44224125D02*
X232588282Y-47150125D01*
X232628282Y-38846125D02*
X232628282Y-41744125D01*
X232628282Y-44224125D02*
X232628282Y-47122125D01*
X232668282Y-38875125D02*
X232668282Y-41744125D01*
X232668282Y-44224125D02*
X232668282Y-47093125D01*
X232708282Y-38904125D02*
X232708282Y-41744125D01*
X232708282Y-44224125D02*
X232708282Y-47064125D01*
X232748282Y-38934125D02*
X232748282Y-41744125D01*
X232748282Y-44224125D02*
X232748282Y-47034125D01*
X232788282Y-38964125D02*
X232788282Y-41744125D01*
X232788282Y-44224125D02*
X232788282Y-47004125D01*
X232828282Y-38996125D02*
X232828282Y-41744125D01*
X232828282Y-44224125D02*
X232828282Y-46972125D01*
X232868282Y-39027125D02*
X232868282Y-41744125D01*
X232868282Y-44224125D02*
X232868282Y-46941125D01*
X232908282Y-39060125D02*
X232908282Y-41744125D01*
X232908282Y-44224125D02*
X232908282Y-46908125D01*
X232948282Y-39093125D02*
X232948282Y-41744125D01*
X232948282Y-44224125D02*
X232948282Y-46875125D01*
X232988282Y-39126125D02*
X232988282Y-41744125D01*
X232988282Y-44224125D02*
X232988282Y-46842125D01*
X233028282Y-39161125D02*
X233028282Y-41744125D01*
X233028282Y-44224125D02*
X233028282Y-46807125D01*
X233068282Y-39196125D02*
X233068282Y-41744125D01*
X233068282Y-44224125D02*
X233068282Y-46772125D01*
X233108282Y-39232125D02*
X233108282Y-41744125D01*
X233108282Y-44224125D02*
X233108282Y-46736125D01*
X233148282Y-39268125D02*
X233148282Y-41744125D01*
X233148282Y-44224125D02*
X233148282Y-46700125D01*
X233188282Y-39306125D02*
X233188282Y-41744125D01*
X233188282Y-44224125D02*
X233188282Y-46662125D01*
X233228282Y-39344125D02*
X233228282Y-41744125D01*
X233228282Y-44224125D02*
X233228282Y-46624125D01*
X233268282Y-39383125D02*
X233268282Y-41744125D01*
X233268282Y-44224125D02*
X233268282Y-46585125D01*
X233308282Y-39423125D02*
X233308282Y-41744125D01*
X233308282Y-44224125D02*
X233308282Y-46545125D01*
X233348282Y-39464125D02*
X233348282Y-41744125D01*
X233348282Y-44224125D02*
X233348282Y-46504125D01*
X233388282Y-39506125D02*
X233388282Y-41744125D01*
X233388282Y-44224125D02*
X233388282Y-46462125D01*
X233428282Y-39549125D02*
X233428282Y-46419125D01*
X233468282Y-39593125D02*
X233468282Y-46375125D01*
X233508282Y-39637125D02*
X233508282Y-46331125D01*
X233548282Y-39683125D02*
X233548282Y-46285125D01*
X233588282Y-39730125D02*
X233588282Y-46238125D01*
X233628282Y-39779125D02*
X233628282Y-46189125D01*
X233668282Y-39828125D02*
X233668282Y-46140125D01*
X233708282Y-39879125D02*
X233708282Y-46089125D01*
X233748282Y-39931125D02*
X233748282Y-46037125D01*
X233788282Y-39984125D02*
X233788282Y-45984125D01*
X233828282Y-40039125D02*
X233828282Y-45929125D01*
X233868282Y-40096125D02*
X233868282Y-45872125D01*
X233908282Y-40154125D02*
X233908282Y-45814125D01*
X233948282Y-40214125D02*
X233948282Y-45754125D01*
X233988282Y-40276125D02*
X233988282Y-45692125D01*
X234028282Y-40340125D02*
X234028282Y-45628125D01*
X234068282Y-40406125D02*
X234068282Y-45562125D01*
X234108282Y-40474125D02*
X234108282Y-45494125D01*
X234148282Y-40545125D02*
X234148282Y-45423125D01*
X234188282Y-40619125D02*
X234188282Y-45349125D01*
X234228282Y-40696125D02*
X234228282Y-45272125D01*
X234268282Y-40776125D02*
X234268282Y-45192125D01*
X234308282Y-40860125D02*
X234308282Y-45108125D01*
X234348282Y-40947125D02*
X234348282Y-45021125D01*
X234388282Y-41040125D02*
X234388282Y-44928125D01*
X234428282Y-41138125D02*
X234428282Y-44830125D01*
X234468282Y-41242125D02*
X234468282Y-44726125D01*
X234508282Y-41354125D02*
X234508282Y-44614125D01*
X234548282Y-41475125D02*
X234548282Y-44493125D01*
X234588282Y-41607125D02*
X234588282Y-44361125D01*
X234628282Y-41754125D02*
X234628282Y-44214125D01*
X234668282Y-41922125D02*
X234668282Y-44046125D01*
X234708282Y-42122125D02*
X234708282Y-43846125D01*
X234748282Y-42385125D02*
X234748282Y-43583125D01*
X234788282Y-42984125D02*
G75*
G02*
X224548282Y-42984125I-5120000J0D01*
G01*
X224548282Y-42984125D02*
G75*
G02*
X234788282Y-42984125I5120000J0D01*
G01*
%TO.C,J5*%
X68064532Y-121545000D02*
X78104532Y-121545000D01*
X68064532Y-123905000D02*
X68064532Y-121545000D01*
X68064532Y-131945000D02*
X68064532Y-124505000D01*
X68684532Y-121545000D02*
X68684532Y-131945000D01*
X70184532Y-121545000D02*
X70184532Y-131945000D01*
X75084532Y-121545000D02*
X75084532Y-131945000D01*
X78104532Y-121545000D02*
X78104532Y-131945000D01*
X78104532Y-131945000D02*
X68064532Y-131945000D01*
X68064532Y-124205000D02*
X67454532Y-124645000D01*
X67454532Y-123765000D01*
X68064532Y-124205000D01*
G36*
X68064532Y-124205000D02*
G01*
X67454532Y-124645000D01*
X67454532Y-123765000D01*
X68064532Y-124205000D01*
G37*
%TO.C,R4*%
X117588282Y-74974125D02*
X117588282Y-75304125D01*
X117588282Y-77714125D02*
X117588282Y-77384125D01*
X124128282Y-74974125D02*
X117588282Y-74974125D01*
X124128282Y-75304125D02*
X124128282Y-74974125D01*
X124128282Y-77384125D02*
X124128282Y-77714125D01*
X124128282Y-77714125D02*
X117588282Y-77714125D01*
%TO.C,C4*%
X81688636Y-73469125D02*
X82688636Y-73469125D01*
X82188636Y-72969125D02*
X82188636Y-73969125D01*
X87168282Y-71264125D02*
X87168282Y-81424125D01*
X87208282Y-71264125D02*
X87208282Y-81424125D01*
X87248282Y-71265125D02*
X87248282Y-81423125D01*
X87288282Y-71265125D02*
X87288282Y-81423125D01*
X87328282Y-71267125D02*
X87328282Y-81421125D01*
X87368282Y-71268125D02*
X87368282Y-81420125D01*
X87408282Y-71270125D02*
X87408282Y-81418125D01*
X87448282Y-71272125D02*
X87448282Y-81416125D01*
X87488282Y-71274125D02*
X87488282Y-81414125D01*
X87528282Y-71277125D02*
X87528282Y-81411125D01*
X87568282Y-71280125D02*
X87568282Y-81408125D01*
X87608282Y-71283125D02*
X87608282Y-81405125D01*
X87648282Y-71287125D02*
X87648282Y-81401125D01*
X87688282Y-71290125D02*
X87688282Y-81398125D01*
X87728282Y-71295125D02*
X87728282Y-81393125D01*
X87768282Y-71299125D02*
X87768282Y-81389125D01*
X87808282Y-71304125D02*
X87808282Y-81384125D01*
X87848282Y-71309125D02*
X87848282Y-81379125D01*
X87888282Y-71315125D02*
X87888282Y-81373125D01*
X87928282Y-71321125D02*
X87928282Y-81367125D01*
X87968282Y-71327125D02*
X87968282Y-81361125D01*
X88008282Y-71333125D02*
X88008282Y-81355125D01*
X88048282Y-71340125D02*
X88048282Y-81348125D01*
X88088282Y-71347125D02*
X88088282Y-81341125D01*
X88128282Y-71355125D02*
X88128282Y-81333125D01*
X88168282Y-71363125D02*
X88168282Y-81325125D01*
X88208282Y-71371125D02*
X88208282Y-81317125D01*
X88248282Y-71379125D02*
X88248282Y-81309125D01*
X88288282Y-71388125D02*
X88288282Y-81300125D01*
X88328282Y-71397125D02*
X88328282Y-81291125D01*
X88368282Y-71407125D02*
X88368282Y-81281125D01*
X88408282Y-71416125D02*
X88408282Y-81272125D01*
X88448282Y-71427125D02*
X88448282Y-75104125D01*
X88448282Y-77584125D02*
X88448282Y-81261125D01*
X88488282Y-71437125D02*
X88488282Y-75104125D01*
X88488282Y-77584125D02*
X88488282Y-81251125D01*
X88528282Y-71448125D02*
X88528282Y-75104125D01*
X88528282Y-77584125D02*
X88528282Y-81240125D01*
X88568282Y-71459125D02*
X88568282Y-75104125D01*
X88568282Y-77584125D02*
X88568282Y-81229125D01*
X88608282Y-71471125D02*
X88608282Y-75104125D01*
X88608282Y-77584125D02*
X88608282Y-81217125D01*
X88648282Y-71483125D02*
X88648282Y-75104125D01*
X88648282Y-77584125D02*
X88648282Y-81205125D01*
X88688282Y-71495125D02*
X88688282Y-75104125D01*
X88688282Y-77584125D02*
X88688282Y-81193125D01*
X88728282Y-71507125D02*
X88728282Y-75104125D01*
X88728282Y-77584125D02*
X88728282Y-81181125D01*
X88768282Y-71520125D02*
X88768282Y-75104125D01*
X88768282Y-77584125D02*
X88768282Y-81168125D01*
X88808282Y-71534125D02*
X88808282Y-75104125D01*
X88808282Y-77584125D02*
X88808282Y-81154125D01*
X88848282Y-71547125D02*
X88848282Y-75104125D01*
X88848282Y-77584125D02*
X88848282Y-81141125D01*
X88888282Y-71562125D02*
X88888282Y-75104125D01*
X88888282Y-77584125D02*
X88888282Y-81126125D01*
X88928282Y-71576125D02*
X88928282Y-75104125D01*
X88928282Y-77584125D02*
X88928282Y-81112125D01*
X88968282Y-71591125D02*
X88968282Y-75104125D01*
X88968282Y-77584125D02*
X88968282Y-81097125D01*
X89008282Y-71606125D02*
X89008282Y-75104125D01*
X89008282Y-77584125D02*
X89008282Y-81082125D01*
X89048282Y-71622125D02*
X89048282Y-75104125D01*
X89048282Y-77584125D02*
X89048282Y-81066125D01*
X89088282Y-71638125D02*
X89088282Y-75104125D01*
X89088282Y-77584125D02*
X89088282Y-81050125D01*
X89128282Y-71654125D02*
X89128282Y-75104125D01*
X89128282Y-77584125D02*
X89128282Y-81034125D01*
X89168282Y-71671125D02*
X89168282Y-75104125D01*
X89168282Y-77584125D02*
X89168282Y-81017125D01*
X89208282Y-71688125D02*
X89208282Y-75104125D01*
X89208282Y-77584125D02*
X89208282Y-81000125D01*
X89248282Y-71706125D02*
X89248282Y-75104125D01*
X89248282Y-77584125D02*
X89248282Y-80982125D01*
X89288282Y-71724125D02*
X89288282Y-75104125D01*
X89288282Y-77584125D02*
X89288282Y-80964125D01*
X89328282Y-71742125D02*
X89328282Y-75104125D01*
X89328282Y-77584125D02*
X89328282Y-80946125D01*
X89368282Y-71761125D02*
X89368282Y-75104125D01*
X89368282Y-77584125D02*
X89368282Y-80927125D01*
X89408282Y-71780125D02*
X89408282Y-75104125D01*
X89408282Y-77584125D02*
X89408282Y-80908125D01*
X89448282Y-71800125D02*
X89448282Y-75104125D01*
X89448282Y-77584125D02*
X89448282Y-80888125D01*
X89488282Y-71820125D02*
X89488282Y-75104125D01*
X89488282Y-77584125D02*
X89488282Y-80868125D01*
X89528282Y-71840125D02*
X89528282Y-75104125D01*
X89528282Y-77584125D02*
X89528282Y-80848125D01*
X89568282Y-71861125D02*
X89568282Y-75104125D01*
X89568282Y-77584125D02*
X89568282Y-80827125D01*
X89608282Y-71883125D02*
X89608282Y-75104125D01*
X89608282Y-77584125D02*
X89608282Y-80805125D01*
X89648282Y-71905125D02*
X89648282Y-75104125D01*
X89648282Y-77584125D02*
X89648282Y-80783125D01*
X89688282Y-71927125D02*
X89688282Y-75104125D01*
X89688282Y-77584125D02*
X89688282Y-80761125D01*
X89728282Y-71950125D02*
X89728282Y-75104125D01*
X89728282Y-77584125D02*
X89728282Y-80738125D01*
X89768282Y-71973125D02*
X89768282Y-75104125D01*
X89768282Y-77584125D02*
X89768282Y-80715125D01*
X89808282Y-71997125D02*
X89808282Y-75104125D01*
X89808282Y-77584125D02*
X89808282Y-80691125D01*
X89848282Y-72021125D02*
X89848282Y-75104125D01*
X89848282Y-77584125D02*
X89848282Y-80667125D01*
X89888282Y-72046125D02*
X89888282Y-75104125D01*
X89888282Y-77584125D02*
X89888282Y-80642125D01*
X89928282Y-72072125D02*
X89928282Y-75104125D01*
X89928282Y-77584125D02*
X89928282Y-80616125D01*
X89968282Y-72097125D02*
X89968282Y-75104125D01*
X89968282Y-77584125D02*
X89968282Y-80591125D01*
X90008282Y-72124125D02*
X90008282Y-75104125D01*
X90008282Y-77584125D02*
X90008282Y-80564125D01*
X90048282Y-72151125D02*
X90048282Y-75104125D01*
X90048282Y-77584125D02*
X90048282Y-80537125D01*
X90088282Y-72178125D02*
X90088282Y-75104125D01*
X90088282Y-77584125D02*
X90088282Y-80510125D01*
X90128282Y-72206125D02*
X90128282Y-75104125D01*
X90128282Y-77584125D02*
X90128282Y-80482125D01*
X90168282Y-72235125D02*
X90168282Y-75104125D01*
X90168282Y-77584125D02*
X90168282Y-80453125D01*
X90208282Y-72264125D02*
X90208282Y-75104125D01*
X90208282Y-77584125D02*
X90208282Y-80424125D01*
X90248282Y-72294125D02*
X90248282Y-75104125D01*
X90248282Y-77584125D02*
X90248282Y-80394125D01*
X90288282Y-72324125D02*
X90288282Y-75104125D01*
X90288282Y-77584125D02*
X90288282Y-80364125D01*
X90328282Y-72356125D02*
X90328282Y-75104125D01*
X90328282Y-77584125D02*
X90328282Y-80332125D01*
X90368282Y-72387125D02*
X90368282Y-75104125D01*
X90368282Y-77584125D02*
X90368282Y-80301125D01*
X90408282Y-72420125D02*
X90408282Y-75104125D01*
X90408282Y-77584125D02*
X90408282Y-80268125D01*
X90448282Y-72453125D02*
X90448282Y-75104125D01*
X90448282Y-77584125D02*
X90448282Y-80235125D01*
X90488282Y-72486125D02*
X90488282Y-75104125D01*
X90488282Y-77584125D02*
X90488282Y-80202125D01*
X90528282Y-72521125D02*
X90528282Y-75104125D01*
X90528282Y-77584125D02*
X90528282Y-80167125D01*
X90568282Y-72556125D02*
X90568282Y-75104125D01*
X90568282Y-77584125D02*
X90568282Y-80132125D01*
X90608282Y-72592125D02*
X90608282Y-75104125D01*
X90608282Y-77584125D02*
X90608282Y-80096125D01*
X90648282Y-72628125D02*
X90648282Y-75104125D01*
X90648282Y-77584125D02*
X90648282Y-80060125D01*
X90688282Y-72666125D02*
X90688282Y-75104125D01*
X90688282Y-77584125D02*
X90688282Y-80022125D01*
X90728282Y-72704125D02*
X90728282Y-75104125D01*
X90728282Y-77584125D02*
X90728282Y-79984125D01*
X90768282Y-72743125D02*
X90768282Y-75104125D01*
X90768282Y-77584125D02*
X90768282Y-79945125D01*
X90808282Y-72783125D02*
X90808282Y-75104125D01*
X90808282Y-77584125D02*
X90808282Y-79905125D01*
X90848282Y-72824125D02*
X90848282Y-75104125D01*
X90848282Y-77584125D02*
X90848282Y-79864125D01*
X90888282Y-72866125D02*
X90888282Y-75104125D01*
X90888282Y-77584125D02*
X90888282Y-79822125D01*
X90928282Y-72909125D02*
X90928282Y-79779125D01*
X90968282Y-72953125D02*
X90968282Y-79735125D01*
X91008282Y-72997125D02*
X91008282Y-79691125D01*
X91048282Y-73043125D02*
X91048282Y-79645125D01*
X91088282Y-73090125D02*
X91088282Y-79598125D01*
X91128282Y-73139125D02*
X91128282Y-79549125D01*
X91168282Y-73188125D02*
X91168282Y-79500125D01*
X91208282Y-73239125D02*
X91208282Y-79449125D01*
X91248282Y-73291125D02*
X91248282Y-79397125D01*
X91288282Y-73344125D02*
X91288282Y-79344125D01*
X91328282Y-73399125D02*
X91328282Y-79289125D01*
X91368282Y-73456125D02*
X91368282Y-79232125D01*
X91408282Y-73514125D02*
X91408282Y-79174125D01*
X91448282Y-73574125D02*
X91448282Y-79114125D01*
X91488282Y-73636125D02*
X91488282Y-79052125D01*
X91528282Y-73700125D02*
X91528282Y-78988125D01*
X91568282Y-73766125D02*
X91568282Y-78922125D01*
X91608282Y-73834125D02*
X91608282Y-78854125D01*
X91648282Y-73905125D02*
X91648282Y-78783125D01*
X91688282Y-73979125D02*
X91688282Y-78709125D01*
X91728282Y-74056125D02*
X91728282Y-78632125D01*
X91768282Y-74136125D02*
X91768282Y-78552125D01*
X91808282Y-74220125D02*
X91808282Y-78468125D01*
X91848282Y-74307125D02*
X91848282Y-78381125D01*
X91888282Y-74400125D02*
X91888282Y-78288125D01*
X91928282Y-74498125D02*
X91928282Y-78190125D01*
X91968282Y-74602125D02*
X91968282Y-78086125D01*
X92008282Y-74714125D02*
X92008282Y-77974125D01*
X92048282Y-74835125D02*
X92048282Y-77853125D01*
X92088282Y-74967125D02*
X92088282Y-77721125D01*
X92128282Y-75114125D02*
X92128282Y-77574125D01*
X92168282Y-75282125D02*
X92168282Y-77406125D01*
X92208282Y-75482125D02*
X92208282Y-77206125D01*
X92248282Y-75745125D02*
X92248282Y-76943125D01*
X92288282Y-76344125D02*
G75*
G02*
X82048282Y-76344125I-5120000J0D01*
G01*
X82048282Y-76344125D02*
G75*
G02*
X92288282Y-76344125I5120000J0D01*
G01*
%TO.C,C5*%
X74188636Y-40109125D02*
X75188636Y-40109125D01*
X74688636Y-39609125D02*
X74688636Y-40609125D01*
X79668282Y-37904125D02*
X79668282Y-48064125D01*
X79708282Y-37904125D02*
X79708282Y-48064125D01*
X79748282Y-37905125D02*
X79748282Y-48063125D01*
X79788282Y-37905125D02*
X79788282Y-48063125D01*
X79828282Y-37907125D02*
X79828282Y-48061125D01*
X79868282Y-37908125D02*
X79868282Y-48060125D01*
X79908282Y-37910125D02*
X79908282Y-48058125D01*
X79948282Y-37912125D02*
X79948282Y-48056125D01*
X79988282Y-37914125D02*
X79988282Y-48054125D01*
X80028282Y-37917125D02*
X80028282Y-48051125D01*
X80068282Y-37920125D02*
X80068282Y-48048125D01*
X80108282Y-37923125D02*
X80108282Y-48045125D01*
X80148282Y-37927125D02*
X80148282Y-48041125D01*
X80188282Y-37930125D02*
X80188282Y-48038125D01*
X80228282Y-37935125D02*
X80228282Y-48033125D01*
X80268282Y-37939125D02*
X80268282Y-48029125D01*
X80308282Y-37944125D02*
X80308282Y-48024125D01*
X80348282Y-37949125D02*
X80348282Y-48019125D01*
X80388282Y-37955125D02*
X80388282Y-48013125D01*
X80428282Y-37961125D02*
X80428282Y-48007125D01*
X80468282Y-37967125D02*
X80468282Y-48001125D01*
X80508282Y-37973125D02*
X80508282Y-47995125D01*
X80548282Y-37980125D02*
X80548282Y-47988125D01*
X80588282Y-37987125D02*
X80588282Y-47981125D01*
X80628282Y-37995125D02*
X80628282Y-47973125D01*
X80668282Y-38003125D02*
X80668282Y-47965125D01*
X80708282Y-38011125D02*
X80708282Y-47957125D01*
X80748282Y-38019125D02*
X80748282Y-47949125D01*
X80788282Y-38028125D02*
X80788282Y-47940125D01*
X80828282Y-38037125D02*
X80828282Y-47931125D01*
X80868282Y-38047125D02*
X80868282Y-47921125D01*
X80908282Y-38056125D02*
X80908282Y-47912125D01*
X80948282Y-38067125D02*
X80948282Y-41744125D01*
X80948282Y-44224125D02*
X80948282Y-47901125D01*
X80988282Y-38077125D02*
X80988282Y-41744125D01*
X80988282Y-44224125D02*
X80988282Y-47891125D01*
X81028282Y-38088125D02*
X81028282Y-41744125D01*
X81028282Y-44224125D02*
X81028282Y-47880125D01*
X81068282Y-38099125D02*
X81068282Y-41744125D01*
X81068282Y-44224125D02*
X81068282Y-47869125D01*
X81108282Y-38111125D02*
X81108282Y-41744125D01*
X81108282Y-44224125D02*
X81108282Y-47857125D01*
X81148282Y-38123125D02*
X81148282Y-41744125D01*
X81148282Y-44224125D02*
X81148282Y-47845125D01*
X81188282Y-38135125D02*
X81188282Y-41744125D01*
X81188282Y-44224125D02*
X81188282Y-47833125D01*
X81228282Y-38147125D02*
X81228282Y-41744125D01*
X81228282Y-44224125D02*
X81228282Y-47821125D01*
X81268282Y-38160125D02*
X81268282Y-41744125D01*
X81268282Y-44224125D02*
X81268282Y-47808125D01*
X81308282Y-38174125D02*
X81308282Y-41744125D01*
X81308282Y-44224125D02*
X81308282Y-47794125D01*
X81348282Y-38187125D02*
X81348282Y-41744125D01*
X81348282Y-44224125D02*
X81348282Y-47781125D01*
X81388282Y-38202125D02*
X81388282Y-41744125D01*
X81388282Y-44224125D02*
X81388282Y-47766125D01*
X81428282Y-38216125D02*
X81428282Y-41744125D01*
X81428282Y-44224125D02*
X81428282Y-47752125D01*
X81468282Y-38231125D02*
X81468282Y-41744125D01*
X81468282Y-44224125D02*
X81468282Y-47737125D01*
X81508282Y-38246125D02*
X81508282Y-41744125D01*
X81508282Y-44224125D02*
X81508282Y-47722125D01*
X81548282Y-38262125D02*
X81548282Y-41744125D01*
X81548282Y-44224125D02*
X81548282Y-47706125D01*
X81588282Y-38278125D02*
X81588282Y-41744125D01*
X81588282Y-44224125D02*
X81588282Y-47690125D01*
X81628282Y-38294125D02*
X81628282Y-41744125D01*
X81628282Y-44224125D02*
X81628282Y-47674125D01*
X81668282Y-38311125D02*
X81668282Y-41744125D01*
X81668282Y-44224125D02*
X81668282Y-47657125D01*
X81708282Y-38328125D02*
X81708282Y-41744125D01*
X81708282Y-44224125D02*
X81708282Y-47640125D01*
X81748282Y-38346125D02*
X81748282Y-41744125D01*
X81748282Y-44224125D02*
X81748282Y-47622125D01*
X81788282Y-38364125D02*
X81788282Y-41744125D01*
X81788282Y-44224125D02*
X81788282Y-47604125D01*
X81828282Y-38382125D02*
X81828282Y-41744125D01*
X81828282Y-44224125D02*
X81828282Y-47586125D01*
X81868282Y-38401125D02*
X81868282Y-41744125D01*
X81868282Y-44224125D02*
X81868282Y-47567125D01*
X81908282Y-38420125D02*
X81908282Y-41744125D01*
X81908282Y-44224125D02*
X81908282Y-47548125D01*
X81948282Y-38440125D02*
X81948282Y-41744125D01*
X81948282Y-44224125D02*
X81948282Y-47528125D01*
X81988282Y-38460125D02*
X81988282Y-41744125D01*
X81988282Y-44224125D02*
X81988282Y-47508125D01*
X82028282Y-38480125D02*
X82028282Y-41744125D01*
X82028282Y-44224125D02*
X82028282Y-47488125D01*
X82068282Y-38501125D02*
X82068282Y-41744125D01*
X82068282Y-44224125D02*
X82068282Y-47467125D01*
X82108282Y-38523125D02*
X82108282Y-41744125D01*
X82108282Y-44224125D02*
X82108282Y-47445125D01*
X82148282Y-38545125D02*
X82148282Y-41744125D01*
X82148282Y-44224125D02*
X82148282Y-47423125D01*
X82188282Y-38567125D02*
X82188282Y-41744125D01*
X82188282Y-44224125D02*
X82188282Y-47401125D01*
X82228282Y-38590125D02*
X82228282Y-41744125D01*
X82228282Y-44224125D02*
X82228282Y-47378125D01*
X82268282Y-38613125D02*
X82268282Y-41744125D01*
X82268282Y-44224125D02*
X82268282Y-47355125D01*
X82308282Y-38637125D02*
X82308282Y-41744125D01*
X82308282Y-44224125D02*
X82308282Y-47331125D01*
X82348282Y-38661125D02*
X82348282Y-41744125D01*
X82348282Y-44224125D02*
X82348282Y-47307125D01*
X82388282Y-38686125D02*
X82388282Y-41744125D01*
X82388282Y-44224125D02*
X82388282Y-47282125D01*
X82428282Y-38712125D02*
X82428282Y-41744125D01*
X82428282Y-44224125D02*
X82428282Y-47256125D01*
X82468282Y-38737125D02*
X82468282Y-41744125D01*
X82468282Y-44224125D02*
X82468282Y-47231125D01*
X82508282Y-38764125D02*
X82508282Y-41744125D01*
X82508282Y-44224125D02*
X82508282Y-47204125D01*
X82548282Y-38791125D02*
X82548282Y-41744125D01*
X82548282Y-44224125D02*
X82548282Y-47177125D01*
X82588282Y-38818125D02*
X82588282Y-41744125D01*
X82588282Y-44224125D02*
X82588282Y-47150125D01*
X82628282Y-38846125D02*
X82628282Y-41744125D01*
X82628282Y-44224125D02*
X82628282Y-47122125D01*
X82668282Y-38875125D02*
X82668282Y-41744125D01*
X82668282Y-44224125D02*
X82668282Y-47093125D01*
X82708282Y-38904125D02*
X82708282Y-41744125D01*
X82708282Y-44224125D02*
X82708282Y-47064125D01*
X82748282Y-38934125D02*
X82748282Y-41744125D01*
X82748282Y-44224125D02*
X82748282Y-47034125D01*
X82788282Y-38964125D02*
X82788282Y-41744125D01*
X82788282Y-44224125D02*
X82788282Y-47004125D01*
X82828282Y-38996125D02*
X82828282Y-41744125D01*
X82828282Y-44224125D02*
X82828282Y-46972125D01*
X82868282Y-39027125D02*
X82868282Y-41744125D01*
X82868282Y-44224125D02*
X82868282Y-46941125D01*
X82908282Y-39060125D02*
X82908282Y-41744125D01*
X82908282Y-44224125D02*
X82908282Y-46908125D01*
X82948282Y-39093125D02*
X82948282Y-41744125D01*
X82948282Y-44224125D02*
X82948282Y-46875125D01*
X82988282Y-39126125D02*
X82988282Y-41744125D01*
X82988282Y-44224125D02*
X82988282Y-46842125D01*
X83028282Y-39161125D02*
X83028282Y-41744125D01*
X83028282Y-44224125D02*
X83028282Y-46807125D01*
X83068282Y-39196125D02*
X83068282Y-41744125D01*
X83068282Y-44224125D02*
X83068282Y-46772125D01*
X83108282Y-39232125D02*
X83108282Y-41744125D01*
X83108282Y-44224125D02*
X83108282Y-46736125D01*
X83148282Y-39268125D02*
X83148282Y-41744125D01*
X83148282Y-44224125D02*
X83148282Y-46700125D01*
X83188282Y-39306125D02*
X83188282Y-41744125D01*
X83188282Y-44224125D02*
X83188282Y-46662125D01*
X83228282Y-39344125D02*
X83228282Y-41744125D01*
X83228282Y-44224125D02*
X83228282Y-46624125D01*
X83268282Y-39383125D02*
X83268282Y-41744125D01*
X83268282Y-44224125D02*
X83268282Y-46585125D01*
X83308282Y-39423125D02*
X83308282Y-41744125D01*
X83308282Y-44224125D02*
X83308282Y-46545125D01*
X83348282Y-39464125D02*
X83348282Y-41744125D01*
X83348282Y-44224125D02*
X83348282Y-46504125D01*
X83388282Y-39506125D02*
X83388282Y-41744125D01*
X83388282Y-44224125D02*
X83388282Y-46462125D01*
X83428282Y-39549125D02*
X83428282Y-46419125D01*
X83468282Y-39593125D02*
X83468282Y-46375125D01*
X83508282Y-39637125D02*
X83508282Y-46331125D01*
X83548282Y-39683125D02*
X83548282Y-46285125D01*
X83588282Y-39730125D02*
X83588282Y-46238125D01*
X83628282Y-39779125D02*
X83628282Y-46189125D01*
X83668282Y-39828125D02*
X83668282Y-46140125D01*
X83708282Y-39879125D02*
X83708282Y-46089125D01*
X83748282Y-39931125D02*
X83748282Y-46037125D01*
X83788282Y-39984125D02*
X83788282Y-45984125D01*
X83828282Y-40039125D02*
X83828282Y-45929125D01*
X83868282Y-40096125D02*
X83868282Y-45872125D01*
X83908282Y-40154125D02*
X83908282Y-45814125D01*
X83948282Y-40214125D02*
X83948282Y-45754125D01*
X83988282Y-40276125D02*
X83988282Y-45692125D01*
X84028282Y-40340125D02*
X84028282Y-45628125D01*
X84068282Y-40406125D02*
X84068282Y-45562125D01*
X84108282Y-40474125D02*
X84108282Y-45494125D01*
X84148282Y-40545125D02*
X84148282Y-45423125D01*
X84188282Y-40619125D02*
X84188282Y-45349125D01*
X84228282Y-40696125D02*
X84228282Y-45272125D01*
X84268282Y-40776125D02*
X84268282Y-45192125D01*
X84308282Y-40860125D02*
X84308282Y-45108125D01*
X84348282Y-40947125D02*
X84348282Y-45021125D01*
X84388282Y-41040125D02*
X84388282Y-44928125D01*
X84428282Y-41138125D02*
X84428282Y-44830125D01*
X84468282Y-41242125D02*
X84468282Y-44726125D01*
X84508282Y-41354125D02*
X84508282Y-44614125D01*
X84548282Y-41475125D02*
X84548282Y-44493125D01*
X84588282Y-41607125D02*
X84588282Y-44361125D01*
X84628282Y-41754125D02*
X84628282Y-44214125D01*
X84668282Y-41922125D02*
X84668282Y-44046125D01*
X84708282Y-42122125D02*
X84708282Y-43846125D01*
X84748282Y-42385125D02*
X84748282Y-43583125D01*
X84788282Y-42984125D02*
G75*
G02*
X74548282Y-42984125I-5120000J0D01*
G01*
X74548282Y-42984125D02*
G75*
G02*
X84788282Y-42984125I5120000J0D01*
G01*
%TO.C,Q3*%
X113798282Y-55534125D02*
X118418282Y-55534125D01*
X113798282Y-58794125D02*
X115178282Y-58794125D01*
X113798282Y-62494125D02*
X115178282Y-62494125D01*
X113798282Y-65754125D02*
X113798282Y-55534125D01*
X115178282Y-65754125D02*
X115178282Y-55534125D01*
X118418282Y-55534125D02*
X118418282Y-65754125D01*
X118418282Y-65754125D02*
X113798282Y-65754125D01*
%TO.C,C2*%
X31688636Y-73469125D02*
X32688636Y-73469125D01*
X32188636Y-72969125D02*
X32188636Y-73969125D01*
X37168282Y-71264125D02*
X37168282Y-81424125D01*
X37208282Y-71264125D02*
X37208282Y-81424125D01*
X37248282Y-71265125D02*
X37248282Y-81423125D01*
X37288282Y-71265125D02*
X37288282Y-81423125D01*
X37328282Y-71267125D02*
X37328282Y-81421125D01*
X37368282Y-71268125D02*
X37368282Y-81420125D01*
X37408282Y-71270125D02*
X37408282Y-81418125D01*
X37448282Y-71272125D02*
X37448282Y-81416125D01*
X37488282Y-71274125D02*
X37488282Y-81414125D01*
X37528282Y-71277125D02*
X37528282Y-81411125D01*
X37568282Y-71280125D02*
X37568282Y-81408125D01*
X37608282Y-71283125D02*
X37608282Y-81405125D01*
X37648282Y-71287125D02*
X37648282Y-81401125D01*
X37688282Y-71290125D02*
X37688282Y-81398125D01*
X37728282Y-71295125D02*
X37728282Y-81393125D01*
X37768282Y-71299125D02*
X37768282Y-81389125D01*
X37808282Y-71304125D02*
X37808282Y-81384125D01*
X37848282Y-71309125D02*
X37848282Y-81379125D01*
X37888282Y-71315125D02*
X37888282Y-81373125D01*
X37928282Y-71321125D02*
X37928282Y-81367125D01*
X37968282Y-71327125D02*
X37968282Y-81361125D01*
X38008282Y-71333125D02*
X38008282Y-81355125D01*
X38048282Y-71340125D02*
X38048282Y-81348125D01*
X38088282Y-71347125D02*
X38088282Y-81341125D01*
X38128282Y-71355125D02*
X38128282Y-81333125D01*
X38168282Y-71363125D02*
X38168282Y-81325125D01*
X38208282Y-71371125D02*
X38208282Y-81317125D01*
X38248282Y-71379125D02*
X38248282Y-81309125D01*
X38288282Y-71388125D02*
X38288282Y-81300125D01*
X38328282Y-71397125D02*
X38328282Y-81291125D01*
X38368282Y-71407125D02*
X38368282Y-81281125D01*
X38408282Y-71416125D02*
X38408282Y-81272125D01*
X38448282Y-71427125D02*
X38448282Y-75104125D01*
X38448282Y-77584125D02*
X38448282Y-81261125D01*
X38488282Y-71437125D02*
X38488282Y-75104125D01*
X38488282Y-77584125D02*
X38488282Y-81251125D01*
X38528282Y-71448125D02*
X38528282Y-75104125D01*
X38528282Y-77584125D02*
X38528282Y-81240125D01*
X38568282Y-71459125D02*
X38568282Y-75104125D01*
X38568282Y-77584125D02*
X38568282Y-81229125D01*
X38608282Y-71471125D02*
X38608282Y-75104125D01*
X38608282Y-77584125D02*
X38608282Y-81217125D01*
X38648282Y-71483125D02*
X38648282Y-75104125D01*
X38648282Y-77584125D02*
X38648282Y-81205125D01*
X38688282Y-71495125D02*
X38688282Y-75104125D01*
X38688282Y-77584125D02*
X38688282Y-81193125D01*
X38728282Y-71507125D02*
X38728282Y-75104125D01*
X38728282Y-77584125D02*
X38728282Y-81181125D01*
X38768282Y-71520125D02*
X38768282Y-75104125D01*
X38768282Y-77584125D02*
X38768282Y-81168125D01*
X38808282Y-71534125D02*
X38808282Y-75104125D01*
X38808282Y-77584125D02*
X38808282Y-81154125D01*
X38848282Y-71547125D02*
X38848282Y-75104125D01*
X38848282Y-77584125D02*
X38848282Y-81141125D01*
X38888282Y-71562125D02*
X38888282Y-75104125D01*
X38888282Y-77584125D02*
X38888282Y-81126125D01*
X38928282Y-71576125D02*
X38928282Y-75104125D01*
X38928282Y-77584125D02*
X38928282Y-81112125D01*
X38968282Y-71591125D02*
X38968282Y-75104125D01*
X38968282Y-77584125D02*
X38968282Y-81097125D01*
X39008282Y-71606125D02*
X39008282Y-75104125D01*
X39008282Y-77584125D02*
X39008282Y-81082125D01*
X39048282Y-71622125D02*
X39048282Y-75104125D01*
X39048282Y-77584125D02*
X39048282Y-81066125D01*
X39088282Y-71638125D02*
X39088282Y-75104125D01*
X39088282Y-77584125D02*
X39088282Y-81050125D01*
X39128282Y-71654125D02*
X39128282Y-75104125D01*
X39128282Y-77584125D02*
X39128282Y-81034125D01*
X39168282Y-71671125D02*
X39168282Y-75104125D01*
X39168282Y-77584125D02*
X39168282Y-81017125D01*
X39208282Y-71688125D02*
X39208282Y-75104125D01*
X39208282Y-77584125D02*
X39208282Y-81000125D01*
X39248282Y-71706125D02*
X39248282Y-75104125D01*
X39248282Y-77584125D02*
X39248282Y-80982125D01*
X39288282Y-71724125D02*
X39288282Y-75104125D01*
X39288282Y-77584125D02*
X39288282Y-80964125D01*
X39328282Y-71742125D02*
X39328282Y-75104125D01*
X39328282Y-77584125D02*
X39328282Y-80946125D01*
X39368282Y-71761125D02*
X39368282Y-75104125D01*
X39368282Y-77584125D02*
X39368282Y-80927125D01*
X39408282Y-71780125D02*
X39408282Y-75104125D01*
X39408282Y-77584125D02*
X39408282Y-80908125D01*
X39448282Y-71800125D02*
X39448282Y-75104125D01*
X39448282Y-77584125D02*
X39448282Y-80888125D01*
X39488282Y-71820125D02*
X39488282Y-75104125D01*
X39488282Y-77584125D02*
X39488282Y-80868125D01*
X39528282Y-71840125D02*
X39528282Y-75104125D01*
X39528282Y-77584125D02*
X39528282Y-80848125D01*
X39568282Y-71861125D02*
X39568282Y-75104125D01*
X39568282Y-77584125D02*
X39568282Y-80827125D01*
X39608282Y-71883125D02*
X39608282Y-75104125D01*
X39608282Y-77584125D02*
X39608282Y-80805125D01*
X39648282Y-71905125D02*
X39648282Y-75104125D01*
X39648282Y-77584125D02*
X39648282Y-80783125D01*
X39688282Y-71927125D02*
X39688282Y-75104125D01*
X39688282Y-77584125D02*
X39688282Y-80761125D01*
X39728282Y-71950125D02*
X39728282Y-75104125D01*
X39728282Y-77584125D02*
X39728282Y-80738125D01*
X39768282Y-71973125D02*
X39768282Y-75104125D01*
X39768282Y-77584125D02*
X39768282Y-80715125D01*
X39808282Y-71997125D02*
X39808282Y-75104125D01*
X39808282Y-77584125D02*
X39808282Y-80691125D01*
X39848282Y-72021125D02*
X39848282Y-75104125D01*
X39848282Y-77584125D02*
X39848282Y-80667125D01*
X39888282Y-72046125D02*
X39888282Y-75104125D01*
X39888282Y-77584125D02*
X39888282Y-80642125D01*
X39928282Y-72072125D02*
X39928282Y-75104125D01*
X39928282Y-77584125D02*
X39928282Y-80616125D01*
X39968282Y-72097125D02*
X39968282Y-75104125D01*
X39968282Y-77584125D02*
X39968282Y-80591125D01*
X40008282Y-72124125D02*
X40008282Y-75104125D01*
X40008282Y-77584125D02*
X40008282Y-80564125D01*
X40048282Y-72151125D02*
X40048282Y-75104125D01*
X40048282Y-77584125D02*
X40048282Y-80537125D01*
X40088282Y-72178125D02*
X40088282Y-75104125D01*
X40088282Y-77584125D02*
X40088282Y-80510125D01*
X40128282Y-72206125D02*
X40128282Y-75104125D01*
X40128282Y-77584125D02*
X40128282Y-80482125D01*
X40168282Y-72235125D02*
X40168282Y-75104125D01*
X40168282Y-77584125D02*
X40168282Y-80453125D01*
X40208282Y-72264125D02*
X40208282Y-75104125D01*
X40208282Y-77584125D02*
X40208282Y-80424125D01*
X40248282Y-72294125D02*
X40248282Y-75104125D01*
X40248282Y-77584125D02*
X40248282Y-80394125D01*
X40288282Y-72324125D02*
X40288282Y-75104125D01*
X40288282Y-77584125D02*
X40288282Y-80364125D01*
X40328282Y-72356125D02*
X40328282Y-75104125D01*
X40328282Y-77584125D02*
X40328282Y-80332125D01*
X40368282Y-72387125D02*
X40368282Y-75104125D01*
X40368282Y-77584125D02*
X40368282Y-80301125D01*
X40408282Y-72420125D02*
X40408282Y-75104125D01*
X40408282Y-77584125D02*
X40408282Y-80268125D01*
X40448282Y-72453125D02*
X40448282Y-75104125D01*
X40448282Y-77584125D02*
X40448282Y-80235125D01*
X40488282Y-72486125D02*
X40488282Y-75104125D01*
X40488282Y-77584125D02*
X40488282Y-80202125D01*
X40528282Y-72521125D02*
X40528282Y-75104125D01*
X40528282Y-77584125D02*
X40528282Y-80167125D01*
X40568282Y-72556125D02*
X40568282Y-75104125D01*
X40568282Y-77584125D02*
X40568282Y-80132125D01*
X40608282Y-72592125D02*
X40608282Y-75104125D01*
X40608282Y-77584125D02*
X40608282Y-80096125D01*
X40648282Y-72628125D02*
X40648282Y-75104125D01*
X40648282Y-77584125D02*
X40648282Y-80060125D01*
X40688282Y-72666125D02*
X40688282Y-75104125D01*
X40688282Y-77584125D02*
X40688282Y-80022125D01*
X40728282Y-72704125D02*
X40728282Y-75104125D01*
X40728282Y-77584125D02*
X40728282Y-79984125D01*
X40768282Y-72743125D02*
X40768282Y-75104125D01*
X40768282Y-77584125D02*
X40768282Y-79945125D01*
X40808282Y-72783125D02*
X40808282Y-75104125D01*
X40808282Y-77584125D02*
X40808282Y-79905125D01*
X40848282Y-72824125D02*
X40848282Y-75104125D01*
X40848282Y-77584125D02*
X40848282Y-79864125D01*
X40888282Y-72866125D02*
X40888282Y-75104125D01*
X40888282Y-77584125D02*
X40888282Y-79822125D01*
X40928282Y-72909125D02*
X40928282Y-79779125D01*
X40968282Y-72953125D02*
X40968282Y-79735125D01*
X41008282Y-72997125D02*
X41008282Y-79691125D01*
X41048282Y-73043125D02*
X41048282Y-79645125D01*
X41088282Y-73090125D02*
X41088282Y-79598125D01*
X41128282Y-73139125D02*
X41128282Y-79549125D01*
X41168282Y-73188125D02*
X41168282Y-79500125D01*
X41208282Y-73239125D02*
X41208282Y-79449125D01*
X41248282Y-73291125D02*
X41248282Y-79397125D01*
X41288282Y-73344125D02*
X41288282Y-79344125D01*
X41328282Y-73399125D02*
X41328282Y-79289125D01*
X41368282Y-73456125D02*
X41368282Y-79232125D01*
X41408282Y-73514125D02*
X41408282Y-79174125D01*
X41448282Y-73574125D02*
X41448282Y-79114125D01*
X41488282Y-73636125D02*
X41488282Y-79052125D01*
X41528282Y-73700125D02*
X41528282Y-78988125D01*
X41568282Y-73766125D02*
X41568282Y-78922125D01*
X41608282Y-73834125D02*
X41608282Y-78854125D01*
X41648282Y-73905125D02*
X41648282Y-78783125D01*
X41688282Y-73979125D02*
X41688282Y-78709125D01*
X41728282Y-74056125D02*
X41728282Y-78632125D01*
X41768282Y-74136125D02*
X41768282Y-78552125D01*
X41808282Y-74220125D02*
X41808282Y-78468125D01*
X41848282Y-74307125D02*
X41848282Y-78381125D01*
X41888282Y-74400125D02*
X41888282Y-78288125D01*
X41928282Y-74498125D02*
X41928282Y-78190125D01*
X41968282Y-74602125D02*
X41968282Y-78086125D01*
X42008282Y-74714125D02*
X42008282Y-77974125D01*
X42048282Y-74835125D02*
X42048282Y-77853125D01*
X42088282Y-74967125D02*
X42088282Y-77721125D01*
X42128282Y-75114125D02*
X42128282Y-77574125D01*
X42168282Y-75282125D02*
X42168282Y-77406125D01*
X42208282Y-75482125D02*
X42208282Y-77206125D01*
X42248282Y-75745125D02*
X42248282Y-76943125D01*
X42288282Y-76344125D02*
G75*
G02*
X32048282Y-76344125I-5120000J0D01*
G01*
X32048282Y-76344125D02*
G75*
G02*
X42288282Y-76344125I5120000J0D01*
G01*
%TO.C,J3*%
X72907032Y-18444125D02*
G75*
G02*
X61907032Y-18444125I-5500000J0D01*
G01*
X61907032Y-18444125D02*
G75*
G02*
X72907032Y-18444125I5500000J0D01*
G01*
%TO.C,R2*%
X17588282Y-74974125D02*
X17588282Y-75304125D01*
X17588282Y-77714125D02*
X17588282Y-77384125D01*
X24128282Y-74974125D02*
X17588282Y-74974125D01*
X24128282Y-75304125D02*
X24128282Y-74974125D01*
X24128282Y-77384125D02*
X24128282Y-77714125D01*
X24128282Y-77714125D02*
X17588282Y-77714125D01*
%TO.C,D6*%
X30838282Y-63184125D02*
X31858282Y-63184125D01*
X32638282Y-61714125D02*
X32638282Y-64654125D01*
X32758282Y-61714125D02*
X32758282Y-64654125D01*
X32878282Y-61714125D02*
X32878282Y-64654125D01*
X38318282Y-63184125D02*
X37298282Y-63184125D01*
X31858282Y-61714125D02*
X37298282Y-61714125D01*
X37298282Y-64654125D01*
X31858282Y-64654125D01*
X31858282Y-61714125D01*
%TO.C,D3*%
X36137032Y-124250000D02*
X37157032Y-124250000D01*
X37937032Y-122780000D02*
X37937032Y-125720000D01*
X38057032Y-122780000D02*
X38057032Y-125720000D01*
X38177032Y-122780000D02*
X38177032Y-125720000D01*
X43617032Y-124250000D02*
X42597032Y-124250000D01*
X37157032Y-122780000D02*
X42597032Y-122780000D01*
X42597032Y-125720000D01*
X37157032Y-125720000D01*
X37157032Y-122780000D01*
%TO.C,C1*%
X24188636Y-101319125D02*
X25188636Y-101319125D01*
X24688636Y-100819125D02*
X24688636Y-101819125D01*
X29668282Y-99114125D02*
X29668282Y-109274125D01*
X29708282Y-99114125D02*
X29708282Y-109274125D01*
X29748282Y-99115125D02*
X29748282Y-109273125D01*
X29788282Y-99115125D02*
X29788282Y-109273125D01*
X29828282Y-99117125D02*
X29828282Y-109271125D01*
X29868282Y-99118125D02*
X29868282Y-109270125D01*
X29908282Y-99120125D02*
X29908282Y-109268125D01*
X29948282Y-99122125D02*
X29948282Y-109266125D01*
X29988282Y-99124125D02*
X29988282Y-109264125D01*
X30028282Y-99127125D02*
X30028282Y-109261125D01*
X30068282Y-99130125D02*
X30068282Y-109258125D01*
X30108282Y-99133125D02*
X30108282Y-109255125D01*
X30148282Y-99137125D02*
X30148282Y-109251125D01*
X30188282Y-99140125D02*
X30188282Y-109248125D01*
X30228282Y-99145125D02*
X30228282Y-109243125D01*
X30268282Y-99149125D02*
X30268282Y-109239125D01*
X30308282Y-99154125D02*
X30308282Y-109234125D01*
X30348282Y-99159125D02*
X30348282Y-109229125D01*
X30388282Y-99165125D02*
X30388282Y-109223125D01*
X30428282Y-99171125D02*
X30428282Y-109217125D01*
X30468282Y-99177125D02*
X30468282Y-109211125D01*
X30508282Y-99183125D02*
X30508282Y-109205125D01*
X30548282Y-99190125D02*
X30548282Y-109198125D01*
X30588282Y-99197125D02*
X30588282Y-109191125D01*
X30628282Y-99205125D02*
X30628282Y-109183125D01*
X30668282Y-99213125D02*
X30668282Y-109175125D01*
X30708282Y-99221125D02*
X30708282Y-109167125D01*
X30748282Y-99229125D02*
X30748282Y-109159125D01*
X30788282Y-99238125D02*
X30788282Y-109150125D01*
X30828282Y-99247125D02*
X30828282Y-109141125D01*
X30868282Y-99257125D02*
X30868282Y-109131125D01*
X30908282Y-99266125D02*
X30908282Y-109122125D01*
X30948282Y-99277125D02*
X30948282Y-102954125D01*
X30948282Y-105434125D02*
X30948282Y-109111125D01*
X30988282Y-99287125D02*
X30988282Y-102954125D01*
X30988282Y-105434125D02*
X30988282Y-109101125D01*
X31028282Y-99298125D02*
X31028282Y-102954125D01*
X31028282Y-105434125D02*
X31028282Y-109090125D01*
X31068282Y-99309125D02*
X31068282Y-102954125D01*
X31068282Y-105434125D02*
X31068282Y-109079125D01*
X31108282Y-99321125D02*
X31108282Y-102954125D01*
X31108282Y-105434125D02*
X31108282Y-109067125D01*
X31148282Y-99333125D02*
X31148282Y-102954125D01*
X31148282Y-105434125D02*
X31148282Y-109055125D01*
X31188282Y-99345125D02*
X31188282Y-102954125D01*
X31188282Y-105434125D02*
X31188282Y-109043125D01*
X31228282Y-99357125D02*
X31228282Y-102954125D01*
X31228282Y-105434125D02*
X31228282Y-109031125D01*
X31268282Y-99370125D02*
X31268282Y-102954125D01*
X31268282Y-105434125D02*
X31268282Y-109018125D01*
X31308282Y-99384125D02*
X31308282Y-102954125D01*
X31308282Y-105434125D02*
X31308282Y-109004125D01*
X31348282Y-99397125D02*
X31348282Y-102954125D01*
X31348282Y-105434125D02*
X31348282Y-108991125D01*
X31388282Y-99412125D02*
X31388282Y-102954125D01*
X31388282Y-105434125D02*
X31388282Y-108976125D01*
X31428282Y-99426125D02*
X31428282Y-102954125D01*
X31428282Y-105434125D02*
X31428282Y-108962125D01*
X31468282Y-99441125D02*
X31468282Y-102954125D01*
X31468282Y-105434125D02*
X31468282Y-108947125D01*
X31508282Y-99456125D02*
X31508282Y-102954125D01*
X31508282Y-105434125D02*
X31508282Y-108932125D01*
X31548282Y-99472125D02*
X31548282Y-102954125D01*
X31548282Y-105434125D02*
X31548282Y-108916125D01*
X31588282Y-99488125D02*
X31588282Y-102954125D01*
X31588282Y-105434125D02*
X31588282Y-108900125D01*
X31628282Y-99504125D02*
X31628282Y-102954125D01*
X31628282Y-105434125D02*
X31628282Y-108884125D01*
X31668282Y-99521125D02*
X31668282Y-102954125D01*
X31668282Y-105434125D02*
X31668282Y-108867125D01*
X31708282Y-99538125D02*
X31708282Y-102954125D01*
X31708282Y-105434125D02*
X31708282Y-108850125D01*
X31748282Y-99556125D02*
X31748282Y-102954125D01*
X31748282Y-105434125D02*
X31748282Y-108832125D01*
X31788282Y-99574125D02*
X31788282Y-102954125D01*
X31788282Y-105434125D02*
X31788282Y-108814125D01*
X31828282Y-99592125D02*
X31828282Y-102954125D01*
X31828282Y-105434125D02*
X31828282Y-108796125D01*
X31868282Y-99611125D02*
X31868282Y-102954125D01*
X31868282Y-105434125D02*
X31868282Y-108777125D01*
X31908282Y-99630125D02*
X31908282Y-102954125D01*
X31908282Y-105434125D02*
X31908282Y-108758125D01*
X31948282Y-99650125D02*
X31948282Y-102954125D01*
X31948282Y-105434125D02*
X31948282Y-108738125D01*
X31988282Y-99670125D02*
X31988282Y-102954125D01*
X31988282Y-105434125D02*
X31988282Y-108718125D01*
X32028282Y-99690125D02*
X32028282Y-102954125D01*
X32028282Y-105434125D02*
X32028282Y-108698125D01*
X32068282Y-99711125D02*
X32068282Y-102954125D01*
X32068282Y-105434125D02*
X32068282Y-108677125D01*
X32108282Y-99733125D02*
X32108282Y-102954125D01*
X32108282Y-105434125D02*
X32108282Y-108655125D01*
X32148282Y-99755125D02*
X32148282Y-102954125D01*
X32148282Y-105434125D02*
X32148282Y-108633125D01*
X32188282Y-99777125D02*
X32188282Y-102954125D01*
X32188282Y-105434125D02*
X32188282Y-108611125D01*
X32228282Y-99800125D02*
X32228282Y-102954125D01*
X32228282Y-105434125D02*
X32228282Y-108588125D01*
X32268282Y-99823125D02*
X32268282Y-102954125D01*
X32268282Y-105434125D02*
X32268282Y-108565125D01*
X32308282Y-99847125D02*
X32308282Y-102954125D01*
X32308282Y-105434125D02*
X32308282Y-108541125D01*
X32348282Y-99871125D02*
X32348282Y-102954125D01*
X32348282Y-105434125D02*
X32348282Y-108517125D01*
X32388282Y-99896125D02*
X32388282Y-102954125D01*
X32388282Y-105434125D02*
X32388282Y-108492125D01*
X32428282Y-99922125D02*
X32428282Y-102954125D01*
X32428282Y-105434125D02*
X32428282Y-108466125D01*
X32468282Y-99947125D02*
X32468282Y-102954125D01*
X32468282Y-105434125D02*
X32468282Y-108441125D01*
X32508282Y-99974125D02*
X32508282Y-102954125D01*
X32508282Y-105434125D02*
X32508282Y-108414125D01*
X32548282Y-100001125D02*
X32548282Y-102954125D01*
X32548282Y-105434125D02*
X32548282Y-108387125D01*
X32588282Y-100028125D02*
X32588282Y-102954125D01*
X32588282Y-105434125D02*
X32588282Y-108360125D01*
X32628282Y-100056125D02*
X32628282Y-102954125D01*
X32628282Y-105434125D02*
X32628282Y-108332125D01*
X32668282Y-100085125D02*
X32668282Y-102954125D01*
X32668282Y-105434125D02*
X32668282Y-108303125D01*
X32708282Y-100114125D02*
X32708282Y-102954125D01*
X32708282Y-105434125D02*
X32708282Y-108274125D01*
X32748282Y-100144125D02*
X32748282Y-102954125D01*
X32748282Y-105434125D02*
X32748282Y-108244125D01*
X32788282Y-100174125D02*
X32788282Y-102954125D01*
X32788282Y-105434125D02*
X32788282Y-108214125D01*
X32828282Y-100206125D02*
X32828282Y-102954125D01*
X32828282Y-105434125D02*
X32828282Y-108182125D01*
X32868282Y-100237125D02*
X32868282Y-102954125D01*
X32868282Y-105434125D02*
X32868282Y-108151125D01*
X32908282Y-100270125D02*
X32908282Y-102954125D01*
X32908282Y-105434125D02*
X32908282Y-108118125D01*
X32948282Y-100303125D02*
X32948282Y-102954125D01*
X32948282Y-105434125D02*
X32948282Y-108085125D01*
X32988282Y-100336125D02*
X32988282Y-102954125D01*
X32988282Y-105434125D02*
X32988282Y-108052125D01*
X33028282Y-100371125D02*
X33028282Y-102954125D01*
X33028282Y-105434125D02*
X33028282Y-108017125D01*
X33068282Y-100406125D02*
X33068282Y-102954125D01*
X33068282Y-105434125D02*
X33068282Y-107982125D01*
X33108282Y-100442125D02*
X33108282Y-102954125D01*
X33108282Y-105434125D02*
X33108282Y-107946125D01*
X33148282Y-100478125D02*
X33148282Y-102954125D01*
X33148282Y-105434125D02*
X33148282Y-107910125D01*
X33188282Y-100516125D02*
X33188282Y-102954125D01*
X33188282Y-105434125D02*
X33188282Y-107872125D01*
X33228282Y-100554125D02*
X33228282Y-102954125D01*
X33228282Y-105434125D02*
X33228282Y-107834125D01*
X33268282Y-100593125D02*
X33268282Y-102954125D01*
X33268282Y-105434125D02*
X33268282Y-107795125D01*
X33308282Y-100633125D02*
X33308282Y-102954125D01*
X33308282Y-105434125D02*
X33308282Y-107755125D01*
X33348282Y-100674125D02*
X33348282Y-102954125D01*
X33348282Y-105434125D02*
X33348282Y-107714125D01*
X33388282Y-100716125D02*
X33388282Y-102954125D01*
X33388282Y-105434125D02*
X33388282Y-107672125D01*
X33428282Y-100759125D02*
X33428282Y-107629125D01*
X33468282Y-100803125D02*
X33468282Y-107585125D01*
X33508282Y-100847125D02*
X33508282Y-107541125D01*
X33548282Y-100893125D02*
X33548282Y-107495125D01*
X33588282Y-100940125D02*
X33588282Y-107448125D01*
X33628282Y-100989125D02*
X33628282Y-107399125D01*
X33668282Y-101038125D02*
X33668282Y-107350125D01*
X33708282Y-101089125D02*
X33708282Y-107299125D01*
X33748282Y-101141125D02*
X33748282Y-107247125D01*
X33788282Y-101194125D02*
X33788282Y-107194125D01*
X33828282Y-101249125D02*
X33828282Y-107139125D01*
X33868282Y-101306125D02*
X33868282Y-107082125D01*
X33908282Y-101364125D02*
X33908282Y-107024125D01*
X33948282Y-101424125D02*
X33948282Y-106964125D01*
X33988282Y-101486125D02*
X33988282Y-106902125D01*
X34028282Y-101550125D02*
X34028282Y-106838125D01*
X34068282Y-101616125D02*
X34068282Y-106772125D01*
X34108282Y-101684125D02*
X34108282Y-106704125D01*
X34148282Y-101755125D02*
X34148282Y-106633125D01*
X34188282Y-101829125D02*
X34188282Y-106559125D01*
X34228282Y-101906125D02*
X34228282Y-106482125D01*
X34268282Y-101986125D02*
X34268282Y-106402125D01*
X34308282Y-102070125D02*
X34308282Y-106318125D01*
X34348282Y-102157125D02*
X34348282Y-106231125D01*
X34388282Y-102250125D02*
X34388282Y-106138125D01*
X34428282Y-102348125D02*
X34428282Y-106040125D01*
X34468282Y-102452125D02*
X34468282Y-105936125D01*
X34508282Y-102564125D02*
X34508282Y-105824125D01*
X34548282Y-102685125D02*
X34548282Y-105703125D01*
X34588282Y-102817125D02*
X34588282Y-105571125D01*
X34628282Y-102964125D02*
X34628282Y-105424125D01*
X34668282Y-103132125D02*
X34668282Y-105256125D01*
X34708282Y-103332125D02*
X34708282Y-105056125D01*
X34748282Y-103595125D02*
X34748282Y-104793125D01*
X34788282Y-104194125D02*
G75*
G02*
X24548282Y-104194125I-5120000J0D01*
G01*
X24548282Y-104194125D02*
G75*
G02*
X34788282Y-104194125I5120000J0D01*
G01*
%TO.C,D8*%
X130838282Y-63184125D02*
X131858282Y-63184125D01*
X132638282Y-61714125D02*
X132638282Y-64654125D01*
X132758282Y-61714125D02*
X132758282Y-64654125D01*
X132878282Y-61714125D02*
X132878282Y-64654125D01*
X138318282Y-63184125D02*
X137298282Y-63184125D01*
X131858282Y-61714125D02*
X137298282Y-61714125D01*
X137298282Y-64654125D01*
X131858282Y-64654125D01*
X131858282Y-61714125D01*
%TO.C,Q1*%
X13798282Y-55534125D02*
X18418282Y-55534125D01*
X13798282Y-58794125D02*
X15178282Y-58794125D01*
X13798282Y-62494125D02*
X15178282Y-62494125D01*
X13798282Y-65754125D02*
X13798282Y-55534125D01*
X15178282Y-65754125D02*
X15178282Y-55534125D01*
X18418282Y-55534125D02*
X18418282Y-65754125D01*
X18418282Y-65754125D02*
X13798282Y-65754125D01*
%TO.C,J1*%
X22907032Y-18444125D02*
G75*
G02*
X11907032Y-18444125I-5500000J0D01*
G01*
X11907032Y-18444125D02*
G75*
G02*
X22907032Y-18444125I5500000J0D01*
G01*
%TO.C,J8*%
X172907032Y-18444125D02*
G75*
G02*
X161907032Y-18444125I-5500000J0D01*
G01*
X161907032Y-18444125D02*
G75*
G02*
X172907032Y-18444125I5500000J0D01*
G01*
%TO.C,C3*%
X24188636Y-40109125D02*
X25188636Y-40109125D01*
X24688636Y-39609125D02*
X24688636Y-40609125D01*
X29668282Y-37904125D02*
X29668282Y-48064125D01*
X29708282Y-37904125D02*
X29708282Y-48064125D01*
X29748282Y-37905125D02*
X29748282Y-48063125D01*
X29788282Y-37905125D02*
X29788282Y-48063125D01*
X29828282Y-37907125D02*
X29828282Y-48061125D01*
X29868282Y-37908125D02*
X29868282Y-48060125D01*
X29908282Y-37910125D02*
X29908282Y-48058125D01*
X29948282Y-37912125D02*
X29948282Y-48056125D01*
X29988282Y-37914125D02*
X29988282Y-48054125D01*
X30028282Y-37917125D02*
X30028282Y-48051125D01*
X30068282Y-37920125D02*
X30068282Y-48048125D01*
X30108282Y-37923125D02*
X30108282Y-48045125D01*
X30148282Y-37927125D02*
X30148282Y-48041125D01*
X30188282Y-37930125D02*
X30188282Y-48038125D01*
X30228282Y-37935125D02*
X30228282Y-48033125D01*
X30268282Y-37939125D02*
X30268282Y-48029125D01*
X30308282Y-37944125D02*
X30308282Y-48024125D01*
X30348282Y-37949125D02*
X30348282Y-48019125D01*
X30388282Y-37955125D02*
X30388282Y-48013125D01*
X30428282Y-37961125D02*
X30428282Y-48007125D01*
X30468282Y-37967125D02*
X30468282Y-48001125D01*
X30508282Y-37973125D02*
X30508282Y-47995125D01*
X30548282Y-37980125D02*
X30548282Y-47988125D01*
X30588282Y-37987125D02*
X30588282Y-47981125D01*
X30628282Y-37995125D02*
X30628282Y-47973125D01*
X30668282Y-38003125D02*
X30668282Y-47965125D01*
X30708282Y-38011125D02*
X30708282Y-47957125D01*
X30748282Y-38019125D02*
X30748282Y-47949125D01*
X30788282Y-38028125D02*
X30788282Y-47940125D01*
X30828282Y-38037125D02*
X30828282Y-47931125D01*
X30868282Y-38047125D02*
X30868282Y-47921125D01*
X30908282Y-38056125D02*
X30908282Y-47912125D01*
X30948282Y-38067125D02*
X30948282Y-41744125D01*
X30948282Y-44224125D02*
X30948282Y-47901125D01*
X30988282Y-38077125D02*
X30988282Y-41744125D01*
X30988282Y-44224125D02*
X30988282Y-47891125D01*
X31028282Y-38088125D02*
X31028282Y-41744125D01*
X31028282Y-44224125D02*
X31028282Y-47880125D01*
X31068282Y-38099125D02*
X31068282Y-41744125D01*
X31068282Y-44224125D02*
X31068282Y-47869125D01*
X31108282Y-38111125D02*
X31108282Y-41744125D01*
X31108282Y-44224125D02*
X31108282Y-47857125D01*
X31148282Y-38123125D02*
X31148282Y-41744125D01*
X31148282Y-44224125D02*
X31148282Y-47845125D01*
X31188282Y-38135125D02*
X31188282Y-41744125D01*
X31188282Y-44224125D02*
X31188282Y-47833125D01*
X31228282Y-38147125D02*
X31228282Y-41744125D01*
X31228282Y-44224125D02*
X31228282Y-47821125D01*
X31268282Y-38160125D02*
X31268282Y-41744125D01*
X31268282Y-44224125D02*
X31268282Y-47808125D01*
X31308282Y-38174125D02*
X31308282Y-41744125D01*
X31308282Y-44224125D02*
X31308282Y-47794125D01*
X31348282Y-38187125D02*
X31348282Y-41744125D01*
X31348282Y-44224125D02*
X31348282Y-47781125D01*
X31388282Y-38202125D02*
X31388282Y-41744125D01*
X31388282Y-44224125D02*
X31388282Y-47766125D01*
X31428282Y-38216125D02*
X31428282Y-41744125D01*
X31428282Y-44224125D02*
X31428282Y-47752125D01*
X31468282Y-38231125D02*
X31468282Y-41744125D01*
X31468282Y-44224125D02*
X31468282Y-47737125D01*
X31508282Y-38246125D02*
X31508282Y-41744125D01*
X31508282Y-44224125D02*
X31508282Y-47722125D01*
X31548282Y-38262125D02*
X31548282Y-41744125D01*
X31548282Y-44224125D02*
X31548282Y-47706125D01*
X31588282Y-38278125D02*
X31588282Y-41744125D01*
X31588282Y-44224125D02*
X31588282Y-47690125D01*
X31628282Y-38294125D02*
X31628282Y-41744125D01*
X31628282Y-44224125D02*
X31628282Y-47674125D01*
X31668282Y-38311125D02*
X31668282Y-41744125D01*
X31668282Y-44224125D02*
X31668282Y-47657125D01*
X31708282Y-38328125D02*
X31708282Y-41744125D01*
X31708282Y-44224125D02*
X31708282Y-47640125D01*
X31748282Y-38346125D02*
X31748282Y-41744125D01*
X31748282Y-44224125D02*
X31748282Y-47622125D01*
X31788282Y-38364125D02*
X31788282Y-41744125D01*
X31788282Y-44224125D02*
X31788282Y-47604125D01*
X31828282Y-38382125D02*
X31828282Y-41744125D01*
X31828282Y-44224125D02*
X31828282Y-47586125D01*
X31868282Y-38401125D02*
X31868282Y-41744125D01*
X31868282Y-44224125D02*
X31868282Y-47567125D01*
X31908282Y-38420125D02*
X31908282Y-41744125D01*
X31908282Y-44224125D02*
X31908282Y-47548125D01*
X31948282Y-38440125D02*
X31948282Y-41744125D01*
X31948282Y-44224125D02*
X31948282Y-47528125D01*
X31988282Y-38460125D02*
X31988282Y-41744125D01*
X31988282Y-44224125D02*
X31988282Y-47508125D01*
X32028282Y-38480125D02*
X32028282Y-41744125D01*
X32028282Y-44224125D02*
X32028282Y-47488125D01*
X32068282Y-38501125D02*
X32068282Y-41744125D01*
X32068282Y-44224125D02*
X32068282Y-47467125D01*
X32108282Y-38523125D02*
X32108282Y-41744125D01*
X32108282Y-44224125D02*
X32108282Y-47445125D01*
X32148282Y-38545125D02*
X32148282Y-41744125D01*
X32148282Y-44224125D02*
X32148282Y-47423125D01*
X32188282Y-38567125D02*
X32188282Y-41744125D01*
X32188282Y-44224125D02*
X32188282Y-47401125D01*
X32228282Y-38590125D02*
X32228282Y-41744125D01*
X32228282Y-44224125D02*
X32228282Y-47378125D01*
X32268282Y-38613125D02*
X32268282Y-41744125D01*
X32268282Y-44224125D02*
X32268282Y-47355125D01*
X32308282Y-38637125D02*
X32308282Y-41744125D01*
X32308282Y-44224125D02*
X32308282Y-47331125D01*
X32348282Y-38661125D02*
X32348282Y-41744125D01*
X32348282Y-44224125D02*
X32348282Y-47307125D01*
X32388282Y-38686125D02*
X32388282Y-41744125D01*
X32388282Y-44224125D02*
X32388282Y-47282125D01*
X32428282Y-38712125D02*
X32428282Y-41744125D01*
X32428282Y-44224125D02*
X32428282Y-47256125D01*
X32468282Y-38737125D02*
X32468282Y-41744125D01*
X32468282Y-44224125D02*
X32468282Y-47231125D01*
X32508282Y-38764125D02*
X32508282Y-41744125D01*
X32508282Y-44224125D02*
X32508282Y-47204125D01*
X32548282Y-38791125D02*
X32548282Y-41744125D01*
X32548282Y-44224125D02*
X32548282Y-47177125D01*
X32588282Y-38818125D02*
X32588282Y-41744125D01*
X32588282Y-44224125D02*
X32588282Y-47150125D01*
X32628282Y-38846125D02*
X32628282Y-41744125D01*
X32628282Y-44224125D02*
X32628282Y-47122125D01*
X32668282Y-38875125D02*
X32668282Y-41744125D01*
X32668282Y-44224125D02*
X32668282Y-47093125D01*
X32708282Y-38904125D02*
X32708282Y-41744125D01*
X32708282Y-44224125D02*
X32708282Y-47064125D01*
X32748282Y-38934125D02*
X32748282Y-41744125D01*
X32748282Y-44224125D02*
X32748282Y-47034125D01*
X32788282Y-38964125D02*
X32788282Y-41744125D01*
X32788282Y-44224125D02*
X32788282Y-47004125D01*
X32828282Y-38996125D02*
X32828282Y-41744125D01*
X32828282Y-44224125D02*
X32828282Y-46972125D01*
X32868282Y-39027125D02*
X32868282Y-41744125D01*
X32868282Y-44224125D02*
X32868282Y-46941125D01*
X32908282Y-39060125D02*
X32908282Y-41744125D01*
X32908282Y-44224125D02*
X32908282Y-46908125D01*
X32948282Y-39093125D02*
X32948282Y-41744125D01*
X32948282Y-44224125D02*
X32948282Y-46875125D01*
X32988282Y-39126125D02*
X32988282Y-41744125D01*
X32988282Y-44224125D02*
X32988282Y-46842125D01*
X33028282Y-39161125D02*
X33028282Y-41744125D01*
X33028282Y-44224125D02*
X33028282Y-46807125D01*
X33068282Y-39196125D02*
X33068282Y-41744125D01*
X33068282Y-44224125D02*
X33068282Y-46772125D01*
X33108282Y-39232125D02*
X33108282Y-41744125D01*
X33108282Y-44224125D02*
X33108282Y-46736125D01*
X33148282Y-39268125D02*
X33148282Y-41744125D01*
X33148282Y-44224125D02*
X33148282Y-46700125D01*
X33188282Y-39306125D02*
X33188282Y-41744125D01*
X33188282Y-44224125D02*
X33188282Y-46662125D01*
X33228282Y-39344125D02*
X33228282Y-41744125D01*
X33228282Y-44224125D02*
X33228282Y-46624125D01*
X33268282Y-39383125D02*
X33268282Y-41744125D01*
X33268282Y-44224125D02*
X33268282Y-46585125D01*
X33308282Y-39423125D02*
X33308282Y-41744125D01*
X33308282Y-44224125D02*
X33308282Y-46545125D01*
X33348282Y-39464125D02*
X33348282Y-41744125D01*
X33348282Y-44224125D02*
X33348282Y-46504125D01*
X33388282Y-39506125D02*
X33388282Y-41744125D01*
X33388282Y-44224125D02*
X33388282Y-46462125D01*
X33428282Y-39549125D02*
X33428282Y-46419125D01*
X33468282Y-39593125D02*
X33468282Y-46375125D01*
X33508282Y-39637125D02*
X33508282Y-46331125D01*
X33548282Y-39683125D02*
X33548282Y-46285125D01*
X33588282Y-39730125D02*
X33588282Y-46238125D01*
X33628282Y-39779125D02*
X33628282Y-46189125D01*
X33668282Y-39828125D02*
X33668282Y-46140125D01*
X33708282Y-39879125D02*
X33708282Y-46089125D01*
X33748282Y-39931125D02*
X33748282Y-46037125D01*
X33788282Y-39984125D02*
X33788282Y-45984125D01*
X33828282Y-40039125D02*
X33828282Y-45929125D01*
X33868282Y-40096125D02*
X33868282Y-45872125D01*
X33908282Y-40154125D02*
X33908282Y-45814125D01*
X33948282Y-40214125D02*
X33948282Y-45754125D01*
X33988282Y-40276125D02*
X33988282Y-45692125D01*
X34028282Y-40340125D02*
X34028282Y-45628125D01*
X34068282Y-40406125D02*
X34068282Y-45562125D01*
X34108282Y-40474125D02*
X34108282Y-45494125D01*
X34148282Y-40545125D02*
X34148282Y-45423125D01*
X34188282Y-40619125D02*
X34188282Y-45349125D01*
X34228282Y-40696125D02*
X34228282Y-45272125D01*
X34268282Y-40776125D02*
X34268282Y-45192125D01*
X34308282Y-40860125D02*
X34308282Y-45108125D01*
X34348282Y-40947125D02*
X34348282Y-45021125D01*
X34388282Y-41040125D02*
X34388282Y-44928125D01*
X34428282Y-41138125D02*
X34428282Y-44830125D01*
X34468282Y-41242125D02*
X34468282Y-44726125D01*
X34508282Y-41354125D02*
X34508282Y-44614125D01*
X34548282Y-41475125D02*
X34548282Y-44493125D01*
X34588282Y-41607125D02*
X34588282Y-44361125D01*
X34628282Y-41754125D02*
X34628282Y-44214125D01*
X34668282Y-41922125D02*
X34668282Y-44046125D01*
X34708282Y-42122125D02*
X34708282Y-43846125D01*
X34748282Y-42385125D02*
X34748282Y-43583125D01*
X34788282Y-42984125D02*
G75*
G02*
X24548282Y-42984125I-5120000J0D01*
G01*
X24548282Y-42984125D02*
G75*
G02*
X34788282Y-42984125I5120000J0D01*
G01*
%TO.C,C10*%
X231688636Y-73469125D02*
X232688636Y-73469125D01*
X232188636Y-72969125D02*
X232188636Y-73969125D01*
X237168282Y-71264125D02*
X237168282Y-81424125D01*
X237208282Y-71264125D02*
X237208282Y-81424125D01*
X237248282Y-71265125D02*
X237248282Y-81423125D01*
X237288282Y-71265125D02*
X237288282Y-81423125D01*
X237328282Y-71267125D02*
X237328282Y-81421125D01*
X237368282Y-71268125D02*
X237368282Y-81420125D01*
X237408282Y-71270125D02*
X237408282Y-81418125D01*
X237448282Y-71272125D02*
X237448282Y-81416125D01*
X237488282Y-71274125D02*
X237488282Y-81414125D01*
X237528282Y-71277125D02*
X237528282Y-81411125D01*
X237568282Y-71280125D02*
X237568282Y-81408125D01*
X237608282Y-71283125D02*
X237608282Y-81405125D01*
X237648282Y-71287125D02*
X237648282Y-81401125D01*
X237688282Y-71290125D02*
X237688282Y-81398125D01*
X237728282Y-71295125D02*
X237728282Y-81393125D01*
X237768282Y-71299125D02*
X237768282Y-81389125D01*
X237808282Y-71304125D02*
X237808282Y-81384125D01*
X237848282Y-71309125D02*
X237848282Y-81379125D01*
X237888282Y-71315125D02*
X237888282Y-81373125D01*
X237928282Y-71321125D02*
X237928282Y-81367125D01*
X237968282Y-71327125D02*
X237968282Y-81361125D01*
X238008282Y-71333125D02*
X238008282Y-81355125D01*
X238048282Y-71340125D02*
X238048282Y-81348125D01*
X238088282Y-71347125D02*
X238088282Y-81341125D01*
X238128282Y-71355125D02*
X238128282Y-81333125D01*
X238168282Y-71363125D02*
X238168282Y-81325125D01*
X238208282Y-71371125D02*
X238208282Y-81317125D01*
X238248282Y-71379125D02*
X238248282Y-81309125D01*
X238288282Y-71388125D02*
X238288282Y-81300125D01*
X238328282Y-71397125D02*
X238328282Y-81291125D01*
X238368282Y-71407125D02*
X238368282Y-81281125D01*
X238408282Y-71416125D02*
X238408282Y-81272125D01*
X238448282Y-71427125D02*
X238448282Y-75104125D01*
X238448282Y-77584125D02*
X238448282Y-81261125D01*
X238488282Y-71437125D02*
X238488282Y-75104125D01*
X238488282Y-77584125D02*
X238488282Y-81251125D01*
X238528282Y-71448125D02*
X238528282Y-75104125D01*
X238528282Y-77584125D02*
X238528282Y-81240125D01*
X238568282Y-71459125D02*
X238568282Y-75104125D01*
X238568282Y-77584125D02*
X238568282Y-81229125D01*
X238608282Y-71471125D02*
X238608282Y-75104125D01*
X238608282Y-77584125D02*
X238608282Y-81217125D01*
X238648282Y-71483125D02*
X238648282Y-75104125D01*
X238648282Y-77584125D02*
X238648282Y-81205125D01*
X238688282Y-71495125D02*
X238688282Y-75104125D01*
X238688282Y-77584125D02*
X238688282Y-81193125D01*
X238728282Y-71507125D02*
X238728282Y-75104125D01*
X238728282Y-77584125D02*
X238728282Y-81181125D01*
X238768282Y-71520125D02*
X238768282Y-75104125D01*
X238768282Y-77584125D02*
X238768282Y-81168125D01*
X238808282Y-71534125D02*
X238808282Y-75104125D01*
X238808282Y-77584125D02*
X238808282Y-81154125D01*
X238848282Y-71547125D02*
X238848282Y-75104125D01*
X238848282Y-77584125D02*
X238848282Y-81141125D01*
X238888282Y-71562125D02*
X238888282Y-75104125D01*
X238888282Y-77584125D02*
X238888282Y-81126125D01*
X238928282Y-71576125D02*
X238928282Y-75104125D01*
X238928282Y-77584125D02*
X238928282Y-81112125D01*
X238968282Y-71591125D02*
X238968282Y-75104125D01*
X238968282Y-77584125D02*
X238968282Y-81097125D01*
X239008282Y-71606125D02*
X239008282Y-75104125D01*
X239008282Y-77584125D02*
X239008282Y-81082125D01*
X239048282Y-71622125D02*
X239048282Y-75104125D01*
X239048282Y-77584125D02*
X239048282Y-81066125D01*
X239088282Y-71638125D02*
X239088282Y-75104125D01*
X239088282Y-77584125D02*
X239088282Y-81050125D01*
X239128282Y-71654125D02*
X239128282Y-75104125D01*
X239128282Y-77584125D02*
X239128282Y-81034125D01*
X239168282Y-71671125D02*
X239168282Y-75104125D01*
X239168282Y-77584125D02*
X239168282Y-81017125D01*
X239208282Y-71688125D02*
X239208282Y-75104125D01*
X239208282Y-77584125D02*
X239208282Y-81000125D01*
X239248282Y-71706125D02*
X239248282Y-75104125D01*
X239248282Y-77584125D02*
X239248282Y-80982125D01*
X239288282Y-71724125D02*
X239288282Y-75104125D01*
X239288282Y-77584125D02*
X239288282Y-80964125D01*
X239328282Y-71742125D02*
X239328282Y-75104125D01*
X239328282Y-77584125D02*
X239328282Y-80946125D01*
X239368282Y-71761125D02*
X239368282Y-75104125D01*
X239368282Y-77584125D02*
X239368282Y-80927125D01*
X239408282Y-71780125D02*
X239408282Y-75104125D01*
X239408282Y-77584125D02*
X239408282Y-80908125D01*
X239448282Y-71800125D02*
X239448282Y-75104125D01*
X239448282Y-77584125D02*
X239448282Y-80888125D01*
X239488282Y-71820125D02*
X239488282Y-75104125D01*
X239488282Y-77584125D02*
X239488282Y-80868125D01*
X239528282Y-71840125D02*
X239528282Y-75104125D01*
X239528282Y-77584125D02*
X239528282Y-80848125D01*
X239568282Y-71861125D02*
X239568282Y-75104125D01*
X239568282Y-77584125D02*
X239568282Y-80827125D01*
X239608282Y-71883125D02*
X239608282Y-75104125D01*
X239608282Y-77584125D02*
X239608282Y-80805125D01*
X239648282Y-71905125D02*
X239648282Y-75104125D01*
X239648282Y-77584125D02*
X239648282Y-80783125D01*
X239688282Y-71927125D02*
X239688282Y-75104125D01*
X239688282Y-77584125D02*
X239688282Y-80761125D01*
X239728282Y-71950125D02*
X239728282Y-75104125D01*
X239728282Y-77584125D02*
X239728282Y-80738125D01*
X239768282Y-71973125D02*
X239768282Y-75104125D01*
X239768282Y-77584125D02*
X239768282Y-80715125D01*
X239808282Y-71997125D02*
X239808282Y-75104125D01*
X239808282Y-77584125D02*
X239808282Y-80691125D01*
X239848282Y-72021125D02*
X239848282Y-75104125D01*
X239848282Y-77584125D02*
X239848282Y-80667125D01*
X239888282Y-72046125D02*
X239888282Y-75104125D01*
X239888282Y-77584125D02*
X239888282Y-80642125D01*
X239928282Y-72072125D02*
X239928282Y-75104125D01*
X239928282Y-77584125D02*
X239928282Y-80616125D01*
X239968282Y-72097125D02*
X239968282Y-75104125D01*
X239968282Y-77584125D02*
X239968282Y-80591125D01*
X240008282Y-72124125D02*
X240008282Y-75104125D01*
X240008282Y-77584125D02*
X240008282Y-80564125D01*
X240048282Y-72151125D02*
X240048282Y-75104125D01*
X240048282Y-77584125D02*
X240048282Y-80537125D01*
X240088282Y-72178125D02*
X240088282Y-75104125D01*
X240088282Y-77584125D02*
X240088282Y-80510125D01*
X240128282Y-72206125D02*
X240128282Y-75104125D01*
X240128282Y-77584125D02*
X240128282Y-80482125D01*
X240168282Y-72235125D02*
X240168282Y-75104125D01*
X240168282Y-77584125D02*
X240168282Y-80453125D01*
X240208282Y-72264125D02*
X240208282Y-75104125D01*
X240208282Y-77584125D02*
X240208282Y-80424125D01*
X240248282Y-72294125D02*
X240248282Y-75104125D01*
X240248282Y-77584125D02*
X240248282Y-80394125D01*
X240288282Y-72324125D02*
X240288282Y-75104125D01*
X240288282Y-77584125D02*
X240288282Y-80364125D01*
X240328282Y-72356125D02*
X240328282Y-75104125D01*
X240328282Y-77584125D02*
X240328282Y-80332125D01*
X240368282Y-72387125D02*
X240368282Y-75104125D01*
X240368282Y-77584125D02*
X240368282Y-80301125D01*
X240408282Y-72420125D02*
X240408282Y-75104125D01*
X240408282Y-77584125D02*
X240408282Y-80268125D01*
X240448282Y-72453125D02*
X240448282Y-75104125D01*
X240448282Y-77584125D02*
X240448282Y-80235125D01*
X240488282Y-72486125D02*
X240488282Y-75104125D01*
X240488282Y-77584125D02*
X240488282Y-80202125D01*
X240528282Y-72521125D02*
X240528282Y-75104125D01*
X240528282Y-77584125D02*
X240528282Y-80167125D01*
X240568282Y-72556125D02*
X240568282Y-75104125D01*
X240568282Y-77584125D02*
X240568282Y-80132125D01*
X240608282Y-72592125D02*
X240608282Y-75104125D01*
X240608282Y-77584125D02*
X240608282Y-80096125D01*
X240648282Y-72628125D02*
X240648282Y-75104125D01*
X240648282Y-77584125D02*
X240648282Y-80060125D01*
X240688282Y-72666125D02*
X240688282Y-75104125D01*
X240688282Y-77584125D02*
X240688282Y-80022125D01*
X240728282Y-72704125D02*
X240728282Y-75104125D01*
X240728282Y-77584125D02*
X240728282Y-79984125D01*
X240768282Y-72743125D02*
X240768282Y-75104125D01*
X240768282Y-77584125D02*
X240768282Y-79945125D01*
X240808282Y-72783125D02*
X240808282Y-75104125D01*
X240808282Y-77584125D02*
X240808282Y-79905125D01*
X240848282Y-72824125D02*
X240848282Y-75104125D01*
X240848282Y-77584125D02*
X240848282Y-79864125D01*
X240888282Y-72866125D02*
X240888282Y-75104125D01*
X240888282Y-77584125D02*
X240888282Y-79822125D01*
X240928282Y-72909125D02*
X240928282Y-79779125D01*
X240968282Y-72953125D02*
X240968282Y-79735125D01*
X241008282Y-72997125D02*
X241008282Y-79691125D01*
X241048282Y-73043125D02*
X241048282Y-79645125D01*
X241088282Y-73090125D02*
X241088282Y-79598125D01*
X241128282Y-73139125D02*
X241128282Y-79549125D01*
X241168282Y-73188125D02*
X241168282Y-79500125D01*
X241208282Y-73239125D02*
X241208282Y-79449125D01*
X241248282Y-73291125D02*
X241248282Y-79397125D01*
X241288282Y-73344125D02*
X241288282Y-79344125D01*
X241328282Y-73399125D02*
X241328282Y-79289125D01*
X241368282Y-73456125D02*
X241368282Y-79232125D01*
X241408282Y-73514125D02*
X241408282Y-79174125D01*
X241448282Y-73574125D02*
X241448282Y-79114125D01*
X241488282Y-73636125D02*
X241488282Y-79052125D01*
X241528282Y-73700125D02*
X241528282Y-78988125D01*
X241568282Y-73766125D02*
X241568282Y-78922125D01*
X241608282Y-73834125D02*
X241608282Y-78854125D01*
X241648282Y-73905125D02*
X241648282Y-78783125D01*
X241688282Y-73979125D02*
X241688282Y-78709125D01*
X241728282Y-74056125D02*
X241728282Y-78632125D01*
X241768282Y-74136125D02*
X241768282Y-78552125D01*
X241808282Y-74220125D02*
X241808282Y-78468125D01*
X241848282Y-74307125D02*
X241848282Y-78381125D01*
X241888282Y-74400125D02*
X241888282Y-78288125D01*
X241928282Y-74498125D02*
X241928282Y-78190125D01*
X241968282Y-74602125D02*
X241968282Y-78086125D01*
X242008282Y-74714125D02*
X242008282Y-77974125D01*
X242048282Y-74835125D02*
X242048282Y-77853125D01*
X242088282Y-74967125D02*
X242088282Y-77721125D01*
X242128282Y-75114125D02*
X242128282Y-77574125D01*
X242168282Y-75282125D02*
X242168282Y-77406125D01*
X242208282Y-75482125D02*
X242208282Y-77206125D01*
X242248282Y-75745125D02*
X242248282Y-76943125D01*
X242288282Y-76344125D02*
G75*
G02*
X232048282Y-76344125I-5120000J0D01*
G01*
X232048282Y-76344125D02*
G75*
G02*
X242288282Y-76344125I5120000J0D01*
G01*
%TO.C,D7*%
X80838282Y-63184125D02*
X81858282Y-63184125D01*
X82638282Y-61714125D02*
X82638282Y-64654125D01*
X82758282Y-61714125D02*
X82758282Y-64654125D01*
X82878282Y-61714125D02*
X82878282Y-64654125D01*
X88318282Y-63184125D02*
X87298282Y-63184125D01*
X81858282Y-61714125D02*
X87298282Y-61714125D01*
X87298282Y-64654125D01*
X81858282Y-64654125D01*
X81858282Y-61714125D01*
%TO.C,D9*%
X180838282Y-63184125D02*
X181858282Y-63184125D01*
X182638282Y-61714125D02*
X182638282Y-64654125D01*
X182758282Y-61714125D02*
X182758282Y-64654125D01*
X182878282Y-61714125D02*
X182878282Y-64654125D01*
X188318282Y-63184125D02*
X187298282Y-63184125D01*
X181858282Y-61714125D02*
X187298282Y-61714125D01*
X187298282Y-64654125D01*
X181858282Y-64654125D01*
X181858282Y-61714125D01*
%TO.C,D5*%
X40948282Y-93089125D02*
X40948282Y-89999125D01*
X35398282Y-91544125D02*
G75*
G02*
X40948282Y-89999295I2990000J0D01*
G01*
X40948282Y-93088955D02*
G75*
G02*
X35398282Y-91544125I-2560000J1544830D01*
G01*
X40888282Y-91544125D02*
G75*
G02*
X35888282Y-91544125I-2500000J0D01*
G01*
X35888282Y-91544125D02*
G75*
G02*
X40888282Y-91544125I2500000J0D01*
G01*
%TO.C,D4*%
X19597032Y-124250000D02*
X20617032Y-124250000D01*
X21397032Y-122780000D02*
X21397032Y-125720000D01*
X21517032Y-122780000D02*
X21517032Y-125720000D01*
X21637032Y-122780000D02*
X21637032Y-125720000D01*
X27077032Y-124250000D02*
X26057032Y-124250000D01*
X20617032Y-122780000D02*
X26057032Y-122780000D01*
X26057032Y-125720000D01*
X20617032Y-125720000D01*
X20617032Y-122780000D01*
%TO.C,C8*%
X181688636Y-73469125D02*
X182688636Y-73469125D01*
X182188636Y-72969125D02*
X182188636Y-73969125D01*
X187168282Y-71264125D02*
X187168282Y-81424125D01*
X187208282Y-71264125D02*
X187208282Y-81424125D01*
X187248282Y-71265125D02*
X187248282Y-81423125D01*
X187288282Y-71265125D02*
X187288282Y-81423125D01*
X187328282Y-71267125D02*
X187328282Y-81421125D01*
X187368282Y-71268125D02*
X187368282Y-81420125D01*
X187408282Y-71270125D02*
X187408282Y-81418125D01*
X187448282Y-71272125D02*
X187448282Y-81416125D01*
X187488282Y-71274125D02*
X187488282Y-81414125D01*
X187528282Y-71277125D02*
X187528282Y-81411125D01*
X187568282Y-71280125D02*
X187568282Y-81408125D01*
X187608282Y-71283125D02*
X187608282Y-81405125D01*
X187648282Y-71287125D02*
X187648282Y-81401125D01*
X187688282Y-71290125D02*
X187688282Y-81398125D01*
X187728282Y-71295125D02*
X187728282Y-81393125D01*
X187768282Y-71299125D02*
X187768282Y-81389125D01*
X187808282Y-71304125D02*
X187808282Y-81384125D01*
X187848282Y-71309125D02*
X187848282Y-81379125D01*
X187888282Y-71315125D02*
X187888282Y-81373125D01*
X187928282Y-71321125D02*
X187928282Y-81367125D01*
X187968282Y-71327125D02*
X187968282Y-81361125D01*
X188008282Y-71333125D02*
X188008282Y-81355125D01*
X188048282Y-71340125D02*
X188048282Y-81348125D01*
X188088282Y-71347125D02*
X188088282Y-81341125D01*
X188128282Y-71355125D02*
X188128282Y-81333125D01*
X188168282Y-71363125D02*
X188168282Y-81325125D01*
X188208282Y-71371125D02*
X188208282Y-81317125D01*
X188248282Y-71379125D02*
X188248282Y-81309125D01*
X188288282Y-71388125D02*
X188288282Y-81300125D01*
X188328282Y-71397125D02*
X188328282Y-81291125D01*
X188368282Y-71407125D02*
X188368282Y-81281125D01*
X188408282Y-71416125D02*
X188408282Y-81272125D01*
X188448282Y-71427125D02*
X188448282Y-75104125D01*
X188448282Y-77584125D02*
X188448282Y-81261125D01*
X188488282Y-71437125D02*
X188488282Y-75104125D01*
X188488282Y-77584125D02*
X188488282Y-81251125D01*
X188528282Y-71448125D02*
X188528282Y-75104125D01*
X188528282Y-77584125D02*
X188528282Y-81240125D01*
X188568282Y-71459125D02*
X188568282Y-75104125D01*
X188568282Y-77584125D02*
X188568282Y-81229125D01*
X188608282Y-71471125D02*
X188608282Y-75104125D01*
X188608282Y-77584125D02*
X188608282Y-81217125D01*
X188648282Y-71483125D02*
X188648282Y-75104125D01*
X188648282Y-77584125D02*
X188648282Y-81205125D01*
X188688282Y-71495125D02*
X188688282Y-75104125D01*
X188688282Y-77584125D02*
X188688282Y-81193125D01*
X188728282Y-71507125D02*
X188728282Y-75104125D01*
X188728282Y-77584125D02*
X188728282Y-81181125D01*
X188768282Y-71520125D02*
X188768282Y-75104125D01*
X188768282Y-77584125D02*
X188768282Y-81168125D01*
X188808282Y-71534125D02*
X188808282Y-75104125D01*
X188808282Y-77584125D02*
X188808282Y-81154125D01*
X188848282Y-71547125D02*
X188848282Y-75104125D01*
X188848282Y-77584125D02*
X188848282Y-81141125D01*
X188888282Y-71562125D02*
X188888282Y-75104125D01*
X188888282Y-77584125D02*
X188888282Y-81126125D01*
X188928282Y-71576125D02*
X188928282Y-75104125D01*
X188928282Y-77584125D02*
X188928282Y-81112125D01*
X188968282Y-71591125D02*
X188968282Y-75104125D01*
X188968282Y-77584125D02*
X188968282Y-81097125D01*
X189008282Y-71606125D02*
X189008282Y-75104125D01*
X189008282Y-77584125D02*
X189008282Y-81082125D01*
X189048282Y-71622125D02*
X189048282Y-75104125D01*
X189048282Y-77584125D02*
X189048282Y-81066125D01*
X189088282Y-71638125D02*
X189088282Y-75104125D01*
X189088282Y-77584125D02*
X189088282Y-81050125D01*
X189128282Y-71654125D02*
X189128282Y-75104125D01*
X189128282Y-77584125D02*
X189128282Y-81034125D01*
X189168282Y-71671125D02*
X189168282Y-75104125D01*
X189168282Y-77584125D02*
X189168282Y-81017125D01*
X189208282Y-71688125D02*
X189208282Y-75104125D01*
X189208282Y-77584125D02*
X189208282Y-81000125D01*
X189248282Y-71706125D02*
X189248282Y-75104125D01*
X189248282Y-77584125D02*
X189248282Y-80982125D01*
X189288282Y-71724125D02*
X189288282Y-75104125D01*
X189288282Y-77584125D02*
X189288282Y-80964125D01*
X189328282Y-71742125D02*
X189328282Y-75104125D01*
X189328282Y-77584125D02*
X189328282Y-80946125D01*
X189368282Y-71761125D02*
X189368282Y-75104125D01*
X189368282Y-77584125D02*
X189368282Y-80927125D01*
X189408282Y-71780125D02*
X189408282Y-75104125D01*
X189408282Y-77584125D02*
X189408282Y-80908125D01*
X189448282Y-71800125D02*
X189448282Y-75104125D01*
X189448282Y-77584125D02*
X189448282Y-80888125D01*
X189488282Y-71820125D02*
X189488282Y-75104125D01*
X189488282Y-77584125D02*
X189488282Y-80868125D01*
X189528282Y-71840125D02*
X189528282Y-75104125D01*
X189528282Y-77584125D02*
X189528282Y-80848125D01*
X189568282Y-71861125D02*
X189568282Y-75104125D01*
X189568282Y-77584125D02*
X189568282Y-80827125D01*
X189608282Y-71883125D02*
X189608282Y-75104125D01*
X189608282Y-77584125D02*
X189608282Y-80805125D01*
X189648282Y-71905125D02*
X189648282Y-75104125D01*
X189648282Y-77584125D02*
X189648282Y-80783125D01*
X189688282Y-71927125D02*
X189688282Y-75104125D01*
X189688282Y-77584125D02*
X189688282Y-80761125D01*
X189728282Y-71950125D02*
X189728282Y-75104125D01*
X189728282Y-77584125D02*
X189728282Y-80738125D01*
X189768282Y-71973125D02*
X189768282Y-75104125D01*
X189768282Y-77584125D02*
X189768282Y-80715125D01*
X189808282Y-71997125D02*
X189808282Y-75104125D01*
X189808282Y-77584125D02*
X189808282Y-80691125D01*
X189848282Y-72021125D02*
X189848282Y-75104125D01*
X189848282Y-77584125D02*
X189848282Y-80667125D01*
X189888282Y-72046125D02*
X189888282Y-75104125D01*
X189888282Y-77584125D02*
X189888282Y-80642125D01*
X189928282Y-72072125D02*
X189928282Y-75104125D01*
X189928282Y-77584125D02*
X189928282Y-80616125D01*
X189968282Y-72097125D02*
X189968282Y-75104125D01*
X189968282Y-77584125D02*
X189968282Y-80591125D01*
X190008282Y-72124125D02*
X190008282Y-75104125D01*
X190008282Y-77584125D02*
X190008282Y-80564125D01*
X190048282Y-72151125D02*
X190048282Y-75104125D01*
X190048282Y-77584125D02*
X190048282Y-80537125D01*
X190088282Y-72178125D02*
X190088282Y-75104125D01*
X190088282Y-77584125D02*
X190088282Y-80510125D01*
X190128282Y-72206125D02*
X190128282Y-75104125D01*
X190128282Y-77584125D02*
X190128282Y-80482125D01*
X190168282Y-72235125D02*
X190168282Y-75104125D01*
X190168282Y-77584125D02*
X190168282Y-80453125D01*
X190208282Y-72264125D02*
X190208282Y-75104125D01*
X190208282Y-77584125D02*
X190208282Y-80424125D01*
X190248282Y-72294125D02*
X190248282Y-75104125D01*
X190248282Y-77584125D02*
X190248282Y-80394125D01*
X190288282Y-72324125D02*
X190288282Y-75104125D01*
X190288282Y-77584125D02*
X190288282Y-80364125D01*
X190328282Y-72356125D02*
X190328282Y-75104125D01*
X190328282Y-77584125D02*
X190328282Y-80332125D01*
X190368282Y-72387125D02*
X190368282Y-75104125D01*
X190368282Y-77584125D02*
X190368282Y-80301125D01*
X190408282Y-72420125D02*
X190408282Y-75104125D01*
X190408282Y-77584125D02*
X190408282Y-80268125D01*
X190448282Y-72453125D02*
X190448282Y-75104125D01*
X190448282Y-77584125D02*
X190448282Y-80235125D01*
X190488282Y-72486125D02*
X190488282Y-75104125D01*
X190488282Y-77584125D02*
X190488282Y-80202125D01*
X190528282Y-72521125D02*
X190528282Y-75104125D01*
X190528282Y-77584125D02*
X190528282Y-80167125D01*
X190568282Y-72556125D02*
X190568282Y-75104125D01*
X190568282Y-77584125D02*
X190568282Y-80132125D01*
X190608282Y-72592125D02*
X190608282Y-75104125D01*
X190608282Y-77584125D02*
X190608282Y-80096125D01*
X190648282Y-72628125D02*
X190648282Y-75104125D01*
X190648282Y-77584125D02*
X190648282Y-80060125D01*
X190688282Y-72666125D02*
X190688282Y-75104125D01*
X190688282Y-77584125D02*
X190688282Y-80022125D01*
X190728282Y-72704125D02*
X190728282Y-75104125D01*
X190728282Y-77584125D02*
X190728282Y-79984125D01*
X190768282Y-72743125D02*
X190768282Y-75104125D01*
X190768282Y-77584125D02*
X190768282Y-79945125D01*
X190808282Y-72783125D02*
X190808282Y-75104125D01*
X190808282Y-77584125D02*
X190808282Y-79905125D01*
X190848282Y-72824125D02*
X190848282Y-75104125D01*
X190848282Y-77584125D02*
X190848282Y-79864125D01*
X190888282Y-72866125D02*
X190888282Y-75104125D01*
X190888282Y-77584125D02*
X190888282Y-79822125D01*
X190928282Y-72909125D02*
X190928282Y-79779125D01*
X190968282Y-72953125D02*
X190968282Y-79735125D01*
X191008282Y-72997125D02*
X191008282Y-79691125D01*
X191048282Y-73043125D02*
X191048282Y-79645125D01*
X191088282Y-73090125D02*
X191088282Y-79598125D01*
X191128282Y-73139125D02*
X191128282Y-79549125D01*
X191168282Y-73188125D02*
X191168282Y-79500125D01*
X191208282Y-73239125D02*
X191208282Y-79449125D01*
X191248282Y-73291125D02*
X191248282Y-79397125D01*
X191288282Y-73344125D02*
X191288282Y-79344125D01*
X191328282Y-73399125D02*
X191328282Y-79289125D01*
X191368282Y-73456125D02*
X191368282Y-79232125D01*
X191408282Y-73514125D02*
X191408282Y-79174125D01*
X191448282Y-73574125D02*
X191448282Y-79114125D01*
X191488282Y-73636125D02*
X191488282Y-79052125D01*
X191528282Y-73700125D02*
X191528282Y-78988125D01*
X191568282Y-73766125D02*
X191568282Y-78922125D01*
X191608282Y-73834125D02*
X191608282Y-78854125D01*
X191648282Y-73905125D02*
X191648282Y-78783125D01*
X191688282Y-73979125D02*
X191688282Y-78709125D01*
X191728282Y-74056125D02*
X191728282Y-78632125D01*
X191768282Y-74136125D02*
X191768282Y-78552125D01*
X191808282Y-74220125D02*
X191808282Y-78468125D01*
X191848282Y-74307125D02*
X191848282Y-78381125D01*
X191888282Y-74400125D02*
X191888282Y-78288125D01*
X191928282Y-74498125D02*
X191928282Y-78190125D01*
X191968282Y-74602125D02*
X191968282Y-78086125D01*
X192008282Y-74714125D02*
X192008282Y-77974125D01*
X192048282Y-74835125D02*
X192048282Y-77853125D01*
X192088282Y-74967125D02*
X192088282Y-77721125D01*
X192128282Y-75114125D02*
X192128282Y-77574125D01*
X192168282Y-75282125D02*
X192168282Y-77406125D01*
X192208282Y-75482125D02*
X192208282Y-77206125D01*
X192248282Y-75745125D02*
X192248282Y-76943125D01*
X192288282Y-76344125D02*
G75*
G02*
X182048282Y-76344125I-5120000J0D01*
G01*
X182048282Y-76344125D02*
G75*
G02*
X192288282Y-76344125I5120000J0D01*
G01*
%TO.C,C7*%
X124188636Y-40109125D02*
X125188636Y-40109125D01*
X124688636Y-39609125D02*
X124688636Y-40609125D01*
X129668282Y-37904125D02*
X129668282Y-48064125D01*
X129708282Y-37904125D02*
X129708282Y-48064125D01*
X129748282Y-37905125D02*
X129748282Y-48063125D01*
X129788282Y-37905125D02*
X129788282Y-48063125D01*
X129828282Y-37907125D02*
X129828282Y-48061125D01*
X129868282Y-37908125D02*
X129868282Y-48060125D01*
X129908282Y-37910125D02*
X129908282Y-48058125D01*
X129948282Y-37912125D02*
X129948282Y-48056125D01*
X129988282Y-37914125D02*
X129988282Y-48054125D01*
X130028282Y-37917125D02*
X130028282Y-48051125D01*
X130068282Y-37920125D02*
X130068282Y-48048125D01*
X130108282Y-37923125D02*
X130108282Y-48045125D01*
X130148282Y-37927125D02*
X130148282Y-48041125D01*
X130188282Y-37930125D02*
X130188282Y-48038125D01*
X130228282Y-37935125D02*
X130228282Y-48033125D01*
X130268282Y-37939125D02*
X130268282Y-48029125D01*
X130308282Y-37944125D02*
X130308282Y-48024125D01*
X130348282Y-37949125D02*
X130348282Y-48019125D01*
X130388282Y-37955125D02*
X130388282Y-48013125D01*
X130428282Y-37961125D02*
X130428282Y-48007125D01*
X130468282Y-37967125D02*
X130468282Y-48001125D01*
X130508282Y-37973125D02*
X130508282Y-47995125D01*
X130548282Y-37980125D02*
X130548282Y-47988125D01*
X130588282Y-37987125D02*
X130588282Y-47981125D01*
X130628282Y-37995125D02*
X130628282Y-47973125D01*
X130668282Y-38003125D02*
X130668282Y-47965125D01*
X130708282Y-38011125D02*
X130708282Y-47957125D01*
X130748282Y-38019125D02*
X130748282Y-47949125D01*
X130788282Y-38028125D02*
X130788282Y-47940125D01*
X130828282Y-38037125D02*
X130828282Y-47931125D01*
X130868282Y-38047125D02*
X130868282Y-47921125D01*
X130908282Y-38056125D02*
X130908282Y-47912125D01*
X130948282Y-38067125D02*
X130948282Y-41744125D01*
X130948282Y-44224125D02*
X130948282Y-47901125D01*
X130988282Y-38077125D02*
X130988282Y-41744125D01*
X130988282Y-44224125D02*
X130988282Y-47891125D01*
X131028282Y-38088125D02*
X131028282Y-41744125D01*
X131028282Y-44224125D02*
X131028282Y-47880125D01*
X131068282Y-38099125D02*
X131068282Y-41744125D01*
X131068282Y-44224125D02*
X131068282Y-47869125D01*
X131108282Y-38111125D02*
X131108282Y-41744125D01*
X131108282Y-44224125D02*
X131108282Y-47857125D01*
X131148282Y-38123125D02*
X131148282Y-41744125D01*
X131148282Y-44224125D02*
X131148282Y-47845125D01*
X131188282Y-38135125D02*
X131188282Y-41744125D01*
X131188282Y-44224125D02*
X131188282Y-47833125D01*
X131228282Y-38147125D02*
X131228282Y-41744125D01*
X131228282Y-44224125D02*
X131228282Y-47821125D01*
X131268282Y-38160125D02*
X131268282Y-41744125D01*
X131268282Y-44224125D02*
X131268282Y-47808125D01*
X131308282Y-38174125D02*
X131308282Y-41744125D01*
X131308282Y-44224125D02*
X131308282Y-47794125D01*
X131348282Y-38187125D02*
X131348282Y-41744125D01*
X131348282Y-44224125D02*
X131348282Y-47781125D01*
X131388282Y-38202125D02*
X131388282Y-41744125D01*
X131388282Y-44224125D02*
X131388282Y-47766125D01*
X131428282Y-38216125D02*
X131428282Y-41744125D01*
X131428282Y-44224125D02*
X131428282Y-47752125D01*
X131468282Y-38231125D02*
X131468282Y-41744125D01*
X131468282Y-44224125D02*
X131468282Y-47737125D01*
X131508282Y-38246125D02*
X131508282Y-41744125D01*
X131508282Y-44224125D02*
X131508282Y-47722125D01*
X131548282Y-38262125D02*
X131548282Y-41744125D01*
X131548282Y-44224125D02*
X131548282Y-47706125D01*
X131588282Y-38278125D02*
X131588282Y-41744125D01*
X131588282Y-44224125D02*
X131588282Y-47690125D01*
X131628282Y-38294125D02*
X131628282Y-41744125D01*
X131628282Y-44224125D02*
X131628282Y-47674125D01*
X131668282Y-38311125D02*
X131668282Y-41744125D01*
X131668282Y-44224125D02*
X131668282Y-47657125D01*
X131708282Y-38328125D02*
X131708282Y-41744125D01*
X131708282Y-44224125D02*
X131708282Y-47640125D01*
X131748282Y-38346125D02*
X131748282Y-41744125D01*
X131748282Y-44224125D02*
X131748282Y-47622125D01*
X131788282Y-38364125D02*
X131788282Y-41744125D01*
X131788282Y-44224125D02*
X131788282Y-47604125D01*
X131828282Y-38382125D02*
X131828282Y-41744125D01*
X131828282Y-44224125D02*
X131828282Y-47586125D01*
X131868282Y-38401125D02*
X131868282Y-41744125D01*
X131868282Y-44224125D02*
X131868282Y-47567125D01*
X131908282Y-38420125D02*
X131908282Y-41744125D01*
X131908282Y-44224125D02*
X131908282Y-47548125D01*
X131948282Y-38440125D02*
X131948282Y-41744125D01*
X131948282Y-44224125D02*
X131948282Y-47528125D01*
X131988282Y-38460125D02*
X131988282Y-41744125D01*
X131988282Y-44224125D02*
X131988282Y-47508125D01*
X132028282Y-38480125D02*
X132028282Y-41744125D01*
X132028282Y-44224125D02*
X132028282Y-47488125D01*
X132068282Y-38501125D02*
X132068282Y-41744125D01*
X132068282Y-44224125D02*
X132068282Y-47467125D01*
X132108282Y-38523125D02*
X132108282Y-41744125D01*
X132108282Y-44224125D02*
X132108282Y-47445125D01*
X132148282Y-38545125D02*
X132148282Y-41744125D01*
X132148282Y-44224125D02*
X132148282Y-47423125D01*
X132188282Y-38567125D02*
X132188282Y-41744125D01*
X132188282Y-44224125D02*
X132188282Y-47401125D01*
X132228282Y-38590125D02*
X132228282Y-41744125D01*
X132228282Y-44224125D02*
X132228282Y-47378125D01*
X132268282Y-38613125D02*
X132268282Y-41744125D01*
X132268282Y-44224125D02*
X132268282Y-47355125D01*
X132308282Y-38637125D02*
X132308282Y-41744125D01*
X132308282Y-44224125D02*
X132308282Y-47331125D01*
X132348282Y-38661125D02*
X132348282Y-41744125D01*
X132348282Y-44224125D02*
X132348282Y-47307125D01*
X132388282Y-38686125D02*
X132388282Y-41744125D01*
X132388282Y-44224125D02*
X132388282Y-47282125D01*
X132428282Y-38712125D02*
X132428282Y-41744125D01*
X132428282Y-44224125D02*
X132428282Y-47256125D01*
X132468282Y-38737125D02*
X132468282Y-41744125D01*
X132468282Y-44224125D02*
X132468282Y-47231125D01*
X132508282Y-38764125D02*
X132508282Y-41744125D01*
X132508282Y-44224125D02*
X132508282Y-47204125D01*
X132548282Y-38791125D02*
X132548282Y-41744125D01*
X132548282Y-44224125D02*
X132548282Y-47177125D01*
X132588282Y-38818125D02*
X132588282Y-41744125D01*
X132588282Y-44224125D02*
X132588282Y-47150125D01*
X132628282Y-38846125D02*
X132628282Y-41744125D01*
X132628282Y-44224125D02*
X132628282Y-47122125D01*
X132668282Y-38875125D02*
X132668282Y-41744125D01*
X132668282Y-44224125D02*
X132668282Y-47093125D01*
X132708282Y-38904125D02*
X132708282Y-41744125D01*
X132708282Y-44224125D02*
X132708282Y-47064125D01*
X132748282Y-38934125D02*
X132748282Y-41744125D01*
X132748282Y-44224125D02*
X132748282Y-47034125D01*
X132788282Y-38964125D02*
X132788282Y-41744125D01*
X132788282Y-44224125D02*
X132788282Y-47004125D01*
X132828282Y-38996125D02*
X132828282Y-41744125D01*
X132828282Y-44224125D02*
X132828282Y-46972125D01*
X132868282Y-39027125D02*
X132868282Y-41744125D01*
X132868282Y-44224125D02*
X132868282Y-46941125D01*
X132908282Y-39060125D02*
X132908282Y-41744125D01*
X132908282Y-44224125D02*
X132908282Y-46908125D01*
X132948282Y-39093125D02*
X132948282Y-41744125D01*
X132948282Y-44224125D02*
X132948282Y-46875125D01*
X132988282Y-39126125D02*
X132988282Y-41744125D01*
X132988282Y-44224125D02*
X132988282Y-46842125D01*
X133028282Y-39161125D02*
X133028282Y-41744125D01*
X133028282Y-44224125D02*
X133028282Y-46807125D01*
X133068282Y-39196125D02*
X133068282Y-41744125D01*
X133068282Y-44224125D02*
X133068282Y-46772125D01*
X133108282Y-39232125D02*
X133108282Y-41744125D01*
X133108282Y-44224125D02*
X133108282Y-46736125D01*
X133148282Y-39268125D02*
X133148282Y-41744125D01*
X133148282Y-44224125D02*
X133148282Y-46700125D01*
X133188282Y-39306125D02*
X133188282Y-41744125D01*
X133188282Y-44224125D02*
X133188282Y-46662125D01*
X133228282Y-39344125D02*
X133228282Y-41744125D01*
X133228282Y-44224125D02*
X133228282Y-46624125D01*
X133268282Y-39383125D02*
X133268282Y-41744125D01*
X133268282Y-44224125D02*
X133268282Y-46585125D01*
X133308282Y-39423125D02*
X133308282Y-41744125D01*
X133308282Y-44224125D02*
X133308282Y-46545125D01*
X133348282Y-39464125D02*
X133348282Y-41744125D01*
X133348282Y-44224125D02*
X133348282Y-46504125D01*
X133388282Y-39506125D02*
X133388282Y-41744125D01*
X133388282Y-44224125D02*
X133388282Y-46462125D01*
X133428282Y-39549125D02*
X133428282Y-46419125D01*
X133468282Y-39593125D02*
X133468282Y-46375125D01*
X133508282Y-39637125D02*
X133508282Y-46331125D01*
X133548282Y-39683125D02*
X133548282Y-46285125D01*
X133588282Y-39730125D02*
X133588282Y-46238125D01*
X133628282Y-39779125D02*
X133628282Y-46189125D01*
X133668282Y-39828125D02*
X133668282Y-46140125D01*
X133708282Y-39879125D02*
X133708282Y-46089125D01*
X133748282Y-39931125D02*
X133748282Y-46037125D01*
X133788282Y-39984125D02*
X133788282Y-45984125D01*
X133828282Y-40039125D02*
X133828282Y-45929125D01*
X133868282Y-40096125D02*
X133868282Y-45872125D01*
X133908282Y-40154125D02*
X133908282Y-45814125D01*
X133948282Y-40214125D02*
X133948282Y-45754125D01*
X133988282Y-40276125D02*
X133988282Y-45692125D01*
X134028282Y-40340125D02*
X134028282Y-45628125D01*
X134068282Y-40406125D02*
X134068282Y-45562125D01*
X134108282Y-40474125D02*
X134108282Y-45494125D01*
X134148282Y-40545125D02*
X134148282Y-45423125D01*
X134188282Y-40619125D02*
X134188282Y-45349125D01*
X134228282Y-40696125D02*
X134228282Y-45272125D01*
X134268282Y-40776125D02*
X134268282Y-45192125D01*
X134308282Y-40860125D02*
X134308282Y-45108125D01*
X134348282Y-40947125D02*
X134348282Y-45021125D01*
X134388282Y-41040125D02*
X134388282Y-44928125D01*
X134428282Y-41138125D02*
X134428282Y-44830125D01*
X134468282Y-41242125D02*
X134468282Y-44726125D01*
X134508282Y-41354125D02*
X134508282Y-44614125D01*
X134548282Y-41475125D02*
X134548282Y-44493125D01*
X134588282Y-41607125D02*
X134588282Y-44361125D01*
X134628282Y-41754125D02*
X134628282Y-44214125D01*
X134668282Y-41922125D02*
X134668282Y-44046125D01*
X134708282Y-42122125D02*
X134708282Y-43846125D01*
X134748282Y-42385125D02*
X134748282Y-43583125D01*
X134788282Y-42984125D02*
G75*
G02*
X124548282Y-42984125I-5120000J0D01*
G01*
X124548282Y-42984125D02*
G75*
G02*
X134788282Y-42984125I5120000J0D01*
G01*
%TO.C,Q4*%
X163798282Y-55534125D02*
X168418282Y-55534125D01*
X163798282Y-58794125D02*
X165178282Y-58794125D01*
X163798282Y-62494125D02*
X165178282Y-62494125D01*
X163798282Y-65754125D02*
X163798282Y-55534125D01*
X165178282Y-65754125D02*
X165178282Y-55534125D01*
X168418282Y-55534125D02*
X168418282Y-65754125D01*
X168418282Y-65754125D02*
X163798282Y-65754125D01*
%TO.C,R5*%
X167588282Y-74974125D02*
X167588282Y-75304125D01*
X167588282Y-77714125D02*
X167588282Y-77384125D01*
X174128282Y-74974125D02*
X167588282Y-74974125D01*
X174128282Y-75304125D02*
X174128282Y-74974125D01*
X174128282Y-77384125D02*
X174128282Y-77714125D01*
X174128282Y-77714125D02*
X167588282Y-77714125D01*
%TO.C,D2*%
X19587032Y-133500000D02*
X20607032Y-133500000D01*
X21387032Y-132030000D02*
X21387032Y-134970000D01*
X21507032Y-132030000D02*
X21507032Y-134970000D01*
X21627032Y-132030000D02*
X21627032Y-134970000D01*
X27067032Y-133500000D02*
X26047032Y-133500000D01*
X20607032Y-132030000D02*
X26047032Y-132030000D01*
X26047032Y-134970000D01*
X20607032Y-134970000D01*
X20607032Y-132030000D01*
%TO.C,R1*%
X17598282Y-90174125D02*
X17598282Y-90504125D01*
X17598282Y-92914125D02*
X17598282Y-92584125D01*
X24138282Y-90174125D02*
X17598282Y-90174125D01*
X24138282Y-90504125D02*
X24138282Y-90174125D01*
X24138282Y-92584125D02*
X24138282Y-92914125D01*
X24138282Y-92914125D02*
X17598282Y-92914125D01*
%TO.C,J7*%
X142907032Y-18444125D02*
G75*
G02*
X131907032Y-18444125I-5500000J0D01*
G01*
X131907032Y-18444125D02*
G75*
G02*
X142907032Y-18444125I5500000J0D01*
G01*
%TO.C,R3*%
X67588282Y-74974125D02*
X67588282Y-75304125D01*
X67588282Y-77714125D02*
X67588282Y-77384125D01*
X74128282Y-74974125D02*
X67588282Y-74974125D01*
X74128282Y-75304125D02*
X74128282Y-74974125D01*
X74128282Y-77384125D02*
X74128282Y-77714125D01*
X74128282Y-77714125D02*
X67588282Y-77714125D01*
%TO.C,C6*%
X131688636Y-73469125D02*
X132688636Y-73469125D01*
X132188636Y-72969125D02*
X132188636Y-73969125D01*
X137168282Y-71264125D02*
X137168282Y-81424125D01*
X137208282Y-71264125D02*
X137208282Y-81424125D01*
X137248282Y-71265125D02*
X137248282Y-81423125D01*
X137288282Y-71265125D02*
X137288282Y-81423125D01*
X137328282Y-71267125D02*
X137328282Y-81421125D01*
X137368282Y-71268125D02*
X137368282Y-81420125D01*
X137408282Y-71270125D02*
X137408282Y-81418125D01*
X137448282Y-71272125D02*
X137448282Y-81416125D01*
X137488282Y-71274125D02*
X137488282Y-81414125D01*
X137528282Y-71277125D02*
X137528282Y-81411125D01*
X137568282Y-71280125D02*
X137568282Y-81408125D01*
X137608282Y-71283125D02*
X137608282Y-81405125D01*
X137648282Y-71287125D02*
X137648282Y-81401125D01*
X137688282Y-71290125D02*
X137688282Y-81398125D01*
X137728282Y-71295125D02*
X137728282Y-81393125D01*
X137768282Y-71299125D02*
X137768282Y-81389125D01*
X137808282Y-71304125D02*
X137808282Y-81384125D01*
X137848282Y-71309125D02*
X137848282Y-81379125D01*
X137888282Y-71315125D02*
X137888282Y-81373125D01*
X137928282Y-71321125D02*
X137928282Y-81367125D01*
X137968282Y-71327125D02*
X137968282Y-81361125D01*
X138008282Y-71333125D02*
X138008282Y-81355125D01*
X138048282Y-71340125D02*
X138048282Y-81348125D01*
X138088282Y-71347125D02*
X138088282Y-81341125D01*
X138128282Y-71355125D02*
X138128282Y-81333125D01*
X138168282Y-71363125D02*
X138168282Y-81325125D01*
X138208282Y-71371125D02*
X138208282Y-81317125D01*
X138248282Y-71379125D02*
X138248282Y-81309125D01*
X138288282Y-71388125D02*
X138288282Y-81300125D01*
X138328282Y-71397125D02*
X138328282Y-81291125D01*
X138368282Y-71407125D02*
X138368282Y-81281125D01*
X138408282Y-71416125D02*
X138408282Y-81272125D01*
X138448282Y-71427125D02*
X138448282Y-75104125D01*
X138448282Y-77584125D02*
X138448282Y-81261125D01*
X138488282Y-71437125D02*
X138488282Y-75104125D01*
X138488282Y-77584125D02*
X138488282Y-81251125D01*
X138528282Y-71448125D02*
X138528282Y-75104125D01*
X138528282Y-77584125D02*
X138528282Y-81240125D01*
X138568282Y-71459125D02*
X138568282Y-75104125D01*
X138568282Y-77584125D02*
X138568282Y-81229125D01*
X138608282Y-71471125D02*
X138608282Y-75104125D01*
X138608282Y-77584125D02*
X138608282Y-81217125D01*
X138648282Y-71483125D02*
X138648282Y-75104125D01*
X138648282Y-77584125D02*
X138648282Y-81205125D01*
X138688282Y-71495125D02*
X138688282Y-75104125D01*
X138688282Y-77584125D02*
X138688282Y-81193125D01*
X138728282Y-71507125D02*
X138728282Y-75104125D01*
X138728282Y-77584125D02*
X138728282Y-81181125D01*
X138768282Y-71520125D02*
X138768282Y-75104125D01*
X138768282Y-77584125D02*
X138768282Y-81168125D01*
X138808282Y-71534125D02*
X138808282Y-75104125D01*
X138808282Y-77584125D02*
X138808282Y-81154125D01*
X138848282Y-71547125D02*
X138848282Y-75104125D01*
X138848282Y-77584125D02*
X138848282Y-81141125D01*
X138888282Y-71562125D02*
X138888282Y-75104125D01*
X138888282Y-77584125D02*
X138888282Y-81126125D01*
X138928282Y-71576125D02*
X138928282Y-75104125D01*
X138928282Y-77584125D02*
X138928282Y-81112125D01*
X138968282Y-71591125D02*
X138968282Y-75104125D01*
X138968282Y-77584125D02*
X138968282Y-81097125D01*
X139008282Y-71606125D02*
X139008282Y-75104125D01*
X139008282Y-77584125D02*
X139008282Y-81082125D01*
X139048282Y-71622125D02*
X139048282Y-75104125D01*
X139048282Y-77584125D02*
X139048282Y-81066125D01*
X139088282Y-71638125D02*
X139088282Y-75104125D01*
X139088282Y-77584125D02*
X139088282Y-81050125D01*
X139128282Y-71654125D02*
X139128282Y-75104125D01*
X139128282Y-77584125D02*
X139128282Y-81034125D01*
X139168282Y-71671125D02*
X139168282Y-75104125D01*
X139168282Y-77584125D02*
X139168282Y-81017125D01*
X139208282Y-71688125D02*
X139208282Y-75104125D01*
X139208282Y-77584125D02*
X139208282Y-81000125D01*
X139248282Y-71706125D02*
X139248282Y-75104125D01*
X139248282Y-77584125D02*
X139248282Y-80982125D01*
X139288282Y-71724125D02*
X139288282Y-75104125D01*
X139288282Y-77584125D02*
X139288282Y-80964125D01*
X139328282Y-71742125D02*
X139328282Y-75104125D01*
X139328282Y-77584125D02*
X139328282Y-80946125D01*
X139368282Y-71761125D02*
X139368282Y-75104125D01*
X139368282Y-77584125D02*
X139368282Y-80927125D01*
X139408282Y-71780125D02*
X139408282Y-75104125D01*
X139408282Y-77584125D02*
X139408282Y-80908125D01*
X139448282Y-71800125D02*
X139448282Y-75104125D01*
X139448282Y-77584125D02*
X139448282Y-80888125D01*
X139488282Y-71820125D02*
X139488282Y-75104125D01*
X139488282Y-77584125D02*
X139488282Y-80868125D01*
X139528282Y-71840125D02*
X139528282Y-75104125D01*
X139528282Y-77584125D02*
X139528282Y-80848125D01*
X139568282Y-71861125D02*
X139568282Y-75104125D01*
X139568282Y-77584125D02*
X139568282Y-80827125D01*
X139608282Y-71883125D02*
X139608282Y-75104125D01*
X139608282Y-77584125D02*
X139608282Y-80805125D01*
X139648282Y-71905125D02*
X139648282Y-75104125D01*
X139648282Y-77584125D02*
X139648282Y-80783125D01*
X139688282Y-71927125D02*
X139688282Y-75104125D01*
X139688282Y-77584125D02*
X139688282Y-80761125D01*
X139728282Y-71950125D02*
X139728282Y-75104125D01*
X139728282Y-77584125D02*
X139728282Y-80738125D01*
X139768282Y-71973125D02*
X139768282Y-75104125D01*
X139768282Y-77584125D02*
X139768282Y-80715125D01*
X139808282Y-71997125D02*
X139808282Y-75104125D01*
X139808282Y-77584125D02*
X139808282Y-80691125D01*
X139848282Y-72021125D02*
X139848282Y-75104125D01*
X139848282Y-77584125D02*
X139848282Y-80667125D01*
X139888282Y-72046125D02*
X139888282Y-75104125D01*
X139888282Y-77584125D02*
X139888282Y-80642125D01*
X139928282Y-72072125D02*
X139928282Y-75104125D01*
X139928282Y-77584125D02*
X139928282Y-80616125D01*
X139968282Y-72097125D02*
X139968282Y-75104125D01*
X139968282Y-77584125D02*
X139968282Y-80591125D01*
X140008282Y-72124125D02*
X140008282Y-75104125D01*
X140008282Y-77584125D02*
X140008282Y-80564125D01*
X140048282Y-72151125D02*
X140048282Y-75104125D01*
X140048282Y-77584125D02*
X140048282Y-80537125D01*
X140088282Y-72178125D02*
X140088282Y-75104125D01*
X140088282Y-77584125D02*
X140088282Y-80510125D01*
X140128282Y-72206125D02*
X140128282Y-75104125D01*
X140128282Y-77584125D02*
X140128282Y-80482125D01*
X140168282Y-72235125D02*
X140168282Y-75104125D01*
X140168282Y-77584125D02*
X140168282Y-80453125D01*
X140208282Y-72264125D02*
X140208282Y-75104125D01*
X140208282Y-77584125D02*
X140208282Y-80424125D01*
X140248282Y-72294125D02*
X140248282Y-75104125D01*
X140248282Y-77584125D02*
X140248282Y-80394125D01*
X140288282Y-72324125D02*
X140288282Y-75104125D01*
X140288282Y-77584125D02*
X140288282Y-80364125D01*
X140328282Y-72356125D02*
X140328282Y-75104125D01*
X140328282Y-77584125D02*
X140328282Y-80332125D01*
X140368282Y-72387125D02*
X140368282Y-75104125D01*
X140368282Y-77584125D02*
X140368282Y-80301125D01*
X140408282Y-72420125D02*
X140408282Y-75104125D01*
X140408282Y-77584125D02*
X140408282Y-80268125D01*
X140448282Y-72453125D02*
X140448282Y-75104125D01*
X140448282Y-77584125D02*
X140448282Y-80235125D01*
X140488282Y-72486125D02*
X140488282Y-75104125D01*
X140488282Y-77584125D02*
X140488282Y-80202125D01*
X140528282Y-72521125D02*
X140528282Y-75104125D01*
X140528282Y-77584125D02*
X140528282Y-80167125D01*
X140568282Y-72556125D02*
X140568282Y-75104125D01*
X140568282Y-77584125D02*
X140568282Y-80132125D01*
X140608282Y-72592125D02*
X140608282Y-75104125D01*
X140608282Y-77584125D02*
X140608282Y-80096125D01*
X140648282Y-72628125D02*
X140648282Y-75104125D01*
X140648282Y-77584125D02*
X140648282Y-80060125D01*
X140688282Y-72666125D02*
X140688282Y-75104125D01*
X140688282Y-77584125D02*
X140688282Y-80022125D01*
X140728282Y-72704125D02*
X140728282Y-75104125D01*
X140728282Y-77584125D02*
X140728282Y-79984125D01*
X140768282Y-72743125D02*
X140768282Y-75104125D01*
X140768282Y-77584125D02*
X140768282Y-79945125D01*
X140808282Y-72783125D02*
X140808282Y-75104125D01*
X140808282Y-77584125D02*
X140808282Y-79905125D01*
X140848282Y-72824125D02*
X140848282Y-75104125D01*
X140848282Y-77584125D02*
X140848282Y-79864125D01*
X140888282Y-72866125D02*
X140888282Y-75104125D01*
X140888282Y-77584125D02*
X140888282Y-79822125D01*
X140928282Y-72909125D02*
X140928282Y-79779125D01*
X140968282Y-72953125D02*
X140968282Y-79735125D01*
X141008282Y-72997125D02*
X141008282Y-79691125D01*
X141048282Y-73043125D02*
X141048282Y-79645125D01*
X141088282Y-73090125D02*
X141088282Y-79598125D01*
X141128282Y-73139125D02*
X141128282Y-79549125D01*
X141168282Y-73188125D02*
X141168282Y-79500125D01*
X141208282Y-73239125D02*
X141208282Y-79449125D01*
X141248282Y-73291125D02*
X141248282Y-79397125D01*
X141288282Y-73344125D02*
X141288282Y-79344125D01*
X141328282Y-73399125D02*
X141328282Y-79289125D01*
X141368282Y-73456125D02*
X141368282Y-79232125D01*
X141408282Y-73514125D02*
X141408282Y-79174125D01*
X141448282Y-73574125D02*
X141448282Y-79114125D01*
X141488282Y-73636125D02*
X141488282Y-79052125D01*
X141528282Y-73700125D02*
X141528282Y-78988125D01*
X141568282Y-73766125D02*
X141568282Y-78922125D01*
X141608282Y-73834125D02*
X141608282Y-78854125D01*
X141648282Y-73905125D02*
X141648282Y-78783125D01*
X141688282Y-73979125D02*
X141688282Y-78709125D01*
X141728282Y-74056125D02*
X141728282Y-78632125D01*
X141768282Y-74136125D02*
X141768282Y-78552125D01*
X141808282Y-74220125D02*
X141808282Y-78468125D01*
X141848282Y-74307125D02*
X141848282Y-78381125D01*
X141888282Y-74400125D02*
X141888282Y-78288125D01*
X141928282Y-74498125D02*
X141928282Y-78190125D01*
X141968282Y-74602125D02*
X141968282Y-78086125D01*
X142008282Y-74714125D02*
X142008282Y-77974125D01*
X142048282Y-74835125D02*
X142048282Y-77853125D01*
X142088282Y-74967125D02*
X142088282Y-77721125D01*
X142128282Y-75114125D02*
X142128282Y-77574125D01*
X142168282Y-75282125D02*
X142168282Y-77406125D01*
X142208282Y-75482125D02*
X142208282Y-77206125D01*
X142248282Y-75745125D02*
X142248282Y-76943125D01*
X142288282Y-76344125D02*
G75*
G02*
X132048282Y-76344125I-5120000J0D01*
G01*
X132048282Y-76344125D02*
G75*
G02*
X142288282Y-76344125I5120000J0D01*
G01*
%TO.C,D1*%
X36137032Y-133500000D02*
X37157032Y-133500000D01*
X37937032Y-132030000D02*
X37937032Y-134970000D01*
X38057032Y-132030000D02*
X38057032Y-134970000D01*
X38177032Y-132030000D02*
X38177032Y-134970000D01*
X43617032Y-133500000D02*
X42597032Y-133500000D01*
X37157032Y-132030000D02*
X42597032Y-132030000D01*
X42597032Y-134970000D01*
X37157032Y-134970000D01*
X37157032Y-132030000D01*
%TO.C,Q5*%
X213798282Y-55534125D02*
X218418282Y-55534125D01*
X213798282Y-58794125D02*
X215178282Y-58794125D01*
X213798282Y-62494125D02*
X215178282Y-62494125D01*
X213798282Y-65754125D02*
X213798282Y-55534125D01*
X215178282Y-65754125D02*
X215178282Y-55534125D01*
X218418282Y-55534125D02*
X218418282Y-65754125D01*
X218418282Y-65754125D02*
X213798282Y-65754125D01*
%TO.C,D10*%
X230838282Y-63184125D02*
X231858282Y-63184125D01*
X232638282Y-61714125D02*
X232638282Y-64654125D01*
X232758282Y-61714125D02*
X232758282Y-64654125D01*
X232878282Y-61714125D02*
X232878282Y-64654125D01*
X238318282Y-63184125D02*
X237298282Y-63184125D01*
X231858282Y-61714125D02*
X237298282Y-61714125D01*
X237298282Y-64654125D01*
X231858282Y-64654125D01*
X231858282Y-61714125D01*
%TO.C,C9*%
X174188636Y-40109125D02*
X175188636Y-40109125D01*
X174688636Y-39609125D02*
X174688636Y-40609125D01*
X179668282Y-37904125D02*
X179668282Y-48064125D01*
X179708282Y-37904125D02*
X179708282Y-48064125D01*
X179748282Y-37905125D02*
X179748282Y-48063125D01*
X179788282Y-37905125D02*
X179788282Y-48063125D01*
X179828282Y-37907125D02*
X179828282Y-48061125D01*
X179868282Y-37908125D02*
X179868282Y-48060125D01*
X179908282Y-37910125D02*
X179908282Y-48058125D01*
X179948282Y-37912125D02*
X179948282Y-48056125D01*
X179988282Y-37914125D02*
X179988282Y-48054125D01*
X180028282Y-37917125D02*
X180028282Y-48051125D01*
X180068282Y-37920125D02*
X180068282Y-48048125D01*
X180108282Y-37923125D02*
X180108282Y-48045125D01*
X180148282Y-37927125D02*
X180148282Y-48041125D01*
X180188282Y-37930125D02*
X180188282Y-48038125D01*
X180228282Y-37935125D02*
X180228282Y-48033125D01*
X180268282Y-37939125D02*
X180268282Y-48029125D01*
X180308282Y-37944125D02*
X180308282Y-48024125D01*
X180348282Y-37949125D02*
X180348282Y-48019125D01*
X180388282Y-37955125D02*
X180388282Y-48013125D01*
X180428282Y-37961125D02*
X180428282Y-48007125D01*
X180468282Y-37967125D02*
X180468282Y-48001125D01*
X180508282Y-37973125D02*
X180508282Y-47995125D01*
X180548282Y-37980125D02*
X180548282Y-47988125D01*
X180588282Y-37987125D02*
X180588282Y-47981125D01*
X180628282Y-37995125D02*
X180628282Y-47973125D01*
X180668282Y-38003125D02*
X180668282Y-47965125D01*
X180708282Y-38011125D02*
X180708282Y-47957125D01*
X180748282Y-38019125D02*
X180748282Y-47949125D01*
X180788282Y-38028125D02*
X180788282Y-47940125D01*
X180828282Y-38037125D02*
X180828282Y-47931125D01*
X180868282Y-38047125D02*
X180868282Y-47921125D01*
X180908282Y-38056125D02*
X180908282Y-47912125D01*
X180948282Y-38067125D02*
X180948282Y-41744125D01*
X180948282Y-44224125D02*
X180948282Y-47901125D01*
X180988282Y-38077125D02*
X180988282Y-41744125D01*
X180988282Y-44224125D02*
X180988282Y-47891125D01*
X181028282Y-38088125D02*
X181028282Y-41744125D01*
X181028282Y-44224125D02*
X181028282Y-47880125D01*
X181068282Y-38099125D02*
X181068282Y-41744125D01*
X181068282Y-44224125D02*
X181068282Y-47869125D01*
X181108282Y-38111125D02*
X181108282Y-41744125D01*
X181108282Y-44224125D02*
X181108282Y-47857125D01*
X181148282Y-38123125D02*
X181148282Y-41744125D01*
X181148282Y-44224125D02*
X181148282Y-47845125D01*
X181188282Y-38135125D02*
X181188282Y-41744125D01*
X181188282Y-44224125D02*
X181188282Y-47833125D01*
X181228282Y-38147125D02*
X181228282Y-41744125D01*
X181228282Y-44224125D02*
X181228282Y-47821125D01*
X181268282Y-38160125D02*
X181268282Y-41744125D01*
X181268282Y-44224125D02*
X181268282Y-47808125D01*
X181308282Y-38174125D02*
X181308282Y-41744125D01*
X181308282Y-44224125D02*
X181308282Y-47794125D01*
X181348282Y-38187125D02*
X181348282Y-41744125D01*
X181348282Y-44224125D02*
X181348282Y-47781125D01*
X181388282Y-38202125D02*
X181388282Y-41744125D01*
X181388282Y-44224125D02*
X181388282Y-47766125D01*
X181428282Y-38216125D02*
X181428282Y-41744125D01*
X181428282Y-44224125D02*
X181428282Y-47752125D01*
X181468282Y-38231125D02*
X181468282Y-41744125D01*
X181468282Y-44224125D02*
X181468282Y-47737125D01*
X181508282Y-38246125D02*
X181508282Y-41744125D01*
X181508282Y-44224125D02*
X181508282Y-47722125D01*
X181548282Y-38262125D02*
X181548282Y-41744125D01*
X181548282Y-44224125D02*
X181548282Y-47706125D01*
X181588282Y-38278125D02*
X181588282Y-41744125D01*
X181588282Y-44224125D02*
X181588282Y-47690125D01*
X181628282Y-38294125D02*
X181628282Y-41744125D01*
X181628282Y-44224125D02*
X181628282Y-47674125D01*
X181668282Y-38311125D02*
X181668282Y-41744125D01*
X181668282Y-44224125D02*
X181668282Y-47657125D01*
X181708282Y-38328125D02*
X181708282Y-41744125D01*
X181708282Y-44224125D02*
X181708282Y-47640125D01*
X181748282Y-38346125D02*
X181748282Y-41744125D01*
X181748282Y-44224125D02*
X181748282Y-47622125D01*
X181788282Y-38364125D02*
X181788282Y-41744125D01*
X181788282Y-44224125D02*
X181788282Y-47604125D01*
X181828282Y-38382125D02*
X181828282Y-41744125D01*
X181828282Y-44224125D02*
X181828282Y-47586125D01*
X181868282Y-38401125D02*
X181868282Y-41744125D01*
X181868282Y-44224125D02*
X181868282Y-47567125D01*
X181908282Y-38420125D02*
X181908282Y-41744125D01*
X181908282Y-44224125D02*
X181908282Y-47548125D01*
X181948282Y-38440125D02*
X181948282Y-41744125D01*
X181948282Y-44224125D02*
X181948282Y-47528125D01*
X181988282Y-38460125D02*
X181988282Y-41744125D01*
X181988282Y-44224125D02*
X181988282Y-47508125D01*
X182028282Y-38480125D02*
X182028282Y-41744125D01*
X182028282Y-44224125D02*
X182028282Y-47488125D01*
X182068282Y-38501125D02*
X182068282Y-41744125D01*
X182068282Y-44224125D02*
X182068282Y-47467125D01*
X182108282Y-38523125D02*
X182108282Y-41744125D01*
X182108282Y-44224125D02*
X182108282Y-47445125D01*
X182148282Y-38545125D02*
X182148282Y-41744125D01*
X182148282Y-44224125D02*
X182148282Y-47423125D01*
X182188282Y-38567125D02*
X182188282Y-41744125D01*
X182188282Y-44224125D02*
X182188282Y-47401125D01*
X182228282Y-38590125D02*
X182228282Y-41744125D01*
X182228282Y-44224125D02*
X182228282Y-47378125D01*
X182268282Y-38613125D02*
X182268282Y-41744125D01*
X182268282Y-44224125D02*
X182268282Y-47355125D01*
X182308282Y-38637125D02*
X182308282Y-41744125D01*
X182308282Y-44224125D02*
X182308282Y-47331125D01*
X182348282Y-38661125D02*
X182348282Y-41744125D01*
X182348282Y-44224125D02*
X182348282Y-47307125D01*
X182388282Y-38686125D02*
X182388282Y-41744125D01*
X182388282Y-44224125D02*
X182388282Y-47282125D01*
X182428282Y-38712125D02*
X182428282Y-41744125D01*
X182428282Y-44224125D02*
X182428282Y-47256125D01*
X182468282Y-38737125D02*
X182468282Y-41744125D01*
X182468282Y-44224125D02*
X182468282Y-47231125D01*
X182508282Y-38764125D02*
X182508282Y-41744125D01*
X182508282Y-44224125D02*
X182508282Y-47204125D01*
X182548282Y-38791125D02*
X182548282Y-41744125D01*
X182548282Y-44224125D02*
X182548282Y-47177125D01*
X182588282Y-38818125D02*
X182588282Y-41744125D01*
X182588282Y-44224125D02*
X182588282Y-47150125D01*
X182628282Y-38846125D02*
X182628282Y-41744125D01*
X182628282Y-44224125D02*
X182628282Y-47122125D01*
X182668282Y-38875125D02*
X182668282Y-41744125D01*
X182668282Y-44224125D02*
X182668282Y-47093125D01*
X182708282Y-38904125D02*
X182708282Y-41744125D01*
X182708282Y-44224125D02*
X182708282Y-47064125D01*
X182748282Y-38934125D02*
X182748282Y-41744125D01*
X182748282Y-44224125D02*
X182748282Y-47034125D01*
X182788282Y-38964125D02*
X182788282Y-41744125D01*
X182788282Y-44224125D02*
X182788282Y-47004125D01*
X182828282Y-38996125D02*
X182828282Y-41744125D01*
X182828282Y-44224125D02*
X182828282Y-46972125D01*
X182868282Y-39027125D02*
X182868282Y-41744125D01*
X182868282Y-44224125D02*
X182868282Y-46941125D01*
X182908282Y-39060125D02*
X182908282Y-41744125D01*
X182908282Y-44224125D02*
X182908282Y-46908125D01*
X182948282Y-39093125D02*
X182948282Y-41744125D01*
X182948282Y-44224125D02*
X182948282Y-46875125D01*
X182988282Y-39126125D02*
X182988282Y-41744125D01*
X182988282Y-44224125D02*
X182988282Y-46842125D01*
X183028282Y-39161125D02*
X183028282Y-41744125D01*
X183028282Y-44224125D02*
X183028282Y-46807125D01*
X183068282Y-39196125D02*
X183068282Y-41744125D01*
X183068282Y-44224125D02*
X183068282Y-46772125D01*
X183108282Y-39232125D02*
X183108282Y-41744125D01*
X183108282Y-44224125D02*
X183108282Y-46736125D01*
X183148282Y-39268125D02*
X183148282Y-41744125D01*
X183148282Y-44224125D02*
X183148282Y-46700125D01*
X183188282Y-39306125D02*
X183188282Y-41744125D01*
X183188282Y-44224125D02*
X183188282Y-46662125D01*
X183228282Y-39344125D02*
X183228282Y-41744125D01*
X183228282Y-44224125D02*
X183228282Y-46624125D01*
X183268282Y-39383125D02*
X183268282Y-41744125D01*
X183268282Y-44224125D02*
X183268282Y-46585125D01*
X183308282Y-39423125D02*
X183308282Y-41744125D01*
X183308282Y-44224125D02*
X183308282Y-46545125D01*
X183348282Y-39464125D02*
X183348282Y-41744125D01*
X183348282Y-44224125D02*
X183348282Y-46504125D01*
X183388282Y-39506125D02*
X183388282Y-41744125D01*
X183388282Y-44224125D02*
X183388282Y-46462125D01*
X183428282Y-39549125D02*
X183428282Y-46419125D01*
X183468282Y-39593125D02*
X183468282Y-46375125D01*
X183508282Y-39637125D02*
X183508282Y-46331125D01*
X183548282Y-39683125D02*
X183548282Y-46285125D01*
X183588282Y-39730125D02*
X183588282Y-46238125D01*
X183628282Y-39779125D02*
X183628282Y-46189125D01*
X183668282Y-39828125D02*
X183668282Y-46140125D01*
X183708282Y-39879125D02*
X183708282Y-46089125D01*
X183748282Y-39931125D02*
X183748282Y-46037125D01*
X183788282Y-39984125D02*
X183788282Y-45984125D01*
X183828282Y-40039125D02*
X183828282Y-45929125D01*
X183868282Y-40096125D02*
X183868282Y-45872125D01*
X183908282Y-40154125D02*
X183908282Y-45814125D01*
X183948282Y-40214125D02*
X183948282Y-45754125D01*
X183988282Y-40276125D02*
X183988282Y-45692125D01*
X184028282Y-40340125D02*
X184028282Y-45628125D01*
X184068282Y-40406125D02*
X184068282Y-45562125D01*
X184108282Y-40474125D02*
X184108282Y-45494125D01*
X184148282Y-40545125D02*
X184148282Y-45423125D01*
X184188282Y-40619125D02*
X184188282Y-45349125D01*
X184228282Y-40696125D02*
X184228282Y-45272125D01*
X184268282Y-40776125D02*
X184268282Y-45192125D01*
X184308282Y-40860125D02*
X184308282Y-45108125D01*
X184348282Y-40947125D02*
X184348282Y-45021125D01*
X184388282Y-41040125D02*
X184388282Y-44928125D01*
X184428282Y-41138125D02*
X184428282Y-44830125D01*
X184468282Y-41242125D02*
X184468282Y-44726125D01*
X184508282Y-41354125D02*
X184508282Y-44614125D01*
X184548282Y-41475125D02*
X184548282Y-44493125D01*
X184588282Y-41607125D02*
X184588282Y-44361125D01*
X184628282Y-41754125D02*
X184628282Y-44214125D01*
X184668282Y-41922125D02*
X184668282Y-44046125D01*
X184708282Y-42122125D02*
X184708282Y-43846125D01*
X184748282Y-42385125D02*
X184748282Y-43583125D01*
X184788282Y-42984125D02*
G75*
G02*
X174548282Y-42984125I-5120000J0D01*
G01*
X174548282Y-42984125D02*
G75*
G02*
X184788282Y-42984125I5120000J0D01*
G01*
%TO.C,Q2*%
X63798282Y-55534125D02*
X68418282Y-55534125D01*
X63798282Y-58794125D02*
X65178282Y-58794125D01*
X63798282Y-62494125D02*
X65178282Y-62494125D01*
X63798282Y-65754125D02*
X63798282Y-55534125D01*
X65178282Y-65754125D02*
X65178282Y-55534125D01*
X68418282Y-55534125D02*
X68418282Y-65754125D01*
X68418282Y-65754125D02*
X63798282Y-65754125D01*
%TO.C,J9*%
X192907032Y-18444125D02*
G75*
G02*
X181907032Y-18444125I-5500000J0D01*
G01*
X181907032Y-18444125D02*
G75*
G02*
X192907032Y-18444125I5500000J0D01*
G01*
%TD*%
D12*
X37407032Y-18444125D03*
X87407032Y-18444125D03*
X217407032Y-18444125D03*
X224668282Y-76344125D03*
X217048282Y-76344125D03*
X117407032Y-18444125D03*
X237407032Y-18444125D03*
X227168282Y-42984125D03*
X232168282Y-42984125D03*
X72784532Y-124205000D03*
X72784532Y-129285000D03*
X124668282Y-76344125D03*
X117048282Y-76344125D03*
X84668282Y-76344125D03*
X89668282Y-76344125D03*
X77168282Y-42984125D03*
X82168282Y-42984125D03*
X117058282Y-63184125D03*
X117058282Y-60644125D03*
X117058282Y-58104125D03*
X34668282Y-76344125D03*
X39668282Y-76344125D03*
X67407032Y-18444125D03*
X24668282Y-76344125D03*
X17048282Y-76344125D03*
X29498282Y-63184125D03*
X39658282Y-63184125D03*
X34797032Y-124250000D03*
X44957032Y-124250000D03*
X27168282Y-104194125D03*
X32168282Y-104194125D03*
X129498282Y-63184125D03*
X139658282Y-63184125D03*
X17058282Y-63184125D03*
X17058282Y-60644125D03*
X17058282Y-58104125D03*
X17407032Y-18444125D03*
X167407032Y-18444125D03*
X27168282Y-42984125D03*
X32168282Y-42984125D03*
X234668282Y-76344125D03*
X239668282Y-76344125D03*
X79498282Y-63184125D03*
X89658282Y-63184125D03*
X179498282Y-63184125D03*
X189658282Y-63184125D03*
X39658282Y-91544125D03*
X37118282Y-91544125D03*
X18257032Y-124250000D03*
X28417032Y-124250000D03*
X184668282Y-76344125D03*
X189668282Y-76344125D03*
X127168282Y-42984125D03*
X132168282Y-42984125D03*
X167058282Y-63184125D03*
X167058282Y-60644125D03*
X167058282Y-58104125D03*
X174668282Y-76344125D03*
X167048282Y-76344125D03*
X18247032Y-133500000D03*
X28407032Y-133500000D03*
X24678282Y-91544125D03*
X17058282Y-91544125D03*
X137407032Y-18444125D03*
X74668282Y-76344125D03*
X67048282Y-76344125D03*
X134668282Y-76344125D03*
X139668282Y-76344125D03*
X34797032Y-133500000D03*
X44957032Y-133500000D03*
X217058282Y-63184125D03*
X217058282Y-60644125D03*
X217058282Y-58104125D03*
X229498282Y-63184125D03*
X239658282Y-63184125D03*
X177168282Y-42984125D03*
X182168282Y-42984125D03*
X67058282Y-63184125D03*
X67058282Y-60644125D03*
X67058282Y-58104125D03*
X187407032Y-18444125D03*
M02*
