M48
; DRILL file {KiCad 9.0.7} date 2026-07-31T05:15:46+0500
; FORMAT={-:-/ absolute / metric / decimal}
; #@! TF.CreationDate,2026-07-31T05:15:46+05:00
; #@! TF.GenerationSoftware,Kicad,Pcbnew,9.0.7
; #@! TF.FileFunction,Plated,1,2,PTH
FMAT,2
METRIC
; #@! TA.AperFunction,Plated,PTH,ComponentDrill
T1C0.800
; #@! TA.AperFunction,Plated,PTH,ComponentDrill
T2C0.900
; #@! TA.AperFunction,Plated,PTH,ComponentDrill
T3C1.000
; #@! TA.AperFunction,Plated,PTH,ComponentDrill
T4C1.100
; #@! TA.AperFunction,Plated,PTH,ComponentDrill
T5C1.300
; #@! TA.AperFunction,Plated,PTH,ComponentDrill
T6C6.100
%
G90
G05
T1
X17.048Y-76.344
X17.058Y-91.544
X24.668Y-76.344
X24.678Y-91.544
X67.048Y-76.344
X74.668Y-76.344
X117.048Y-76.344
X124.668Y-76.344
X167.048Y-76.344
X174.668Y-76.344
X217.048Y-76.344
X224.668Y-76.344
T2
X37.118Y-91.544
X39.658Y-91.544
T3
X27.168Y-42.984
X27.168Y-104.194
X32.168Y-42.984
X32.168Y-104.194
X34.668Y-76.344
X39.668Y-76.344
X77.168Y-42.984
X82.168Y-42.984
X84.668Y-76.344
X89.668Y-76.344
X127.168Y-42.984
X132.168Y-42.984
X134.668Y-76.344
X139.668Y-76.344
X177.168Y-42.984
X182.168Y-42.984
X184.668Y-76.344
X189.668Y-76.344
X227.168Y-42.984
X232.168Y-42.984
X234.668Y-76.344
X239.668Y-76.344
T4
X17.058Y-58.104
X17.058Y-60.644
X17.058Y-63.184
X18.247Y-133.5
X18.257Y-124.25
X28.407Y-133.5
X28.417Y-124.25
X29.498Y-63.184
X34.797Y-124.25
X34.797Y-133.5
X39.658Y-63.184
X44.957Y-124.25
X44.957Y-133.5
X67.058Y-58.104
X67.058Y-60.644
X67.058Y-63.184
X79.498Y-63.184
X89.658Y-63.184
X117.058Y-58.104
X117.058Y-60.644
X117.058Y-63.184
X129.498Y-63.184
X139.658Y-63.184
X167.058Y-58.104
X167.058Y-60.644
X167.058Y-63.184
X179.498Y-63.184
X189.658Y-63.184
X217.058Y-58.104
X217.058Y-60.644
X217.058Y-63.184
X229.498Y-63.184
X239.658Y-63.184
T5
X72.785Y-124.205
X72.785Y-129.285
T6
X17.407Y-18.444
X37.407Y-18.444
X67.407Y-18.444
X87.407Y-18.444
X117.407Y-18.444
X137.407Y-18.444
X167.407Y-18.444
X187.407Y-18.444
X217.407Y-18.444
X237.407Y-18.444
M30
