%TF.GenerationSoftware,KiCad,Pcbnew,9.0.7*%
%TF.CreationDate,2026-07-31T05:15:46+05:00*%
%TF.ProjectId,Power Suply,506f7765-7220-4537-9570-6c792e6b6963,rev?*%
%TF.SameCoordinates,Original*%
%TF.FileFunction,Legend,Bot*%
%TF.FilePolarity,Positive*%
%FSLAX46Y46*%
G04 Gerber Fmt 4.6, Leading zero omitted, Abs format (unit mm)*
G04 Created by KiCad (PCBNEW 9.0.7) date 2026-07-31 05:15:46*
%MOMM*%
%LPD*%
G01*
G04 APERTURE LIST*
%ADD10C,0.350000*%
G04 APERTURE END LIST*
D10*
X37407032Y-18444125D03*
X87407032Y-18444125D03*
X217407032Y-18444125D03*
X224668282Y-76344125D03*
X217048282Y-76344125D03*
X117407032Y-18444125D03*
X237407032Y-18444125D03*
X227168282Y-42984125D03*
X232168282Y-42984125D03*
X72784532Y-124205000D03*
X72784532Y-129285000D03*
X124668282Y-76344125D03*
X117048282Y-76344125D03*
X84668282Y-76344125D03*
X89668282Y-76344125D03*
X77168282Y-42984125D03*
X82168282Y-42984125D03*
X117058282Y-63184125D03*
X117058282Y-60644125D03*
X117058282Y-58104125D03*
X34668282Y-76344125D03*
X39668282Y-76344125D03*
X67407032Y-18444125D03*
X24668282Y-76344125D03*
X17048282Y-76344125D03*
X29498282Y-63184125D03*
X39658282Y-63184125D03*
X34797032Y-124250000D03*
X44957032Y-124250000D03*
X27168282Y-104194125D03*
X32168282Y-104194125D03*
X129498282Y-63184125D03*
X139658282Y-63184125D03*
X17058282Y-63184125D03*
X17058282Y-60644125D03*
X17058282Y-58104125D03*
X17407032Y-18444125D03*
X167407032Y-18444125D03*
X27168282Y-42984125D03*
X32168282Y-42984125D03*
X234668282Y-76344125D03*
X239668282Y-76344125D03*
X79498282Y-63184125D03*
X89658282Y-63184125D03*
X179498282Y-63184125D03*
X189658282Y-63184125D03*
X39658282Y-91544125D03*
X37118282Y-91544125D03*
X18257032Y-124250000D03*
X28417032Y-124250000D03*
X184668282Y-76344125D03*
X189668282Y-76344125D03*
X127168282Y-42984125D03*
X132168282Y-42984125D03*
X167058282Y-63184125D03*
X167058282Y-60644125D03*
X167058282Y-58104125D03*
X174668282Y-76344125D03*
X167048282Y-76344125D03*
X18247032Y-133500000D03*
X28407032Y-133500000D03*
X24678282Y-91544125D03*
X17058282Y-91544125D03*
X137407032Y-18444125D03*
X74668282Y-76344125D03*
X67048282Y-76344125D03*
X134668282Y-76344125D03*
X139668282Y-76344125D03*
X34797032Y-133500000D03*
X44957032Y-133500000D03*
X217058282Y-63184125D03*
X217058282Y-60644125D03*
X217058282Y-58104125D03*
X229498282Y-63184125D03*
X239658282Y-63184125D03*
X177168282Y-42984125D03*
X182168282Y-42984125D03*
X67058282Y-63184125D03*
X67058282Y-60644125D03*
X67058282Y-58104125D03*
X187407032Y-18444125D03*
M02*
