%TF.GenerationSoftware,KiCad,Pcbnew,9.0.7*%
%TF.CreationDate,2026-07-31T05:15:46+05:00*%
%TF.ProjectId,Power Suply,506f7765-7220-4537-9570-6c792e6b6963,rev?*%
%TF.SameCoordinates,Original*%
%TF.FileFunction,Soldermask,Top*%
%TF.FilePolarity,Negative*%
%FSLAX46Y46*%
G04 Gerber Fmt 4.6, Leading zero omitted, Abs format (unit mm)*
G04 Created by KiCad (PCBNEW 9.0.7) date 2026-07-31 05:15:46*
%MOMM*%
%LPD*%
G01*
G04 APERTURE LIST*
G04 Aperture macros list*
%AMRoundRect*
0 Rectangle with rounded corners*
0 $1 Rounding radius*
0 $2 $3 $4 $5 $6 $7 $8 $9 X,Y pos of 4 corners*
0 Add a 4 corners polygon primitive as box body*
4,1,4,$2,$3,$4,$5,$6,$7,$8,$9,$2,$3,0*
0 Add four circle primitives for the rounded corners*
1,1,$1+$1,$2,$3*
1,1,$1+$1,$4,$5*
1,1,$1+$1,$6,$7*
1,1,$1+$1,$8,$9*
0 Add four rect primitives between the rounded corners*
20,1,$1+$1,$2,$3,$4,$5,0*
20,1,$1+$1,$4,$5,$6,$7,0*
20,1,$1+$1,$6,$7,$8,$9,0*
20,1,$1+$1,$8,$9,$2,$3,0*%
G04 Aperture macros list end*
%ADD10C,10.160000*%
%ADD11C,1.600000*%
%ADD12RoundRect,0.250000X-0.750000X-0.750000X0.750000X-0.750000X0.750000X0.750000X-0.750000X0.750000X0*%
%ADD13C,2.000000*%
%ADD14RoundRect,0.250000X-1.050000X1.050000X-1.050000X-1.050000X1.050000X-1.050000X1.050000X1.050000X0*%
%ADD15C,2.600000*%
%ADD16R,2.000000X1.905000*%
%ADD17O,2.000000X1.905000*%
%ADD18RoundRect,0.249999X-0.850001X-0.850001X0.850001X-0.850001X0.850001X0.850001X-0.850001X0.850001X0*%
%ADD19C,2.200000*%
%ADD20R,1.800000X1.800000*%
%ADD21C,1.800000*%
%ADD22C,0.350000*%
G04 APERTURE END LIST*
D10*
%TO.C,J2*%
X37407032Y-18444125D03*
%TD*%
%TO.C,J4*%
X87407032Y-18444125D03*
%TD*%
%TO.C,J10*%
X217407032Y-18444125D03*
%TD*%
D11*
%TO.C,R6*%
X224668282Y-76344125D03*
X217048282Y-76344125D03*
%TD*%
D10*
%TO.C,J6*%
X117407032Y-18444125D03*
%TD*%
%TO.C,J11*%
X237407032Y-18444125D03*
%TD*%
D12*
%TO.C,C11*%
X227168282Y-42984125D03*
D13*
X232168282Y-42984125D03*
%TD*%
D14*
%TO.C,J5*%
X72784532Y-124205000D03*
D15*
X72784532Y-129285000D03*
%TD*%
D11*
%TO.C,R4*%
X124668282Y-76344125D03*
X117048282Y-76344125D03*
%TD*%
D12*
%TO.C,C4*%
X84668282Y-76344125D03*
D13*
X89668282Y-76344125D03*
%TD*%
D12*
%TO.C,C5*%
X77168282Y-42984125D03*
D13*
X82168282Y-42984125D03*
%TD*%
D16*
%TO.C,Q3*%
X117058282Y-63184125D03*
D17*
X117058282Y-60644125D03*
X117058282Y-58104125D03*
%TD*%
D12*
%TO.C,C2*%
X34668282Y-76344125D03*
D13*
X39668282Y-76344125D03*
%TD*%
D10*
%TO.C,J3*%
X67407032Y-18444125D03*
%TD*%
D11*
%TO.C,R2*%
X24668282Y-76344125D03*
X17048282Y-76344125D03*
%TD*%
D18*
%TO.C,D6*%
X29498282Y-63184125D03*
D19*
X39658282Y-63184125D03*
%TD*%
D18*
%TO.C,D3*%
X34797032Y-124250000D03*
D19*
X44957032Y-124250000D03*
%TD*%
D12*
%TO.C,C1*%
X27168282Y-104194125D03*
D13*
X32168282Y-104194125D03*
%TD*%
D18*
%TO.C,D8*%
X129498282Y-63184125D03*
D19*
X139658282Y-63184125D03*
%TD*%
D16*
%TO.C,Q1*%
X17058282Y-63184125D03*
D17*
X17058282Y-60644125D03*
X17058282Y-58104125D03*
%TD*%
D10*
%TO.C,J1*%
X17407032Y-18444125D03*
%TD*%
%TO.C,J8*%
X167407032Y-18444125D03*
%TD*%
D12*
%TO.C,C3*%
X27168282Y-42984125D03*
D13*
X32168282Y-42984125D03*
%TD*%
D12*
%TO.C,C10*%
X234668282Y-76344125D03*
D13*
X239668282Y-76344125D03*
%TD*%
D18*
%TO.C,D7*%
X79498282Y-63184125D03*
D19*
X89658282Y-63184125D03*
%TD*%
D18*
%TO.C,D9*%
X179498282Y-63184125D03*
D19*
X189658282Y-63184125D03*
%TD*%
D20*
%TO.C,D5*%
X39658282Y-91544125D03*
D21*
X37118282Y-91544125D03*
%TD*%
D18*
%TO.C,D4*%
X18257032Y-124250000D03*
D19*
X28417032Y-124250000D03*
%TD*%
D12*
%TO.C,C8*%
X184668282Y-76344125D03*
D13*
X189668282Y-76344125D03*
%TD*%
D12*
%TO.C,C7*%
X127168282Y-42984125D03*
D13*
X132168282Y-42984125D03*
%TD*%
D16*
%TO.C,Q4*%
X167058282Y-63184125D03*
D17*
X167058282Y-60644125D03*
X167058282Y-58104125D03*
%TD*%
D11*
%TO.C,R5*%
X174668282Y-76344125D03*
X167048282Y-76344125D03*
%TD*%
D18*
%TO.C,D2*%
X18247032Y-133500000D03*
D19*
X28407032Y-133500000D03*
%TD*%
D11*
%TO.C,R1*%
X24678282Y-91544125D03*
X17058282Y-91544125D03*
%TD*%
D10*
%TO.C,J7*%
X137407032Y-18444125D03*
%TD*%
D11*
%TO.C,R3*%
X74668282Y-76344125D03*
X67048282Y-76344125D03*
%TD*%
D12*
%TO.C,C6*%
X134668282Y-76344125D03*
D13*
X139668282Y-76344125D03*
%TD*%
D18*
%TO.C,D1*%
X34797032Y-133500000D03*
D19*
X44957032Y-133500000D03*
%TD*%
D16*
%TO.C,Q5*%
X217058282Y-63184125D03*
D17*
X217058282Y-60644125D03*
X217058282Y-58104125D03*
%TD*%
D18*
%TO.C,D10*%
X229498282Y-63184125D03*
D19*
X239658282Y-63184125D03*
%TD*%
D12*
%TO.C,C9*%
X177168282Y-42984125D03*
D13*
X182168282Y-42984125D03*
%TD*%
D16*
%TO.C,Q2*%
X67058282Y-63184125D03*
D17*
X67058282Y-60644125D03*
X67058282Y-58104125D03*
%TD*%
D10*
%TO.C,J9*%
X187407032Y-18444125D03*
%TD*%
D22*
X37407032Y-18444125D03*
X87407032Y-18444125D03*
X217407032Y-18444125D03*
X224668282Y-76344125D03*
X217048282Y-76344125D03*
X117407032Y-18444125D03*
X237407032Y-18444125D03*
X227168282Y-42984125D03*
X232168282Y-42984125D03*
X72784532Y-124205000D03*
X72784532Y-129285000D03*
X124668282Y-76344125D03*
X117048282Y-76344125D03*
X84668282Y-76344125D03*
X89668282Y-76344125D03*
X77168282Y-42984125D03*
X82168282Y-42984125D03*
X117058282Y-63184125D03*
X117058282Y-60644125D03*
X117058282Y-58104125D03*
X34668282Y-76344125D03*
X39668282Y-76344125D03*
X67407032Y-18444125D03*
X24668282Y-76344125D03*
X17048282Y-76344125D03*
X29498282Y-63184125D03*
X39658282Y-63184125D03*
X34797032Y-124250000D03*
X44957032Y-124250000D03*
X27168282Y-104194125D03*
X32168282Y-104194125D03*
X129498282Y-63184125D03*
X139658282Y-63184125D03*
X17058282Y-63184125D03*
X17058282Y-60644125D03*
X17058282Y-58104125D03*
X17407032Y-18444125D03*
X167407032Y-18444125D03*
X27168282Y-42984125D03*
X32168282Y-42984125D03*
X234668282Y-76344125D03*
X239668282Y-76344125D03*
X79498282Y-63184125D03*
X89658282Y-63184125D03*
X179498282Y-63184125D03*
X189658282Y-63184125D03*
X39658282Y-91544125D03*
X37118282Y-91544125D03*
X18257032Y-124250000D03*
X28417032Y-124250000D03*
X184668282Y-76344125D03*
X189668282Y-76344125D03*
X127168282Y-42984125D03*
X132168282Y-42984125D03*
X167058282Y-63184125D03*
X167058282Y-60644125D03*
X167058282Y-58104125D03*
X174668282Y-76344125D03*
X167048282Y-76344125D03*
X18247032Y-133500000D03*
X28407032Y-133500000D03*
X24678282Y-91544125D03*
X17058282Y-91544125D03*
X137407032Y-18444125D03*
X74668282Y-76344125D03*
X67048282Y-76344125D03*
X134668282Y-76344125D03*
X139668282Y-76344125D03*
X34797032Y-133500000D03*
X44957032Y-133500000D03*
X217058282Y-63184125D03*
X217058282Y-60644125D03*
X217058282Y-58104125D03*
X229498282Y-63184125D03*
X239658282Y-63184125D03*
X177168282Y-42984125D03*
X182168282Y-42984125D03*
X67058282Y-63184125D03*
X67058282Y-60644125D03*
X67058282Y-58104125D03*
X187407032Y-18444125D03*
M02*
