M48
METRIC,TZ
T1C0.800
T2C0.900
T3C1.000
T4C1.100
T5C1.300
T6C6.100
%
G90
G05
T1
X17048Y-76344
X17058Y-91544
X24668Y-76344
X24678Y-91544
X67048Y-76344
X74668Y-76344
X117048Y-76344
X124668Y-76344
X167048Y-76344
X174668Y-76344
X217048Y-76344
X224668Y-76344
T2
X37118Y-91544
X39658Y-91544
T3
X27168Y-42984
X27168Y-104194
X32168Y-42984
X32168Y-104194
X34668Y-76344
X39668Y-76344
X77168Y-42984
X82168Y-42984
X84668Y-76344
X89668Y-76344
X127168Y-42984
X132168Y-42984
X134668Y-76344
X139668Y-76344
X177168Y-42984
X182168Y-42984
X184668Y-76344
X189668Y-76344
X227168Y-42984
X232168Y-42984
X234668Y-76344
X239668Y-76344
T4
X17058Y-58104
X17058Y-60644
X17058Y-63184
X18247Y-133500
X18257Y-124250
X28407Y-133500
X28417Y-124250
X29498Y-63184
X34797Y-124250
X34797Y-133500
X39658Y-63184
X44957Y-124250
X44957Y-133500
X67058Y-58104
X67058Y-60644
X67058Y-63184
X79498Y-63184
X89658Y-63184
X117058Y-58104
X117058Y-60644
X117058Y-63184
X129498Y-63184
X139658Y-63184
X167058Y-58104
X167058Y-60644
X167058Y-63184
X179498Y-63184
X189658Y-63184
X217058Y-58104
X217058Y-60644
X217058Y-63184
X229498Y-63184
X239658Y-63184
T5
X72785Y-124205
X72785Y-129285
T6
X17407Y-18444
X37407Y-18444
X67407Y-18444
X87407Y-18444
X117407Y-18444
X137407Y-18444
X167407Y-18444
X187407Y-18444
X217407Y-18444
X237407Y-18444
M30
